<svg width="50" height="48" viewBox="0 0 50 48" fill="none" xmlns="http://www.w3.org/2000/svg">
<circle cx="25.1971" cy="24" r="23" stroke="#4E4D47" stroke-width="2"/>
<path d="M13.1612 15.0485C12.9412 14.3286 10.9649 11.5113 11.8923 8.79042C12.6097 6.68587 16.3123 14.1733 16.9678 15.27L16.2507 19.2581C16.2507 19.2581 12.4997 16.2678 11.8375 15.7689C11.1753 15.27 10.3482 15.16 10.2929 13.7751C10.1992 11.4259 12.6654 14.6055 13.1612 15.0485Z" fill="white" stroke="#4E4D47" stroke-linecap="round"/>
<path fill-rule="evenodd" clip-rule="evenodd" d="M24.1306 5.29728C25.7921 5.08962 27.2151 4.97598 29.196 5.29728C31.2555 5.63147 34.0414 7.34607 34.7625 8.5258C35.3746 9.52745 35.4118 10.9932 35.3191 11.5317C35.0408 14.63 34.5399 20.9489 34.7625 21.4399C35.0408 22.0521 36.4322 24.6129 36.0984 27.7856L34.5955 25.4477C35.4861 28.5648 34.762 37.0813 20.7908 37.6938L17.6179 37.5268L18.1746 36.0795C17.886 36.0136 17.4432 35.8906 16.9929 35.7289L17.0046 35.8012C16.2817 37.6376 13.2662 40.7093 12.7752 40.9779C12.1629 41.3119 11.4948 41.5345 10.3816 40.9779C9.81011 40.6922 11.5758 39.0083 12.9148 37.8383C11.4503 39.0645 9.28411 40.8582 8.93433 41.0336C8.26636 41.3676 7.11262 41.2996 6.03882 40.5326C5.5126 40.1551 8.78715 37.9161 10.9568 36.5092C9.11164 37.67 6.46678 39.3052 6.03882 39.4194C5.20382 39.6419 3.4793 38.7353 4.36988 37.9721C6.5537 36.1008 12.0854 34.0825 15.4822 31.0131C15.493 30.8152 15.5067 30.6126 15.5193 30.4057C14.6498 30.4625 13.2558 30.3073 10.7156 29.6781C8.8569 29.2178 12.16 28.5106 12.6628 28.0649C12.637 28.065 9.92678 28.0753 8.15406 27.3969C4.0915 25.8421 8.70821 25.5604 9.21167 25.3373C9.19079 25.3331 5.8315 24.653 3.42261 21.7192C2.14675 20.1652 6.90108 20.8799 6.92945 20.8842C6.31741 20.3276 2.64361 19.3253 1.14038 14.0375C0.333422 11.1987 4.59216 15.8182 6.20679 16.0961C6.1976 16.0857 5.27328 15.0377 4.4812 14.0375C2.89382 12.0331 1.19754 9.1183 1.75367 6.96818C2.15751 5.40755 4.15977 8.16547 7.37574 11.309C10.1232 13.9946 13.5859 17.0815 16.4871 19.3276C16.4931 19.2705 16.4987 19.2135 16.5046 19.1576C16.6531 17.5432 16.9541 14.0166 17.3953 11.9213C17.8408 9.80619 19.6996 7.4444 20.6794 6.74455C22.6273 5.3533 23.2401 5.4086 24.1306 5.29728Z" fill="white"/>
<path d="M27.0396 25.954C27.023 25.9096 26.9921 25.8709 26.9503 25.8471C26.9086 25.8233 26.8599 25.8164 26.8143 25.8279C26.7686 25.8395 26.7291 25.8688 26.7038 25.9095C26.6783 25.9503 26.6696 25.9991 26.6761 26.046C26.6994 26.2227 26.7129 26.4107 26.7156 26.5889C26.7367 28.2317 26.1037 29.8045 24.9517 30.8374C23.8037 31.8857 22.2053 32.4244 20.5511 32.7215C20.371 32.7543 20.1851 32.7848 19.9932 32.8126C19.9464 32.8195 19.902 32.8416 19.87 32.8775C19.838 32.9133 19.821 32.9594 19.8227 33.0065C19.8244 33.0535 19.8447 33.0983 19.8793 33.1317C19.9138 33.1651 19.9597 33.1839 20.0069 33.1874C20.2053 33.201 20.3994 33.2097 20.5894 33.2138C22.3206 33.2482 24.2203 32.8517 25.6252 31.5766C27.043 30.3154 27.5941 28.2765 27.2057 26.529C27.1635 26.3374 27.1078 26.1379 27.0396 25.954Z" fill="#4E4D47"/>
<path d="M29.636 32.5162C29.4699 33.018 32.684 30.2862 32.9056 27.3872C32.9056 27.3872 33.4599 27.6102 33.9032 31.2897C33.9032 31.2897 31.4095 37.3108 20.9355 37.6453C22.6536 36.809 24.0942 34.356 24.0942 34.356C26.7544 34.0215 28.694 33.018 29.9131 31.011C29.9131 31.011 29.8022 32.0145 29.636 32.5162Z" fill="white"/>
<path d="M6.07473 40.427C5.29591 39.8706 15.4757 34.1006 16.9777 33.8611C18.4797 33.6216 19.871 33.1934 19.871 33.1934L18.0908 36.1981L16.9777 35.8086C16.255 37.6448 13.2399 40.7164 12.7503 40.9835C12.1384 41.3173 11.4708 41.5399 10.3582 40.9835C9.7871 40.6978 11.5521 39.0146 12.8903 37.845C11.4262 39.0713 9.26021 40.8649 8.91186 41.0391C8.2443 41.373 7.14787 41.1938 6.07473 40.427Z" fill="white"/>
<path d="M23.1613 9.1589C23.2171 9.05208 23.301 8.9736 23.3907 8.90888C24.2558 8.39939 25.297 8.45988 26.1623 8.68598C26.4348 8.76274 26.6964 8.86605 26.9509 8.99933C27.5627 9.34717 28.2247 9.60157 28.6273 10.1767C28.6935 10.2727 28.7679 10.3867 28.871 10.4515C28.812 10.3444 28.8031 10.2339 28.7839 10.1142C28.647 9.30124 27.9687 8.74994 27.3872 8.30673C27.0911 8.09298 26.7565 7.93148 26.4026 7.83209C25.2727 7.52073 23.9146 7.80919 23.2626 8.79939C23.2011 8.91192 23.1589 9.03792 23.1613 9.1589Z" fill="#4E4D47"/>
<path d="M25.9463 16.9655C24.0095 16.9683 22.4369 15.1762 22.434 13.1884C22.4311 11.2006 23.9989 9.58694 25.9356 9.58415C27.8724 9.58136 29.4448 11.1905 29.4476 13.1783C29.4505 15.166 27.883 16.9627 25.9463 16.9655Z" fill="white"/>
<path d="M28.9476 13.1794C28.9499 14.9361 27.5629 16.4637 25.9455 16.466C24.3282 16.4683 22.9367 14.9448 22.934 13.1881C22.9315 11.4641 24.2879 10.0865 25.9363 10.0842C27.5848 10.0818 28.9451 11.4555 28.9476 13.1794Z" stroke="#4E4D47"/>
<ellipse cx="25.7258" cy="13.5001" rx="1.8871" ry="2.08065" fill="#4E4D47"/>
<circle cx="26.8871" cy="12.4353" r="0.725806" fill="white"/>
<path d="M9.53002 27.6977C5.45391 26.1412 6.68136 26.2496 7.1847 26.0263L11.54 24.9678C12.9356 25.5249 16.007 25.8592 17.1795 25.7478C19.2456 25.5514 13.6956 27.2165 15.5044 27.6977C17.1795 28.1435 18.743 27.9763 19.748 27.1406C20.7811 26.2816 19.0771 29.3686 17.6258 29.6474C16.3415 30.0377 16.5649 31.0962 10.7023 29.6474C8.83733 29.1865 12.1524 28.4782 12.6558 28.0321C12.6558 28.0321 11.3168 28.3801 9.53002 27.6977Z" fill="white"/>
<path d="M15.9033 34.8114C16.1625 35.1627 16.7511 35.7361 16.9588 35.8151C17.2366 35.9207 17.681 35.9207 17.9588 35.8705C17.9771 35.8672 17.9959 35.8687 18.0144 35.8652C18.395 35.7926 18.762 35.0505 18.9033 34.645" stroke="#4E4D47" stroke-linecap="round"/>
<path d="M27.8165 39.8227L26.642 36.8711L24.6845 37.4837L25.915 39.6556C25.2065 39.4329 23.0738 39.5888 22 40.6581L24.6845 42C25.2214 41.2426 29.1401 42.0875 30.6129 42.7743C30.5383 42.1803 30.255 40.8586 29.7181 40.3239C29.1811 39.7893 28.2266 39.767 27.8165 39.8227Z" fill="white" stroke="#4E4D47"/>
<path d="M31.1106 39.7158C30.5354 39.2706 28.9907 39.5674 28.2903 39.7714C28.6405 39.7714 29.4295 39.8716 29.7834 40.2724C30.1373 40.6731 30.3732 41.2555 30.447 41.4967C30.7124 41.4076 31.9585 42.0532 32.5483 42.3871C32.3087 41.6822 31.6857 40.161 31.1106 39.7158Z" fill="white" stroke="#4E4D47" stroke-linejoin="round"/>
<path d="M21.7722 40.5173L20.3183 37.7001C20.3183 37.7001 19.6702 37.7441 19.2834 37.7494C18.8966 37.7546 18.1519 37.645 18.1519 37.645L20.1013 40.6299C19.0802 40.3296 17.0046 40.2582 16.8709 42.3758C16.8709 42.3758 19.3216 41.9253 20.5469 42.3758C21.7722 42.8264 23.3874 44.516 23.3874 44.516C23.7773 43.7838 24.2824 42.6308 22.5001 42C23.693 42 24.3695 42.895 24.8912 43.8402C25.1146 43.3239 25.1369 42.8493 25.0484 42.4322C24.828 41.3929 23.9351 40.6457 23.7216 40.6299C23.4988 40.6135 22.3292 40.5173 21.7722 40.5173Z" fill="white" stroke="#4E4D47" stroke-linejoin="round"/>
<path d="M35.2984 11.5618L34.8057 11.4768L34.8022 11.4969L34.8004 11.5171L35.2984 11.5618ZM34.7417 8.55699L34.3151 8.81778L34.7417 8.55699ZM29.1753 5.32944L29.0953 5.823L29.1753 5.32944ZM24.1099 5.3295L24.0479 4.83336L24.1099 5.3295ZM20.6587 6.77635L20.3682 6.36943L20.6587 6.77635ZM17.3746 11.9513L16.8853 11.8483L17.3746 11.9513ZM15.986 19.1395C15.9608 19.4144 16.1632 19.6579 16.4382 19.6832C16.7131 19.7084 16.9566 19.506 16.9818 19.2311L16.4839 19.1853L15.986 19.1395ZM34.7417 21.4667L34.2866 21.6737L34.7417 21.4667ZM36.0777 27.8103L35.6571 28.0807L36.4261 29.2765L36.5749 27.8627L36.0777 27.8103ZM34.5748 25.4732L34.9953 25.2027C34.8612 24.9942 34.5945 24.9154 34.3686 25.0177C34.1427 25.1199 34.0259 25.3722 34.094 25.6106L34.5748 25.4732ZM20.7026 37.0487C20.4267 37.0608 20.2129 37.2943 20.2249 37.5701C20.237 37.846 20.4705 38.0599 20.7464 38.0478L20.7245 37.5483L20.7026 37.0487ZM35.2984 11.5618L35.7911 11.6468C35.8482 11.316 35.8592 10.7626 35.7801 10.1675C35.7009 9.57083 35.5243 8.87847 35.1683 8.2962L34.7417 8.55699L34.3151 8.81778C34.5715 9.2371 34.7196 9.77821 34.7888 10.2991C34.8582 10.8215 34.8414 11.2698 34.8057 11.4768L35.2984 11.5618ZM34.7417 8.55699L35.1683 8.2962C34.7414 7.59778 33.7752 6.82307 32.7151 6.19585C31.6396 5.55953 30.368 5.0163 29.2554 4.83589L29.1753 5.32944L29.0953 5.823C30.0422 5.97653 31.1933 6.45738 32.2059 7.05649C33.2338 7.6647 34.0211 8.33679 34.3151 8.81778L34.7417 8.55699ZM29.1753 5.32944L29.2554 4.83589C27.2065 4.50367 25.7299 4.62318 24.0479 4.83336L24.1099 5.3295L24.1719 5.82564C25.8132 5.62055 27.182 5.51276 29.0953 5.823L29.1753 5.32944ZM24.1099 5.3295L24.0479 4.83336C23.6391 4.88444 23.19 4.90445 22.619 5.09994C22.0466 5.2959 21.3617 5.66001 20.3682 6.36943L20.6587 6.77635L20.9493 7.18326C21.904 6.50155 22.4994 6.19788 22.9429 6.04602C23.3878 5.8937 23.6901 5.88585 24.1719 5.82564L24.1099 5.3295ZM20.6587 6.77635L20.3682 6.36943C19.811 6.76726 19.0625 7.58546 18.4032 8.55142C17.7409 9.52189 17.1266 10.7025 16.8853 11.8483L17.3746 11.9513L17.8638 12.0544C18.0678 11.0857 18.6057 10.0286 19.2292 9.11513C19.8557 8.19714 20.5265 7.48511 20.9493 7.18326L20.6587 6.77635ZM17.3746 11.9513L16.8853 11.8483C16.4366 13.979 16.133 17.5415 15.986 19.1395L16.4839 19.1853L16.9818 19.2311C17.1317 17.6015 17.4302 14.1133 17.8638 12.0544L17.3746 11.9513ZM35.2984 11.5618L34.8004 11.5171C34.661 13.0683 34.4658 15.4265 34.3332 17.4597C34.267 18.4756 34.2161 19.4152 34.1958 20.134C34.1857 20.4925 34.183 20.803 34.1905 21.0432C34.1943 21.1628 34.2008 21.2726 34.2115 21.3659C34.2202 21.4414 34.2371 21.5648 34.2866 21.6737L34.7417 21.4667L35.1969 21.2597C35.2185 21.3074 35.2133 21.3241 35.205 21.2517C35.1987 21.1972 35.1934 21.118 35.19 21.0119C35.1834 20.8008 35.1855 20.5132 35.1954 20.1622C35.2152 19.4619 35.2651 18.5367 35.3311 17.5248C35.463 15.5024 35.6574 13.1529 35.7964 11.6066L35.2984 11.5618ZM34.7417 21.4667L34.2866 21.6737C34.5766 22.3116 35.8977 24.7448 35.5804 27.7579L36.0777 27.8103L36.5749 27.8627C36.9256 24.5322 35.4635 21.8461 35.1969 21.2597L34.7417 21.4667ZM36.0777 27.8103L36.4982 27.5399L34.9953 25.2027L34.5748 25.4732L34.1542 25.7436L35.6571 28.0807L36.0777 27.8103ZM34.5748 25.4732L34.094 25.6106C34.5054 27.0501 34.5393 29.7519 32.8164 32.1587C31.1067 34.5469 27.5913 36.7469 20.7026 37.0487L20.7245 37.5483L20.7464 38.0478C27.8293 37.7375 31.6843 35.458 33.6295 32.7408C35.5615 30.0421 35.5347 27.0124 35.0555 25.3358L34.5748 25.4732Z" fill="#4E4D47"/>
<path d="M19.2629 3.97208C20.9559 3.52116 22.6043 4.686 23.1612 5.38116C23.1612 5.38116 22.3259 5.66298 21.769 5.94481C21.212 6.22663 20.7665 6.67755 20.7665 6.67755C19.0958 6.28299 17.258 6.56492 17.258 6.56492C17.8817 5.07689 20.2653 5.30611 21.3792 5.60672C20.5994 4.76125 19.2629 3.97208 19.2629 3.97208Z" fill="#4E4D47"/>
<path d="M41.4456 14.5074C40.7016 14.0251 34.8145 11.5162 33.812 11.5161C32.8095 11.516 32.4738 11.9039 31.1375 14.1751C30.3605 15.4956 29.8844 16.0483 29.6219 16.2796C29.512 16.3765 29.4296 16.6016 29.5052 16.7272C29.7316 17.1033 30.1169 17.4996 31.1374 17.7203C32.4186 17.9974 36.1922 17.9472 38.9382 18.2743C41.6842 18.6014 45.9032 19.5484 45.9032 19.5484C45.4017 16.8894 42.7271 15.3384 41.4456 14.5074Z" fill="white"/>
<path d="M32.0602 20.2529C34.497 20.8038 39.7414 19.8856 42.8065 18.9858C42.8065 18.9858 38.9289 18.1044 35.1621 17.9942C31.3954 17.884 30.0105 17.6086 29.4571 16.4517C29.1063 16.5986 28.9027 16.6169 28.7918 17.3882C28.6304 18.5112 29.5702 19.69 32.0602 20.2529Z" fill="white" stroke="#4E4D47" stroke-linecap="round"/>
<path d="M33.9833 13.3712C33.8593 13.3243 33.7217 13.3286 33.6008 13.3831C33.4799 13.4377 33.3857 13.538 33.3388 13.662C33.2919 13.7861 33.2962 13.9237 33.3507 14.0445C33.4053 14.1654 33.5056 14.2597 33.6296 14.3066C33.6367 14.3093 33.6581 14.3179 33.6739 14.3246C33.8213 14.3869 33.9717 14.4655 34.0808 14.5434C34.0853 14.5467 34.09 14.5501 34.0948 14.5536C34.2064 14.6366 34.3933 14.7009 34.6428 14.7269C34.6703 14.7296 34.6999 14.7334 34.7273 14.7335C34.7707 14.7383 34.813 14.7423 34.8514 14.7394C34.8898 14.7363 34.9223 14.7255 34.9475 14.7044C34.9727 14.6833 34.989 14.6532 34.9988 14.6159C35.0084 14.5787 35.0118 14.5363 35.0147 14.4926C35.0136 14.4591 35.0137 14.4292 35.0118 14.3988C34.9948 14.128 34.8982 13.9068 34.6899 13.75C34.6808 13.7432 34.6715 13.7365 34.6622 13.7298C34.459 13.5866 34.2666 13.4907 34.0621 13.403C34.037 13.3925 34.0172 13.3842 33.9833 13.3712Z" fill="#4E4D47"/>
<path d="M41.4456 14.5074C40.7016 14.0251 34.8145 11.5162 33.812 11.5161C32.8095 11.516 32.4738 11.9039 31.1375 14.1751C30.3605 15.4956 29.8844 16.0483 29.6219 16.2796C29.512 16.3765 29.4296 16.6016 29.5052 16.7272C29.7316 17.1033 30.1169 17.4996 31.1374 17.7203C32.4186 17.9974 36.1922 17.9472 38.9382 18.2743C41.6842 18.6014 45.9032 19.5484 45.9032 19.5484C45.4017 16.8894 42.7271 15.3384 41.4456 14.5074Z" stroke="#4E4D47" stroke-linecap="round"/>
<path d="M21.9032 24.359C21.9032 24.359 20.8767 22.2993 19.4491 21.4085C16.2797 19.431 11.1356 14.9725 7.3474 11.2759C4.1254 8.13186 2.11943 5.3726 1.71483 6.93352C1.15739 9.08404 2.85703 11.9992 4.44747 14.0041C5.24507 15.0095 6.1763 16.0639 6.1763 16.0639C4.55865 15.7859 0.292438 11.1647 1.10091 14.0041C2.60689 19.2931 6.28759 20.2952 6.90079 20.8519C6.90079 20.8519 2.10533 20.1282 3.3874 21.687C5.80834 24.6306 9.18728 25.3058 9.18728 25.3058C8.68456 25.5289 4.05662 25.8103 8.12768 27.3657C9.91226 28.0476 12.6449 28.0338 12.6449 28.0338C12.1422 28.4796 8.83116 29.1874 10.6938 29.6479C16.5491 31.0957 16.3261 30.0379 17.6087 29.6479" stroke="#4E4D47" stroke-linecap="round"/>
<path d="M12.742 35.3808C12.742 35.3808 11.9595 35.8808 10.9258 36.5297C8.75792 37.9323 5.48582 40.1652 6.01298 40.5409C7.0857 41.3054 8.23777 41.3731 8.90507 41.0402C9.25328 40.8665 11.4184 39.078 12.882 37.8553C13.629 37.204 14.243 36.7124 14.243 36.7124C14.243 36.7124 13.6621 37.2035 12.882 37.8553C11.4184 39.078 9.25328 40.8665 8.90507 41.0402C8.23777 41.3731 7.0857 41.3054 6.01298 40.5409C5.48582 40.1652 8.75792 37.9323 10.9258 36.5297C11.9594 35.8609 12.742 35.3808 12.742 35.3808Z" fill="white"/>
<path d="M16.496 30.7323C16.6865 30.5325 16.6791 30.216 16.4792 30.0254C16.2794 29.8348 15.9629 29.8423 15.7723 30.0421L16.1341 30.3872L16.496 30.7323ZM4.34517 37.9886L4.67012 38.3686H4.67012L4.34517 37.9886ZM6.01298 39.4312L5.88441 38.948H5.88441L6.01298 39.4312ZM12.742 35.3808L13.0112 35.8022C13.2424 35.6544 13.3114 35.348 13.1658 35.1155C13.0202 34.8829 12.7145 34.8111 12.4806 34.9546L12.742 35.3808ZM6.01298 40.5409L6.30317 40.1337H6.30317L6.01298 40.5409ZM8.90507 41.0402L8.68186 40.5928H8.68186L8.90507 41.0402ZM14.243 36.7124L14.5658 37.0943C14.7747 36.9177 14.8029 36.606 14.6291 36.3948C14.4553 36.1835 14.144 36.1512 13.9305 36.3221L14.243 36.7124ZM10.3509 40.9847L10.1277 41.4321H10.1277L10.3509 40.9847ZM12.742 40.9847L12.9811 41.4239H12.9811L12.742 40.9847ZM17.4329 36.0082C17.5342 35.7513 17.4081 35.4609 17.1513 35.3596C16.8944 35.2582 16.604 35.3843 16.5027 35.6412L16.9678 35.8247L17.4329 36.0082ZM16.1341 30.3872L15.7723 30.0421C14.1918 31.6993 11.8928 33.0683 9.64641 34.2896C8.53907 34.8917 7.42632 35.4677 6.46664 36.0059C5.50511 36.5452 4.64424 37.075 4.02022 37.6086L4.34517 37.9886L4.67012 38.3686C5.21398 37.9035 6.00057 37.4138 6.9558 36.8781C7.9129 36.3413 8.98623 35.7868 10.1241 35.1682C12.368 33.9482 14.7956 32.5152 16.496 30.7323L16.1341 30.3872ZM4.34517 37.9886L4.02022 37.6086C3.68669 37.8938 3.52069 38.2792 3.62955 38.6933C3.72308 39.0491 3.99407 39.3138 4.24814 39.4896C4.51491 39.6741 4.8377 39.8134 5.15555 39.8918C5.46664 39.9686 5.82247 39.9993 6.14154 39.9144L6.01298 39.4312L5.88441 38.948C5.78641 38.9741 5.61402 38.975 5.39519 38.921C5.1831 38.8686 4.97425 38.7759 4.81712 38.6672C4.6473 38.5497 4.60213 38.4597 4.59669 38.439C4.59617 38.437 4.59699 38.4394 4.59676 38.4446C4.59666 38.447 4.59636 38.4493 4.59598 38.4512C4.59559 38.453 4.59525 38.4539 4.59536 38.4536C4.5955 38.4532 4.59832 38.4457 4.60899 38.4314C4.61987 38.4168 4.63874 38.3954 4.67012 38.3686L4.34517 37.9886ZM6.01298 39.4312L6.14154 39.9144C6.24921 39.8857 6.37833 39.8261 6.49284 39.7695C6.61971 39.7068 6.77294 39.6249 6.94452 39.5296C7.28831 39.3387 7.72175 39.0848 8.19568 38.8004C9.14439 38.2313 10.2691 37.5322 11.1916 36.9531L10.9258 36.5297L10.6599 36.1062C9.73915 36.6842 8.62121 37.379 7.68124 37.9429C7.21083 38.2251 6.7884 38.4725 6.45898 38.6554C6.29396 38.7471 6.15624 38.8204 6.04959 38.8731C5.93059 38.9319 5.88363 38.9482 5.88441 38.948L6.01298 39.4312ZM10.9258 36.5297L11.1916 36.9531C11.7093 36.6282 12.164 36.3405 12.4894 36.1341C12.6521 36.0309 12.7825 35.9479 12.8722 35.8908C12.9171 35.8622 12.9518 35.8401 12.9753 35.8251C12.9871 35.8176 12.996 35.8119 13.002 35.808C13.0051 35.8061 13.0073 35.8046 13.0089 35.8037C13.0097 35.8032 13.0102 35.8028 13.0106 35.8025C13.0108 35.8024 13.011 35.8023 13.0111 35.8023C13.0111 35.8022 13.0112 35.8022 13.0112 35.8022C13.0112 35.8022 13.0112 35.8022 13.0112 35.8022C13.0112 35.8022 13.0112 35.8022 12.742 35.3808C12.4728 34.9595 12.4728 34.9595 12.4728 34.9595C12.4728 34.9595 12.4728 34.9595 12.4728 34.9595C12.4728 34.9595 12.4728 34.9595 12.4727 34.9595C12.4726 34.9596 12.4725 34.9597 12.4723 34.9598C12.4719 34.96 12.4714 34.9604 12.4706 34.9609C12.4691 34.9618 12.4669 34.9632 12.4639 34.9651C12.458 34.9689 12.4491 34.9746 12.4375 34.982C12.4142 34.9969 12.3797 35.0189 12.335 35.0473C12.2457 35.1042 12.1158 35.1868 11.9537 35.2897C11.6293 35.4955 11.176 35.7823 10.6599 36.1062L10.9258 36.5297ZM12.742 35.3808C12.4806 34.9546 12.4806 34.9546 12.4806 34.9546C12.4806 34.9546 12.4806 34.9546 12.4805 34.9546C12.4805 34.9547 12.4805 34.9547 12.4804 34.9547C12.4803 34.9548 12.4801 34.9549 12.4799 34.955C12.4795 34.9553 12.4789 34.9556 12.4781 34.9561C12.4765 34.9571 12.4742 34.9585 12.4711 34.9604C12.465 34.9642 12.4559 34.9698 12.4441 34.9771C12.4203 34.9917 12.3854 35.0133 12.3403 35.0412C12.2501 35.0971 12.1192 35.1785 11.956 35.2808C11.6296 35.4854 11.1734 35.7739 10.6542 36.1099L10.9258 36.5297L11.1974 36.9495C11.7118 36.6166 12.1638 36.3307 12.4871 36.1281C12.6487 36.0268 12.7781 35.9464 12.8669 35.8913C12.9113 35.8638 12.9456 35.8426 12.9687 35.8284C12.9803 35.8213 12.989 35.8159 12.9949 35.8123C12.9978 35.8105 13 35.8092 13.0014 35.8083C13.0021 35.8078 13.0027 35.8075 13.003 35.8073C13.0032 35.8072 13.0033 35.8071 13.0034 35.8071C13.0034 35.807 13.0034 35.807 13.0035 35.807C13.0035 35.807 13.0035 35.807 13.0035 35.807C13.0035 35.807 13.0035 35.807 12.742 35.3808ZM10.9258 36.5297L10.6542 36.1099C9.56818 36.8125 8.19472 37.73 7.15548 38.5228C6.64008 38.916 6.18505 39.2949 5.88869 39.6108C5.74671 39.7621 5.60402 39.9372 5.52508 40.1192C5.4849 40.2119 5.44197 40.3495 5.46099 40.5087C5.48274 40.6906 5.57914 40.8457 5.72279 40.948L6.01298 40.5409L6.30317 40.1337C6.38092 40.1891 6.4411 40.2827 6.45392 40.39C6.45921 40.4342 6.45483 40.4683 6.45086 40.4879C6.44882 40.4979 6.44665 40.5053 6.44516 40.5099C6.44366 40.5145 6.4426 40.5169 6.44253 40.5171C6.44245 40.5173 6.44311 40.5157 6.44485 40.5124C6.44659 40.5091 6.44919 40.5045 6.45287 40.4984C6.46037 40.486 6.47123 40.4697 6.48641 40.4492C6.51716 40.4078 6.56036 40.3564 6.61801 40.2949C6.85466 40.0427 7.25429 39.7052 7.76201 39.3179C8.76899 38.5497 10.1155 37.6495 11.1974 36.9495L10.9258 36.5297ZM6.01298 40.5409L5.72278 40.948C6.90541 41.7909 8.25523 41.9232 9.12828 41.4876L8.90507 41.0402L8.68186 40.5928C8.22031 40.8231 7.266 40.8199 6.30317 40.1337L6.01298 40.5409ZM8.90507 41.0402L9.12828 41.4876C9.21132 41.4462 9.31264 41.3774 9.40591 41.3109C9.50833 41.238 9.63256 41.145 9.77223 41.0377C10.052 40.8227 10.4048 40.5415 10.7899 40.2297C11.5607 39.6056 12.4702 38.8509 13.2025 38.239L12.882 37.8553L12.5614 37.4716C11.8302 38.0825 10.9253 38.8333 10.1606 39.4526C9.77794 39.7624 9.43272 40.0374 9.16287 40.2448C9.02771 40.3487 8.91424 40.4334 8.82589 40.4963C8.78169 40.5278 8.74613 40.5521 8.71881 40.5699C8.68886 40.5893 8.67846 40.5945 8.68186 40.5928L8.90507 41.0402ZM12.882 37.8553L13.2025 38.239C13.5932 37.9126 13.9339 37.6265 14.1769 37.422C14.2985 37.3197 14.3956 37.2379 14.4624 37.1815C14.4958 37.1533 14.5216 37.1316 14.5391 37.1168C14.5478 37.1094 14.5545 37.1038 14.559 37.1C14.5612 37.0981 14.5629 37.0967 14.564 37.0957C14.5646 37.0953 14.565 37.0949 14.5653 37.0946C14.5655 37.0945 14.5656 37.0944 14.5657 37.0944C14.5657 37.0943 14.5657 37.0943 14.5657 37.0943C14.5658 37.0943 14.5658 37.0943 14.5658 37.0943C14.5658 37.0943 14.5658 37.0943 14.243 36.7124C13.9202 36.3306 13.9202 36.3306 13.9202 36.3306C13.9201 36.3306 13.9201 36.3306 13.9201 36.3306C13.9201 36.3306 13.9201 36.3307 13.9201 36.3307C13.92 36.3307 13.9199 36.3308 13.9198 36.3309C13.9195 36.3312 13.9191 36.3315 13.9185 36.332C13.9174 36.3329 13.9157 36.3343 13.9135 36.3362C13.9091 36.3399 13.9025 36.3455 13.8939 36.3528C13.8765 36.3675 13.8509 36.3891 13.8176 36.4172C13.7511 36.4733 13.6543 36.5549 13.5331 36.6568C13.2907 36.8608 12.9509 37.1461 12.5614 37.4716L12.882 37.8553ZM14.243 36.7124C13.9305 36.3221 13.9305 36.3221 13.9304 36.3221C13.9304 36.3221 13.9304 36.3222 13.9304 36.3222C13.9304 36.3222 13.9303 36.3222 13.9303 36.3223C13.9302 36.3224 13.93 36.3225 13.9299 36.3226C13.9295 36.3229 13.929 36.3233 13.9284 36.3238C13.9271 36.3248 13.9252 36.3264 13.9227 36.3283C13.9178 36.3323 13.9106 36.338 13.9013 36.3456C13.8826 36.3607 13.8552 36.3828 13.82 36.4114C13.7498 36.4685 13.6485 36.5512 13.5238 36.6544C13.2745 36.8607 12.9309 37.1493 12.5534 37.4784L12.882 37.8553L13.2105 38.2322C13.58 37.91 13.9169 37.6271 14.1614 37.4248C14.2835 37.3237 14.3825 37.2429 14.4507 37.1875C14.4848 37.1597 14.5112 37.1384 14.529 37.1241C14.5379 37.1169 14.5446 37.1115 14.549 37.1079C14.5513 37.1061 14.5529 37.1048 14.554 37.1039C14.5545 37.1035 14.5549 37.1032 14.5552 37.103C14.5553 37.1029 14.5554 37.1028 14.5554 37.1028C14.5555 37.1028 14.5555 37.1027 14.5555 37.1027C14.5555 37.1027 14.5555 37.1027 14.5555 37.1027C14.5555 37.1027 14.5555 37.1027 14.243 36.7124ZM12.882 37.8553L12.5534 37.4784C11.8819 38.0638 11.0866 38.7919 10.5278 39.4174C10.2542 39.7236 10.0065 40.0388 9.8687 40.319C9.80234 40.4539 9.73136 40.6394 9.74149 40.8414C9.75398 41.0905 9.88891 41.313 10.1277 41.4321L10.3509 40.9847L10.5741 40.5373C10.6701 40.5852 10.7353 40.693 10.7402 40.7913C10.7428 40.8423 10.7264 40.8409 10.7661 40.7602C10.8404 40.6092 11.0102 40.3784 11.2736 40.0837C11.7886 39.5072 12.5443 38.813 13.2105 38.2322L12.882 37.8553ZM10.3509 40.9847L10.1277 41.4321C10.7454 41.7403 11.2798 41.8519 11.7703 41.8163C12.2568 41.781 12.6504 41.6039 12.9811 41.4239L12.742 40.9847L12.503 40.5456C12.222 40.6985 11.9761 40.7988 11.6979 40.819C11.4239 40.8388 11.0685 40.784 10.5741 40.5373L10.3509 40.9847ZM12.742 40.9847L12.9811 41.4239C13.0951 41.3619 13.2324 41.2513 13.3612 41.1401C13.5017 41.0188 13.6701 40.8629 13.856 40.6818C14.2283 40.3192 14.6823 39.8449 15.1428 39.3219C16.0477 38.2941 17.0364 37.0131 17.4329 36.0082L16.9678 35.8247L16.5027 35.6412C16.1767 36.4672 15.2973 37.6331 14.3922 38.661C13.9477 39.1659 13.5113 39.6216 13.1583 39.9654C12.9816 40.1375 12.8285 40.2789 12.7077 40.3832C12.6472 40.4354 12.5975 40.476 12.5588 40.5056C12.5165 40.5379 12.4999 40.5473 12.503 40.5456L12.742 40.9847Z" fill="#4E4D47"/>
<path d="M18.9638 34.4892L17.7419 37.4673C18.2973 37.6921 19.7969 37.8607 20.4634 37.6359C21.2123 37.3834 23.9069 35.3883 24.129 33.8711" stroke="#4E4D47" stroke-linecap="round"/>
</svg>
