<svg width="50" height="48" viewBox="0 0 50 48" fill="none" xmlns="http://www.w3.org/2000/svg">
<path d="M16.7005 15.0485C16.045 13.9517 12.6097 6.68593 11.8924 8.79048C10.9649 11.5114 12.9412 14.3286 13.1613 15.0485C12.6654 14.6056 10.1992 11.4259 10.2929 13.7751" stroke="#4E4D47" stroke-linecap="round"/>
<path d="M27.0397 25.9545C27.0231 25.9101 26.9922 25.8714 26.9504 25.8476C26.9087 25.8238 26.86 25.8169 26.8143 25.8284C26.7687 25.84 26.7292 25.8693 26.7038 25.91C26.6784 25.9508 26.6696 25.9996 26.6761 26.0465C26.6995 26.2232 26.7129 26.4112 26.7157 26.5894C26.7368 28.2322 26.1037 29.805 24.9517 30.8379C23.8038 31.8862 22.2054 32.4249 20.5511 32.722C20.371 32.7548 20.1851 32.7853 19.9933 32.8131C19.9464 32.82 19.902 32.8421 19.87 32.878C19.838 32.9138 19.821 32.9599 19.8227 33.007C19.8245 33.054 19.8448 33.0988 19.8793 33.1322C19.9139 33.1656 19.9597 33.1844 20.007 33.1879C20.2053 33.2015 20.3995 33.2102 20.5894 33.2142C22.3207 33.2487 24.2204 32.8522 25.6252 31.5771C27.0431 30.3159 27.5941 28.277 27.2058 26.5295C27.1636 26.3379 27.1079 26.1384 27.0397 25.9545Z" fill="#4E4D47"/>
<path d="M23.1613 9.1589C23.2171 9.05208 23.301 8.9736 23.3907 8.90888C24.2558 8.39939 25.297 8.45988 26.1623 8.68598C26.4348 8.76274 26.6964 8.86605 26.9509 8.99933C27.5627 9.34717 28.2247 9.60157 28.6273 10.1767C28.6935 10.2727 28.7679 10.3867 28.871 10.4515C28.812 10.3444 28.8031 10.2339 28.7839 10.1142C28.647 9.30124 27.9687 8.74994 27.3872 8.30673C27.0911 8.09298 26.7565 7.93148 26.4026 7.83209C25.2727 7.52073 23.9146 7.80919 23.2626 8.79939C23.2011 8.91192 23.1589 9.03792 23.1613 9.1589Z" fill="#4E4D47"/>
<path d="M28.9476 13.1794C28.9499 14.9361 27.5629 16.4637 25.9455 16.466C24.3282 16.4683 22.9367 14.9448 22.934 13.1881C22.9315 11.4641 24.2879 10.0865 25.9363 10.0842C27.5848 10.0818 28.9451 11.4555 28.9476 13.1794Z" stroke="#4E4D47"/>
<ellipse cx="25.7258" cy="13.5001" rx="1.8871" ry="2.08065" fill="#4E4D47"/>
<path d="M15.9033 34.8114C16.1625 35.1627 16.7511 35.7361 16.9588 35.8151C17.2366 35.9207 17.681 35.9207 17.9588 35.8705C17.9771 35.8672 17.9959 35.8687 18.0144 35.8652C18.395 35.7926 18.762 35.0505 18.9033 34.645" stroke="#4E4D47" stroke-linecap="round"/>
<path d="M27.8165 39.8227L26.642 36.8711L24.6845 37.4837L25.915 39.6556C25.2065 39.4329 23.0738 39.5888 22 40.6581L24.6845 42C25.2214 41.2426 29.1401 42.0875 30.6129 42.7743C30.5383 42.1803 30.255 40.8586 29.7181 40.3239C29.1811 39.7893 28.2266 39.767 27.8165 39.8227Z" stroke="#4E4D47"/>
<path d="M31.1106 39.7158C30.5354 39.2706 28.9907 39.5674 28.2903 39.7714C28.6405 39.7714 29.4295 39.8716 29.7834 40.2724C30.1373 40.6731 30.3732 41.2555 30.447 41.4967C30.7124 41.4076 31.9585 42.0532 32.5483 42.3871C32.3087 41.6822 31.6857 40.161 31.1106 39.7158Z" stroke="#4E4D47" stroke-linejoin="round"/>
<path d="M21.7722 40.5173L20.3183 37.7001C20.3183 37.7001 19.6702 37.7441 19.2834 37.7494C18.8966 37.7546 18.1519 37.645 18.1519 37.645L20.1013 40.6299C19.0802 40.3296 17.0046 40.2582 16.8709 42.3758C16.8709 42.3758 19.3216 41.9253 20.5469 42.3758C21.7722 42.8264 23.3874 44.516 23.3874 44.516C23.7773 43.7838 24.2824 42.6308 22.5001 42C23.693 42 24.3695 42.895 24.8912 43.8402C25.1146 43.3239 25.1369 42.8493 25.0484 42.4322C24.828 41.3929 23.9351 40.6457 23.7216 40.6299C23.4988 40.6135 22.3292 40.5173 21.7722 40.5173Z" stroke="#4E4D47" stroke-linejoin="round"/>
<path d="M34.8057 11.4768C34.7587 11.749 34.9413 12.0076 35.2134 12.0546C35.4855 12.1015 35.7442 11.9189 35.7911 11.6468L35.2984 11.5618L34.8057 11.4768ZM34.7417 8.55699L34.3151 8.81778L34.7417 8.55699ZM29.1753 5.32944L29.2554 4.83589L29.1753 5.32944ZM24.1099 5.3295L24.0479 4.83336L24.1099 5.3295ZM20.6587 6.77635L20.3682 6.36943L20.6587 6.77635ZM17.3746 11.9513L16.8853 11.8483L17.3746 11.9513ZM15.986 19.1395C15.9608 19.4144 16.1632 19.6579 16.4382 19.6832C16.7131 19.7084 16.9566 19.506 16.9818 19.2311L16.4839 19.1853L15.986 19.1395ZM35.1969 21.2597C35.0826 21.0084 34.7861 20.8973 34.5347 21.0116C34.2834 21.1259 34.1723 21.4223 34.2866 21.6737L34.7417 21.4667L35.1969 21.2597ZM36.0777 27.8103L35.6571 28.0807L36.4261 29.2765L36.5749 27.8627L36.0777 27.8103ZM34.5748 25.4732L34.9953 25.2027C34.8612 24.9942 34.5945 24.9154 34.3686 25.0177C34.1427 25.1199 34.0259 25.3722 34.094 25.6106L34.5748 25.4732ZM20.7026 37.0487C20.4267 37.0608 20.2129 37.2943 20.2249 37.5701C20.237 37.846 20.4705 38.0599 20.7464 38.0478L20.7245 37.5483L20.7026 37.0487ZM35.2984 11.5618L35.7911 11.6468C35.8482 11.316 35.8592 10.7626 35.7801 10.1675C35.7009 9.57083 35.5243 8.87847 35.1683 8.2962L34.7417 8.55699L34.3151 8.81778C34.5715 9.2371 34.7196 9.77821 34.7888 10.2991C34.8582 10.8215 34.8414 11.2698 34.8057 11.4768L35.2984 11.5618ZM34.7417 8.55699L35.1683 8.2962C34.7414 7.59778 33.7752 6.82307 32.7151 6.19585C31.6396 5.55953 30.368 5.0163 29.2554 4.83589L29.1753 5.32944L29.0953 5.823C30.0422 5.97653 31.1933 6.45738 32.2059 7.05649C33.2338 7.6647 34.0211 8.33679 34.3151 8.81778L34.7417 8.55699ZM29.1753 5.32944L29.2554 4.83589C27.2065 4.50367 25.7299 4.62318 24.0479 4.83336L24.1099 5.3295L24.1719 5.82564C25.8132 5.62055 27.182 5.51276 29.0953 5.823L29.1753 5.32944ZM24.1099 5.3295L24.0479 4.83336C23.6391 4.88444 23.19 4.90445 22.619 5.09994C22.0466 5.2959 21.3617 5.66001 20.3682 6.36943L20.6587 6.77635L20.9493 7.18326C21.904 6.50155 22.4994 6.19788 22.9429 6.04602C23.3878 5.8937 23.6901 5.88585 24.1719 5.82564L24.1099 5.3295ZM20.6587 6.77635L20.3682 6.36943C19.811 6.76726 19.0625 7.58546 18.4032 8.55142C17.7409 9.52189 17.1266 10.7025 16.8853 11.8483L17.3746 11.9513L17.8638 12.0544C18.0678 11.0857 18.6057 10.0286 19.2292 9.11513C19.8557 8.19714 20.5265 7.48511 20.9493 7.18326L20.6587 6.77635ZM17.3746 11.9513L16.8853 11.8483C16.4366 13.979 16.133 17.5415 15.986 19.1395L16.4839 19.1853L16.9818 19.2311C17.1317 17.6015 17.4302 14.1133 17.8638 12.0544L17.3746 11.9513ZM34.7417 21.4667L34.2866 21.6737C34.5766 22.3116 35.8977 24.7448 35.5804 27.7579L36.0777 27.8103L36.5749 27.8627C36.9256 24.5322 35.4635 21.8461 35.1969 21.2597L34.7417 21.4667ZM36.0777 27.8103L36.4982 27.5399L34.9953 25.2027L34.5748 25.4732L34.1542 25.7436L35.6571 28.0807L36.0777 27.8103ZM34.5748 25.4732L34.094 25.6106C34.5054 27.0501 34.5393 29.7519 32.8164 32.1587C31.1067 34.5469 27.5913 36.7469 20.7026 37.0487L20.7245 37.5483L20.7464 38.0478C27.8293 37.7375 31.6843 35.458 33.6295 32.7408C35.5615 30.0421 35.5347 27.0124 35.0555 25.3358L34.5748 25.4732Z" fill="#4E4D47"/>
<path d="M19.2629 3.97208C20.9559 3.52116 22.6043 4.686 23.1612 5.38116C23.1612 5.38116 22.3259 5.66298 21.769 5.94481C21.212 6.22663 20.7665 6.67755 20.7665 6.67755C19.0958 6.28299 17.258 6.56492 17.258 6.56492C17.8817 5.07689 20.2653 5.30611 21.3792 5.60672C20.5994 4.76125 19.2629 3.97208 19.2629 3.97208Z" fill="#4E4D47"/>
<path d="M32.0602 20.2529C34.497 20.8038 39.7414 19.8856 42.8065 18.9858C42.8065 18.9858 38.9289 18.1044 35.1621 17.9942C31.3954 17.884 30.0105 17.6086 29.4571 16.4517C29.1063 16.5986 28.9027 16.6169 28.7918 17.3882C28.6304 18.5112 29.5702 19.69 32.0602 20.2529Z" stroke="#4E4D47" stroke-linecap="round"/>
<path d="M33.9833 13.3712C33.8593 13.3243 33.7217 13.3286 33.6008 13.3831C33.4799 13.4377 33.3857 13.538 33.3388 13.662C33.2919 13.7861 33.2962 13.9237 33.3507 14.0445C33.4053 14.1654 33.5056 14.2597 33.6296 14.3066C33.6367 14.3093 33.6581 14.3179 33.6739 14.3246C33.8213 14.3869 33.9717 14.4655 34.0808 14.5434C34.0853 14.5467 34.09 14.5501 34.0948 14.5536C34.2064 14.6366 34.3933 14.7009 34.6428 14.7269C34.6703 14.7296 34.6999 14.7334 34.7273 14.7335C34.7707 14.7383 34.813 14.7423 34.8514 14.7394C34.8898 14.7363 34.9223 14.7255 34.9475 14.7044C34.9727 14.6833 34.989 14.6532 34.9988 14.6159C35.0084 14.5787 35.0118 14.5363 35.0147 14.4926C35.0136 14.4591 35.0137 14.4292 35.0118 14.3988C34.9948 14.128 34.8982 13.9068 34.6899 13.75C34.6808 13.7432 34.6715 13.7365 34.6622 13.7298C34.459 13.5866 34.2666 13.4907 34.0621 13.403C34.037 13.3925 34.0172 13.3842 33.9833 13.3712Z" fill="#4E4D47"/>
<path d="M41.4456 14.5074C40.7016 14.0251 34.8145 11.5162 33.812 11.5161C32.8095 11.516 32.4738 11.9039 31.1375 14.1751C30.3605 15.4956 29.8844 16.0483 29.6219 16.2796C29.512 16.3765 29.4296 16.6016 29.5052 16.7272C29.7316 17.1033 30.1169 17.4996 31.1374 17.7203C32.4186 17.9974 36.1922 17.9472 38.9382 18.2743C41.6842 18.6014 45.9032 19.5484 45.9032 19.5484C45.4017 16.8894 42.7271 15.3384 41.4456 14.5074Z" stroke="#4E4D47" stroke-linecap="round"/>
<path d="M25.1967 0C38.4515 0 49.1967 10.7452 49.1967 24C49.1967 37.2548 38.4515 48 25.1967 48C18.8924 47.9999 13.1572 45.5673 8.87445 41.5918C8.96254 41.5614 9.04787 41.5284 9.12836 41.4883C9.21135 41.4469 9.31349 41.3779 9.40668 41.3115C9.50902 41.2386 9.6334 41.1453 9.77289 41.0381C9.77465 41.0367 9.77601 41.0346 9.77777 41.0332C9.83382 41.2015 9.95327 41.3452 10.1284 41.4326C10.7457 41.7405 11.2807 41.852 11.7709 41.8164C11.9204 41.8055 12.0609 41.7797 12.1938 41.7461C15.8365 44.4197 20.3318 45.9999 25.1967 46C37.347 46 47.1967 36.1503 47.1967 24C47.1967 11.8497 37.347 2 25.1967 2C17.9945 2.00014 11.6005 5.46103 7.58734 10.8105C7.08405 10.3165 6.61183 9.83201 6.16937 9.37305C10.5573 3.67348 17.4477 0.000135002 25.1967 0ZM2.10297 17.4463C2.60787 18.212 3.15728 18.8209 3.69867 19.3105C3.62619 19.6444 3.56147 19.981 3.50433 20.3203C3.38002 20.3561 3.25957 20.4028 3.15082 20.4639C2.93181 20.587 2.69474 20.8127 2.67133 21.1719C2.65082 21.4913 2.81332 21.7761 3.0014 22.0049C3.0866 22.1085 3.17294 22.2094 3.26019 22.3076C3.21771 22.8661 3.19672 23.4306 3.19672 24C3.19672 28.3792 4.4764 32.4596 6.68207 35.8877C6.60978 35.9277 6.53791 35.9672 6.46722 36.0068C5.92569 36.3105 5.41664 36.612 4.96332 36.9121C2.5792 33.184 1.19672 28.7535 1.19672 24C1.19672 21.7278 1.51296 19.5295 2.10297 17.4463ZM3.88715 14.0967C3.74948 13.994 3.60945 13.8932 3.47113 13.791C3.4952 13.7399 3.51898 13.6886 3.5434 13.6377C3.65778 13.7945 3.77259 13.9483 3.88715 14.0967Z" fill="#4E4D47"/>
<path d="M18.9638 34.4892L17.7419 37.4673C18.2973 37.6921 19.7969 37.8607 20.4634 37.6359C21.2123 37.3834 23.9069 35.3883 24.129 33.8711" stroke="#4E4D47" stroke-linecap="round"/>
<path d="M21.9032 24.359C21.9032 24.359 20.8767 22.2993 19.4491 21.4085C16.2797 19.431 11.1356 14.9725 7.3474 11.2759C4.1254 8.13186 2.11943 5.3726 1.71483 6.93352C1.15739 9.08404 2.85703 11.9992 4.44747 14.0041C5.24507 15.0095 6.1763 16.0639 6.1763 16.0639C4.55865 15.7859 0.292438 11.1647 1.10091 14.0041C2.60689 19.2931 6.28759 20.2952 6.90079 20.8519C6.90079 20.8519 2.10533 20.1282 3.3874 21.687C5.80834 24.6306 9.18728 25.3058 9.18728 25.3058C8.68456 25.5289 4.05662 25.8103 8.12768 27.3657C9.91226 28.0476 12.6449 28.0338 12.6449 28.0338C12.1422 28.4796 8.83116 29.1874 10.6938 29.6479C16.5491 31.0957 16.3261 30.0379 17.6087 29.6479" stroke="#4E4D47" stroke-linecap="round"/>
<path d="M16.496 30.7323C16.6865 30.5325 16.6791 30.216 16.4792 30.0254C16.2794 29.8348 15.9629 29.8423 15.7723 30.0421L16.1341 30.3872L16.496 30.7323ZM4.34517 37.9886L4.67012 38.3686L4.34517 37.9886ZM6.01298 39.4312L6.14154 39.9144L6.01298 39.4312ZM12.742 35.3808L13.0112 35.8022C13.2424 35.6544 13.3114 35.348 13.1658 35.1155C13.0202 34.8829 12.7145 34.8111 12.4806 34.9546L12.742 35.3808ZM6.01298 40.5409L6.30317 40.1337L6.01298 40.5409ZM14.243 36.7124L14.5658 37.0943C14.7747 36.9177 14.8029 36.606 14.6291 36.3948C14.4553 36.1835 14.144 36.1512 13.9305 36.3221L14.243 36.7124ZM12.742 40.9847L12.9811 41.4239L12.742 40.9847ZM17.4329 36.0082C17.5342 35.7513 17.4081 35.4609 17.1513 35.3596C16.8944 35.2582 16.604 35.3843 16.5027 35.6412L16.9678 35.8247L17.4329 36.0082ZM16.1341 30.3872L15.7723 30.0421C14.1918 31.6993 11.8928 33.0683 9.64641 34.2896C8.53907 34.8917 7.42632 35.4677 6.46664 36.0059C5.50511 36.5452 4.64424 37.075 4.02022 37.6086L4.34517 37.9886L4.67012 38.3686C5.21398 37.9035 6.00057 37.4138 6.9558 36.8781C7.9129 36.3413 8.98623 35.7868 10.1241 35.1682C12.368 33.9482 14.7956 32.5152 16.496 30.7323L16.1341 30.3872ZM4.34517 37.9886L4.02022 37.6086C3.68669 37.8938 3.52069 38.2792 3.62955 38.6933C3.72308 39.0491 3.99407 39.3138 4.24814 39.4896C4.51491 39.6741 4.8377 39.8134 5.15555 39.8918C5.46664 39.9686 5.82247 39.9993 6.14154 39.9144L6.01298 39.4312L5.88441 38.948C5.78641 38.9741 5.61402 38.975 5.39519 38.921C5.1831 38.8686 4.97425 38.7759 4.81712 38.6672C4.6473 38.5497 4.60213 38.4597 4.59669 38.439C4.59617 38.437 4.59699 38.4394 4.59676 38.4446C4.59666 38.447 4.59636 38.4493 4.59598 38.4512C4.59559 38.453 4.59525 38.4539 4.59536 38.4536C4.5955 38.4532 4.59832 38.4457 4.60899 38.4314C4.61987 38.4168 4.63874 38.3954 4.67012 38.3686L4.34517 37.9886ZM6.01298 39.4312L6.14154 39.9144C6.29227 39.8743 6.51414 39.7623 6.72964 39.647C6.96755 39.5197 7.26542 39.3501 7.59872 39.1548C8.26614 38.7636 9.0905 38.2604 9.89104 37.7645C10.6922 37.2682 11.4722 36.7777 12.0516 36.4113C12.3414 36.2281 12.5812 36.0759 12.7486 35.9695C12.8323 35.9162 12.8979 35.8745 12.9426 35.846C12.9649 35.8317 12.9821 35.8208 12.9936 35.8134C12.9994 35.8097 13.0038 35.8069 13.0067 35.805C13.0082 35.8041 13.0093 35.8034 13.0101 35.8029C13.0105 35.8027 13.0107 35.8025 13.0109 35.8023C13.011 35.8023 13.0111 35.8022 13.0112 35.8022C13.0112 35.8022 13.0112 35.8022 12.742 35.3808C12.4728 34.9595 12.4728 34.9595 12.4728 34.9595C12.4727 34.9595 12.4727 34.9596 12.4726 34.9596C12.4724 34.9597 12.4721 34.9599 12.4718 34.9601C12.4711 34.9606 12.47 34.9613 12.4685 34.9622C12.4657 34.964 12.4613 34.9668 12.4556 34.9704C12.4442 34.9777 12.4272 34.9886 12.405 35.0027C12.3606 35.0311 12.2953 35.0726 12.2119 35.1257C12.0452 35.2317 11.8062 35.3834 11.5173 35.5661C10.9393 35.9314 10.1621 36.4202 9.36444 36.9144C8.56614 37.4089 7.74993 37.9071 7.0931 38.292C6.76426 38.4847 6.47909 38.6469 6.25777 38.7653C6.14689 38.8247 6.05593 38.8709 5.98573 38.904C5.9073 38.9408 5.87935 38.9493 5.88441 38.948L6.01298 39.4312ZM12.742 35.3808C12.4806 34.9546 12.4805 34.9546 12.4805 34.9547C12.4804 34.9547 12.4803 34.9548 12.4802 34.9549C12.4799 34.955 12.4795 34.9552 12.4791 34.9555C12.4781 34.9561 12.4767 34.957 12.4748 34.9581C12.4711 34.9604 12.4656 34.9638 12.4584 34.9683C12.444 34.9771 12.4227 34.9902 12.3951 35.0073C12.3398 35.0415 12.2589 35.0916 12.1565 35.1554C11.9516 35.2832 11.66 35.4661 11.3126 35.6873C10.6183 36.1294 9.69897 36.7257 8.80274 37.3404C7.91026 37.9526 7.02628 38.5928 6.41044 39.121C6.10801 39.3804 5.8415 39.6368 5.67485 39.8649C5.59582 39.9731 5.50227 40.1236 5.46907 40.298C5.45108 40.3925 5.4472 40.5131 5.49116 40.6404C5.53697 40.7731 5.62219 40.8763 5.72278 40.948L6.01298 40.5409L6.30317 40.1337C6.3551 40.1707 6.40785 40.2313 6.4364 40.3141C6.46311 40.3914 6.4572 40.4547 6.45143 40.485C6.44268 40.531 6.4306 40.5256 6.48234 40.4548C6.57724 40.3249 6.76954 40.1304 7.06147 39.8801C7.63434 39.3887 8.48128 38.7736 9.36839 38.1651C10.2517 37.5592 11.1606 36.9695 11.8497 36.5308C12.194 36.3116 12.4828 36.1304 12.6854 36.0041C12.7868 35.9409 12.8665 35.8915 12.9208 35.858C12.9479 35.8412 12.9687 35.8284 12.9826 35.8198C12.9896 35.8155 12.9949 35.8123 12.9984 35.8101C13.0001 35.8091 13.0014 35.8083 13.0023 35.8077C13.0027 35.8075 13.003 35.8073 13.0032 35.8072C13.0033 35.8071 13.0034 35.8071 13.0034 35.807C13.0035 35.807 13.0035 35.807 12.742 35.3808ZM6.01298 40.5409L5.72278 40.948C6.90541 41.7909 8.25523 41.9232 9.12828 41.4876L8.90507 41.0402L8.68186 40.5928C8.22031 40.8231 7.266 40.8199 6.30317 40.1337L6.01298 40.5409ZM8.90507 41.0402L9.12828 41.4876C9.24344 41.4302 9.41501 41.307 9.58729 41.1781C9.77554 41.0372 10.0114 40.8532 10.2757 40.6429C10.8048 40.2217 11.4582 39.6867 12.0929 39.1617C12.728 38.6364 13.3461 38.1196 13.8054 37.7342C14.0351 37.5415 14.2251 37.3816 14.3577 37.2698C14.424 37.2139 14.476 37.1701 14.5114 37.1402C14.5291 37.1252 14.5427 37.1138 14.5518 37.106C14.5564 37.1022 14.5599 37.0992 14.5622 37.0973C14.5634 37.0963 14.5643 37.0955 14.5649 37.095C14.5652 37.0948 14.5654 37.0946 14.5655 37.0945C14.5656 37.0944 14.5657 37.0943 14.5657 37.0943C14.5658 37.0943 14.5658 37.0943 14.243 36.7124C13.9202 36.3306 13.9201 36.3306 13.9201 36.3306C13.9201 36.3307 13.92 36.3307 13.92 36.3308C13.9198 36.3309 13.9196 36.3311 13.9193 36.3313C13.9187 36.3318 13.9179 36.3325 13.9167 36.3335C13.9145 36.3354 13.911 36.3383 13.9065 36.3421C13.8974 36.3498 13.884 36.3612 13.8664 36.376C13.8311 36.4058 13.7794 36.4494 13.7133 36.5051C13.5811 36.6165 13.3916 36.776 13.1626 36.9682C12.7044 37.3527 12.0882 37.8679 11.4555 38.3912C10.8224 38.9149 10.1747 39.4452 9.65296 39.8604C9.39179 40.0683 9.16477 40.2453 8.98811 40.3775C8.89963 40.4437 8.82651 40.4966 8.76961 40.5358C8.70674 40.579 8.68141 40.593 8.68186 40.5928L8.90507 41.0402ZM14.243 36.7124C13.9305 36.3221 13.9304 36.3222 13.9304 36.3222C13.9303 36.3222 13.9302 36.3223 13.9301 36.3224C13.93 36.3225 13.9297 36.3227 13.9294 36.323C13.9287 36.3235 13.9278 36.3243 13.9266 36.3253C13.9241 36.3272 13.9205 36.3301 13.9159 36.3339C13.9065 36.3414 13.8928 36.3524 13.8751 36.3668C13.8396 36.3955 13.7879 36.4374 13.7226 36.4908C13.5921 36.5976 13.4069 36.7504 13.1876 36.9351C12.7497 37.3039 12.1727 37.8024 11.622 38.3167C11.0766 38.8261 10.5367 39.3696 10.1869 39.8256C10.0182 40.0456 9.85817 40.2898 9.78507 40.5257C9.74796 40.6455 9.71734 40.8126 9.76456 40.9913C9.81812 41.1941 9.95422 41.3456 10.1277 41.4321L10.3509 40.9847L10.5741 40.5373C10.6363 40.5684 10.7055 40.638 10.7314 40.7359C10.7509 40.8097 10.7318 40.8491 10.7403 40.8217C10.7584 40.7633 10.826 40.6356 10.9804 40.4342C11.277 40.0476 11.7657 39.5508 12.3045 39.0476C12.8381 38.5493 13.4009 38.0629 13.8318 37.7C14.0469 37.5188 14.2284 37.3691 14.3558 37.2648C14.4196 37.2127 14.4698 37.1719 14.5039 37.1443C14.521 37.1305 14.534 37.12 14.5427 37.113C14.547 37.1095 14.5503 37.1069 14.5525 37.1052C14.5535 37.1043 14.5543 37.1037 14.5548 37.1033C14.5551 37.1031 14.5552 37.1029 14.5554 37.1028C14.5554 37.1028 14.5554 37.1028 14.5555 37.1027C14.5555 37.1027 14.5555 37.1027 14.243 36.7124ZM10.3509 40.9847L10.1277 41.4321C10.7454 41.7403 11.2798 41.8519 11.7703 41.8163C12.2568 41.781 12.6504 41.6039 12.9811 41.4239L12.742 40.9847L12.503 40.5456C12.222 40.6985 11.9761 40.7988 11.6979 40.819C11.4239 40.8388 11.0685 40.784 10.5741 40.5373L10.3509 40.9847ZM12.742 40.9847L12.9811 41.4239C13.0951 41.3619 13.2324 41.2513 13.3612 41.1401C13.5017 41.0188 13.6701 40.8629 13.856 40.6818C14.2283 40.3192 14.6823 39.8449 15.1428 39.3219C16.0477 38.2941 17.0364 37.0131 17.4329 36.0082L16.9678 35.8247L16.5027 35.6412C16.1767 36.4672 15.2973 37.6331 14.3922 38.661C13.9477 39.1659 13.5113 39.6216 13.1583 39.9654C12.9816 40.1375 12.8285 40.2789 12.7077 40.3832C12.6472 40.4354 12.5975 40.476 12.5588 40.5056C12.5165 40.5379 12.4999 40.5473 12.503 40.5456L12.742 40.9847Z" fill="#4E4D47"/>
</svg>
