<svg
        xmlns="http://www.w3.org/2000/svg"
        width="25"
        height="24"
        viewBox="0 0 25 24"
        fill="none"
>
    <g clipPath="url(#clip0)">
        <path
                d="M9 23.5H2C1.73478 23.5 1.48043 23.3946 1.29289 23.2071C1.10536 23.0196 1 22.7652 1 22.5V1.5C1 1.23478 1.10536 0.98043 1.29289 0.792893C1.48043 0.605357 1.73478 0.5 2 0.5H15.293C15.5582 0.500057 15.8125 0.605451 16 0.793L19.707 4.5C19.8946 4.68749 19.9999 4.9418 20 5.207V8.5"
                stroke="black"
                stroke-linecap="round"
                stroke-linejoin="round"
        />
        <path
                d="M10 14C10 14.933 8.881 15.687 7.5 15.687C6.119 15.687 5 14.933 5 14C5 13.067 6.119 12.314 7.5 12.314C8.881 12.314 10 13.068 10 14Z"
                stroke="black"
                stroke-linecap="round"
                stroke-linejoin="round"
        />
        <path
                d="M10 14.0002V7.22317C9.99965 7.04746 10.0456 6.87477 10.1332 6.72247C10.2209 6.57018 10.3471 6.44366 10.4991 6.35566C10.6512 6.26766 10.8238 6.22128 10.9995 6.22119C11.1752 6.22111 11.3478 6.26731 11.5 6.35517L13.5 7.50017"
                stroke="black"
                stroke-linecap="round"
                stroke-linejoin="round"
        />
        <path
                d="M23.38 15.1199L15.75 22.7499L12 23.4999L12.75 19.7499L20.38 12.1199C20.5763 11.9232 20.8095 11.7672 21.0662 11.6607C21.3229 11.5543 21.5981 11.4995 21.876 11.4995C22.1539 11.4995 22.4291 11.5543 22.6858 11.6607C22.9425 11.7672 23.1757 11.9232 23.372 12.1199L23.38 12.1279C23.5767 12.3242 23.7327 12.5574 23.8391 12.8141C23.9456 13.0708 24.0004 13.346 24.0004 13.6239C24.0004 13.9018 23.9456 14.1769 23.8391 14.4336C23.7327 14.6903 23.5767 14.9235 23.38 15.1199Z"
                stroke="black"
                stroke-linecap="round"
                stroke-linejoin="round"
        />
    </g>
    <defs>
        <clipPath id="clip0">
            <rect
                    width="24"
                    height="24"
                    fill="white"
                    transform="translate(0.5)"
            />
        </clipPath>
    </defs>
</svg>
