<svg
        width="24"
        height="24"
        viewBox="0 0 24 24"
        fill="none"
        xmlns="http://www.w3.org/2000/svg"
>
    <path
            fillRule="evenodd"
            clipRule="evenodd"
            d="M24 12C24 18.6274 18.6274 24 12 24C5.37258 24 0 18.6274 0 12C0 5.37258 5.37258 0 12 0C18.6274 0 24 5.37258 24 12ZM1 12C1 18.0751 5.92487 23 12 23C18.0751 23 23 18.0751 23 12C23 5.92487 18.0751 1 12 1C5.92487 1 1 5.92487 1 12ZM17.7395 11.9976C17.7395 10.5876 16.9756 9.05471 15.7905 8.07619C15.5599 7.8867 15.2191 7.91914 15.0284 8.14878C14.8373 8.38012 14.8698 8.72256 15.1012 8.91264C16.0449 9.69168 16.6557 10.9081 16.6557 11.9976C16.6557 13.0841 16.0444 14.3013 15.1005 15.0826C14.8699 15.2742 14.8374 15.6153 15.0281 15.846C15.1329 15.972 15.2862 16.0424 15.4461 16.0424C15.5711 16.0424 15.6931 15.9991 15.7912 15.9179C16.9756 14.9375 17.7395 13.4048 17.7395 11.9976ZM15.5728 11.995C15.5728 11.0446 15.0742 10.1619 14.1819 9.5135C13.9401 9.33785 13.6012 9.39106 13.4254 9.63274C13.249 9.87445 13.3026 10.2134 13.5441 10.3899C14.1293 10.8155 14.489 11.35 14.489 11.995C14.489 12.6409 14.1297 13.1747 13.5446 13.6003C13.3025 13.7761 13.2488 14.1157 13.4256 14.3575C13.5271 14.4988 13.6912 14.5803 13.8639 14.5803C13.9774 14.5803 14.0887 14.5451 14.1824 14.4767C15.0745 13.8285 15.5728 12.9463 15.5728 11.995ZM7.94 10.0003L11.5567 6.08393C11.6321 6.00222 11.7455 5.97708 11.8442 6.02222C11.9428 6.06622 12.0071 6.17079 12.0071 6.28621V17.7143C12.0071 17.8297 11.9428 17.9343 11.8442 17.9783C11.8115 17.9931 11.7772 18 11.7434 18C11.6743 18 11.6073 17.9709 11.5567 17.916L7.94191 14.0002H6.00012C5.41832 14.0002 5.00012 13.6303 5.00012 13V11C5.00012 10.3697 5.41832 10 6.00012 10L7.94 10.0003Z"
            fill="#22211D"
    />
</svg>