<svg width="24px" height="24px" viewBox="0 0 24 24" version="1.1" xmlns="http://www.w3.org/2000/svg"
     style="fill-rule: evenodd; clip-rule: evenodd; stroke-linecap: round; stroke-linejoin: round;">
    <title>Audio-Feed</title>
    <g id="Audio-Feed" transform="matrix(1,0,0,1,2,0)">
        <g id="common-file-double">
            <path id="Shape"
                  d="M15.086,0.5C15.351,0.5 15.606,0.605 15.793,0.793L19.207,4.207C19.395,4.394 19.5,4.649 19.5,4.914L19.5,19.5C19.5,20.052 19.052,20.5 18.5,20.5L4.5,20.5C3.948,20.5 3.5,20.052 3.5,19.5L3.5,1.5C3.5,0.948 3.948,0.5 4.5,0.5L15.086,0.5Z"
                  style="fill: none; stroke: rgb(136, 133, 121); stroke-width: 1px;"></path>
            <path id="Shape1"
                  d="M16.5,20.5L16.5,22.5C16.5,23.052 16.052,23.5 15.5,23.5L1.5,23.5C0.948,23.5 0.5,23.052 0.5,22.5L0.5,4.5C0.5,3.948 0.948,3.5 1.5,3.5L3.5,3.5"
                  style="fill: none; stroke: rgb(136, 133, 121); stroke-width: 1px;"></path>
        </g>
    </g>
    <g transform="matrix(0.652137,0,0,0.691329,9.48632,6.55203)">
        <g id="audio-icon">
            <g id="speaker">
                <path id="Fill-1581"
                      d="M6.557,0.084L2.94,4L1,4C0.418,4 0,4.37 0,5L0,7C0,7.63 0.418,8 1,8L2.942,8L6.557,11.916C6.607,11.971 6.674,12 6.743,12C6.777,12 6.811,11.993 6.844,11.978C6.943,11.934 7.007,11.83 7.007,11.714L7.007,0.286C7.007,0.171 6.943,0.066 6.844,0.022C6.746,-0.023 6.632,0.002 6.557,0.084Z"
                      style="fill: rgb(136, 133, 121);"></path>
                <path id="Fill-1582"
                      d="M10.632,2.269C10.507,2.167 10.324,2.185 10.221,2.308C10.118,2.433 10.136,2.617 10.26,2.719C11.26,3.545 11.906,4.831 11.906,5.998C11.906,7.161 11.259,8.448 10.26,9.275C10.136,9.379 10.118,9.562 10.221,9.687C10.279,9.756 10.362,9.792 10.446,9.792C10.512,9.792 10.577,9.77 10.632,9.725C11.76,8.791 12.489,7.328 12.489,5.998C12.489,4.664 11.76,3.201 10.632,2.269"
                      style="fill: rgb(136, 133, 121); stroke: rgb(136, 133, 121); stroke-width: 0.5px; stroke-linecap: butt; stroke-linejoin: miter;"></path>
                <path id="Fill-1583"
                      d="M8.627,3.78C8.532,3.91 8.561,4.093 8.692,4.188C9.169,4.535 9.739,5.131 9.739,5.995C9.739,6.86 9.169,7.455 8.692,7.802C8.561,7.897 8.532,8.08 8.627,8.21C8.684,8.289 8.773,8.33 8.864,8.33C8.923,8.33 8.983,8.313 9.035,8.275C9.866,7.671 10.323,6.862 10.323,5.995C10.323,5.129 9.866,4.319 9.035,3.716C8.905,3.621 8.722,3.65 8.627,3.78Z"
                      style="fill: rgb(136, 133, 121); stroke: rgb(136, 133, 121); stroke-width: 0.5px; stroke-linecap: butt; stroke-linejoin: miter;"></path>
            </g>
        </g>
    </g>
</svg>
