<svg width="16" height="16" viewBox="0 0 16 16" fill="none" xmlns="http://www.w3.org/2000/svg">
    <path d="M6.78104 11.8092L7.07166 11.4024L6.94127 11.3092H6.78104V11.8092ZM11.0477 14.8569L10.7571 15.2638L11.5477 15.8285V14.8569H11.0477ZM11.0477 11.8092V11.3092H10.5477V11.8092H11.0477ZM1.64307 2.14258C1.64307 1.86644 1.86692 1.64258 2.14307 1.64258V0.642578C1.31464 0.642578 0.643066 1.31415 0.643066 2.14258H1.64307ZM1.64307 10.8092V2.14258H0.643066V10.8092H1.64307ZM2.14307 11.3092C1.86692 11.3092 1.64307 11.0854 1.64307 10.8092H0.643066C0.643066 11.6377 1.31464 12.3092 2.14307 12.3092V11.3092ZM6.78104 11.3092H2.14307V12.3092H6.78104V11.3092ZM11.3384 14.45L7.07166 11.4024L6.49042 12.2161L10.7571 15.2638L11.3384 14.45ZM10.5477 11.8092V14.8569H11.5477V11.8092H10.5477ZM13.8574 11.3092H11.0477V12.3092H13.8574V11.3092ZM14.3574 10.8092C14.3574 11.0854 14.1335 11.3092 13.8574 11.3092V12.3092C14.6858 12.3092 15.3574 11.6377 15.3574 10.8092H14.3574ZM14.3574 2.14258V10.8092H15.3574V2.14258H14.3574ZM13.8574 1.64258C14.1335 1.64258 14.3574 1.86643 14.3574 2.14258H15.3574C15.3574 1.31415 14.6858 0.642578 13.8574 0.642578V1.64258ZM2.14307 1.64258H13.8574V0.642578H2.14307V1.64258Z" fill="#6B6960"/>
</svg>
