<svg
        width="24"
        height="24"
        viewBox="0 0 24 24"
        fill="none"
        xmlns="http://www.w3.org/2000/svg"
>
    <path
            d="M19 3.646H20C20.2652 3.646 20.5196 3.75135 20.7071 3.93889C20.8946 4.12643 21 4.38078 21 4.646V22.5C21 22.7652 20.8946 23.0196 20.7071 23.2071C20.5196 23.3946 20.2652 23.5 20 23.5H4C3.73478 23.5 3.48043 23.3946 3.29289 23.2071C3.10536 23.0196 3 22.7652 3 22.5V4.646C3 4.38078 3.10536 4.12643 3.29289 3.93889C3.48043 3.75135 3.73478 3.646 4 3.646H5"
            stroke="#ffffff"
            strokeLinecap="round"
            strokeLinejoin="round"
    />
    <path
            d="M14 2.5C14 1.96957 13.7893 1.46086 13.4142 1.08579C13.0391 0.710714 12.5304 0.5 12 0.5C11.4696 0.5 10.9609 0.710714 10.5858 1.08579C10.2107 1.46086 10 1.96957 10 2.5H7.5C7.36739 2.5 7.24021 2.55268 7.14645 2.64645C7.05268 2.74021 7 2.86739 7 3V5C7 5.13261 7.05268 5.25979 7.14645 5.35355C7.24021 5.44732 7.36739 5.5 7.5 5.5H16.5C16.6326 5.5 16.7598 5.44732 16.8536 5.35355C16.9473 5.25979 17 5.13261 17 5V3C17 2.86739 16.9473 2.74021 16.8536 2.64645C16.7598 2.55268 16.6326 2.5 16.5 2.5H14Z"
            stroke="#ffffff"
            strokeLinecap="round"
            strokeLinejoin="round"
    />
    <path
            d="M14.536 12L11.631 15.874C11.5664 15.9599 11.4841 16.031 11.3897 16.0823C11.2953 16.1337 11.191 16.1642 11.0837 16.1718C10.9765 16.1794 10.8689 16.1639 10.7682 16.1263C10.6675 16.0887 10.576 16.03 10.5 15.954L9 14.454"
            stroke="#ffffff"
            strokeLinecap="round"
            strokeLinejoin="round"
    />
</svg>