<svg
        width="56"
        height="36"
        viewBox="0 0 56 36"
        fill="none"
        xmlns="http://www.w3.org/2000/svg"
>
    <path
            opacity="0.5"
            d="M32.2283 3.75328C31.9599 3.15268 31.5696 3.23081 31.1158 3.59214C30.9841 3.89488 30.9938 4.05113 30.6132 4.05113C30.2278 4.06578 29.5057 4.0902 29.1934 3.85093C29.1104 3.7191 29.0714 3.50913 28.9689 3.41147C28.764 3.39682 28.4615 3.26499 28.281 3.29917C28.0077 3.348 27.5149 3.36753 27.3978 3.63609C26.8416 3.76304 26.8025 4.01207 26.4708 4.30505C26.0902 4.42224 24.5581 4.55896 24.2653 4.35387C24.28 3.70445 23.714 3.96324 23.3236 3.87535C23.0211 3.60679 22.9528 4.39782 22.4942 4.51501C22.5088 4.53454 21.8599 4.59802 22.0453 4.64197C21.2451 4.72986 21.3085 4.79334 20.5473 4.34899C20.9718 4.45642 21.0694 4.08043 21.167 3.75816C20.762 3.78746 20.1814 4.00719 19.8106 4.15367C19.7715 4.2025 19.2983 4.35876 19.5178 4.41247C19.591 4.4613 19.913 4.72498 20.0057 4.71033C20.1326 4.69079 20.1912 4.83728 20.2887 4.90076C20.1277 4.75427 20.1277 4.71033 19.8935 4.68103C19.391 4.2611 19.4202 4.38805 18.9713 4.76404C19.1421 4.87146 19.3714 4.99354 19.1958 5.21815C19.1031 5.28651 18.9811 5.18885 18.8982 5.26209C18.8347 5.3744 19.0006 5.46229 19.0055 5.55995L19.2055 5.53554C19.2055 5.53554 18.9957 5.55995 19.0055 5.55995C19.0543 5.67714 18.8298 5.81386 18.7811 5.86758C18.6883 5.87734 18.5566 5.81875 18.5127 5.77968C18.4932 5.93105 18.5371 6.22891 18.5761 6.33633C18.581 6.45841 18.7713 6.41446 18.8201 6.42423C18.8054 6.42423 18.6054 6.41934 18.62 6.41934C18.5224 6.25821 18.5176 5.94082 18.5127 5.77968C18.2834 5.62831 17.9857 5.66249 18.1907 5.95058C18.4737 6.18985 18.1565 6.49747 18.0248 6.67814C17.6735 6.8881 17.1563 6.77091 16.8196 6.78068C16.2878 6.79533 16.0048 7.32756 15.7022 6.85881C14.9069 6.67814 14.9118 6.35587 15.2241 5.76015C14.9899 5.8041 14.7069 5.8041 14.5605 5.66738C14.1458 5.49647 13.5505 5.89199 13.2138 5.58437C13.0821 5.52089 12.9455 5.60878 12.8772 5.66738C12.3892 5.71132 12.8723 6.18008 12.8674 6.41934C12.721 6.73185 12.3356 6.88322 12.0623 6.9174C12.116 7.51311 11.6671 7.24455 11.389 7.98676C10.984 8.48481 12.7405 7.99164 12.804 8.07465C13.0577 7.85004 13.2382 8.15278 13.4041 8.28461C13.6481 8.49946 13.4139 8.75826 13.1894 8.78267C13.0674 8.80709 12.9357 9.03658 12.882 9.10006C12.3502 9.15377 12.3697 9.88133 12.438 10.2134C11.9013 10.5747 11.2084 11.1216 10.9742 11.6294C10.7205 11.8784 10.1106 12.4839 9.81298 12.4888C9.83738 12.6988 9.8569 12.8453 9.64709 12.8941C9.38849 13.2652 9.21283 12.9722 8.96399 13.563C9.42752 14.1392 8.2565 14.6763 7.9979 14.9449C7.49534 15.0865 6.38775 15.4381 6.06084 15.7213C5.52412 17.2203 6.65123 16.107 5.7632 18.2164C5.71929 18.3239 5.79736 18.4362 5.84127 18.4948C6.23649 18.9538 5.55827 19.4176 5.21184 19.5495C4.96788 19.9596 4.16281 20.3503 3.87005 20.5163C3.74319 20.6335 1.96714 22.2351 2.03545 22.2693C1.99154 22.489 2.29893 22.7527 2.37212 22.8454C1.9769 23.2849 1.61096 23.9734 1.31332 24.408C1.32796 24.6472 1.44506 24.8865 1.37675 25.0965C0.879067 25.4724 2.87468 25.5262 2.03545 26.8104C1.8354 27.1912 1.72318 27.6893 1.72318 28.0653C1.811 28.3143 1.56704 28.4071 1.40603 28.4315C1.28405 28.4901 1.14743 28.3534 1.09863 28.412C0.752206 28.6219 -0.0284744 28.8172 0.000801115 29.1981C0.474089 29.9452 0.352107 29.6571 0.0495937 30.4432C0.405779 30.1649 1.04008 30.1063 1.47434 30.1063C1.80125 30.3016 1.98178 30.3114 2.29893 30.0917C2.66975 29.4618 3.58217 28.993 4.05058 28.4754C3.96276 27.6991 3.95788 28.2264 3.56266 28.0555C3.45043 27.9237 3.39676 27.6502 3.34309 27.494C3.1528 27.9725 2.64048 28.8124 2.21598 29.1102C2.24526 28.9393 2.31845 28.744 2.46482 28.6366L2.54777 27.9578C2.68439 27.3768 4.28479 24.9304 4.71416 24.4861C4.8459 24.3543 5.58755 24.3054 5.7632 24.2713C6.05108 24.1589 6.59755 23.5437 6.90007 23.4705C7.8808 23.1775 9.408 23.8464 10.296 24.1785C10.8376 24.3884 11.9013 24.5789 12.1697 25.1795C11.9794 25.5506 11.6964 25.5555 11.3256 25.5506C11.2914 25.531 11.4036 25.6775 11.3987 25.6775C11.4036 25.4773 10.4375 25.4236 10.3253 25.3748L10.3351 25.5017C10.4668 25.9266 9.94472 26.2147 9.87153 26.576C11.1938 28.4999 10.8718 27.3475 10.174 29.452C9.66173 31.078 11.2133 30.0331 11.3304 30.9071C11.2426 31.0683 11.0621 31.2148 11.145 31.4198C11.1743 31.5224 11.1109 31.6689 11.1353 31.7665C11.0865 31.8593 11.145 31.9374 11.2328 31.9814C11.4134 32.0546 11.4817 31.8202 11.6378 31.7909C11.955 31.8739 12.7893 32.8017 12.8674 33.0996C13.1162 33.8759 13.1943 34.1543 13.8042 34.75C14.6483 35.3701 15.7413 34.7304 16.5317 34.3349C17.449 34.5351 17.9028 34.3593 18.5956 33.7587C19.025 33.5244 19.2543 33.6953 19.4837 33.1826C19.6056 32.9531 20.7815 33.3779 20.9523 33.3974C21.2158 33.5097 21.4646 33.8222 21.5866 34.0713C21.7428 34.1689 21.9038 34.0517 22.0599 34.0371C22.3966 34.2177 22.9382 34.2617 23.2944 34.3252C23.6945 34.1933 23.2358 33.8125 23.7774 33.8613C23.714 32.6796 25.046 33.3193 25.3778 32.5624C25.7047 32.1376 25.3924 31.3905 25.8267 31.0634C26.6415 31.0292 27.1831 30.0184 26.9928 29.2762L26.6269 28.5633C26.4952 28.4559 26.2073 28.2801 26.3439 28.0897C26.5586 27.6649 27.0758 27.4744 27.5149 27.4207C28.0614 27.0643 28.1931 26.4441 28.8762 26.1414C29.0568 25.9607 29.169 25.6971 28.9397 25.5066C29.086 24.9939 29.6959 24.7547 30.1741 24.6961C31.1792 24.447 30.8962 25.8484 30.8816 26.4441C30.6376 27.6405 30.2229 28.5926 31.716 29.0614C32.0624 29.3153 32.6284 30.4139 32.9748 30.6532C33.3944 30.7411 33.9263 31.4149 34.2873 30.8681C34.4288 30.7606 34.5069 30.9413 34.5606 31.039C34.7752 31.2294 35.1802 31.0438 35.4193 31.1903C35.9609 31.6444 35.5462 32.0546 35.1949 32.4648C35.1997 32.5185 34.9314 33.0458 34.9167 33.0996C35.1851 33.0898 35.795 33.4267 36.0292 33.5634C36.161 33.6513 36.2634 33.8857 36.3171 34.0273C36.4732 34.2422 36.644 34.623 36.7026 34.8818C36.7855 35.2139 36.5903 35.5752 36.5562 35.8975C37.0978 35.6143 37.3076 35.9463 37.8248 36C38.2249 35.5801 39.1227 34.3056 38.0492 34.1738C37.8443 34.1103 37.7711 33.788 37.7126 33.6123C37.6491 33.5146 37.4784 33.4267 37.5857 33.2998C38.3469 32.7675 37.6491 32.6894 37.8248 32.0937C38.4152 31.5907 38.7665 31.8935 38.6445 30.8974C38.6152 30.3944 39.6057 29.8036 39.918 29.5204C39.9717 29.3544 40.0009 29.1151 40.1815 29.037C40.5767 28.9344 40.6791 28.3289 40.7719 28.0018C40.9524 27.6356 41.2891 27.0252 41.1963 26.6102C41.1671 26.4197 40.9768 25.907 41.0304 25.7166C41.0695 25.5213 41.089 25.2722 40.8743 25.1892C40.6157 24.8767 40.9182 24.3738 41.0646 24.0711C41.2598 23.7732 41.8453 23.7292 42.1527 23.8416C42.0844 24.0662 42.3918 24.3298 42.5723 24.408C42.8407 24.3396 42.7919 23.8953 43.192 23.8318C43.3725 24.2273 43.1432 25.8338 43.4066 26.1414C43.7677 26.2195 43.9385 26.742 44.0361 27.0399C44.3239 27.7284 45.6023 27.5135 46.1683 27.5574C46.6855 27.4207 46.5635 27.0545 46.6074 26.6492C47.1002 26.1072 46.7441 27.2791 48.4176 26.2049C50.4572 25.8533 49.4764 26.9617 50.1156 27.6942C50.462 27.9334 50.8377 28.3827 50.7402 28.8465C51.3013 28.9198 52.5309 28.4754 52.0234 27.7674C50.3693 26.2928 52.282 26.4002 51.8673 25.3601C51.4135 25.1599 50.1156 25.1551 50.7548 24.4031C50.3791 24.1931 50.6572 23.6755 50.5987 23.3435C50.5987 23.0603 50.9646 22.8699 51.0915 22.6452C51.0866 22.5476 51.2769 22.0007 51.3013 21.9226C51.5745 21.781 52.6089 21.4685 52.9163 21.5124C53.5213 21.9275 52.5406 22.4157 53.6336 22.6257C53.7214 22.6843 53.7946 22.8161 53.8727 22.8845C54.0532 23.0212 54.3996 22.9578 54.6045 22.9333C55.7658 23.3386 55.9902 23.2068 56 21.9226C55.961 21.4294 55.5511 21.2927 55.1169 21.2976C54.8827 21.0827 54.6241 20.6091 54.9802 20.3893C55.1754 20.1598 55.0729 19.8034 55.1656 19.5397C55.7316 19.2858 55.4096 18.8463 55.3852 18.3922C56.039 17.8502 55.6829 16.8932 55.961 16.19C55.9756 15.8531 55.595 15.5943 55.3608 15.4137C55.2144 15.2672 55.0925 14.8082 54.8387 14.7935C54.3167 14.9498 53.8239 15.5748 53.8727 16.1314C53.6336 16.19 53.3506 16.0484 53.1212 16.1217C52.5894 17.0153 53.1798 17.1324 51.8429 17.5182C51.2574 17.5426 50.6572 17.1373 50.2864 16.7174L48.9641 16.2828C48.242 15.8678 48.5445 15.4088 48.5982 14.7447C48.5591 14.6666 48.4664 14.7154 48.4176 14.647C48.7641 14.3004 46.1439 13.8169 46.0951 13.6998C45.9585 13.607 45.3876 13.7535 45.2364 13.7486C45.1046 13.69 44.8753 13.69 44.7484 13.7632C42.7138 13.4898 44.2703 13.4605 44.1434 12.357C43.9434 11.8784 43.7336 11.4243 43.8409 10.8823C44.0166 10.1157 44.7143 9.22702 45.1339 8.59712C45.1144 8.08442 45.7145 7.66449 45.856 7.22014C46.0171 5.75527 45.2022 6.45352 44.6753 5.35487C44.3679 5.46229 44.0361 6.04824 43.6896 5.56484C43.6409 5.55507 42.7967 4.71521 42.7284 4.74939C42.6552 4.65173 42.5381 4.12438 42.3966 4.06578C42.1429 3.91441 40.0741 2.79134 40.0644 2.42024C39.6106 2.41048 38.4591 2.35676 38.0004 2.26399C37.8541 2.30305 37.6491 2.43977 37.5662 2.57161C37.0539 2.80111 36.3561 2.8597 35.9511 2.40071C35.7462 2.22493 35.6779 2.06379 36.0097 2.03938C35.7511 1.78058 35.3461 1.41925 34.9509 1.48272C34.9167 1.59991 34.7752 1.88312 34.9411 1.95637C34.1702 1.95148 34.3995 2.13215 34.0775 1.4339C34.1019 1.30206 34.2727 1.11162 34.3166 0.989551C34.2727 0.818649 34.1458 0.740522 33.975 0.808883C33.7213 0.789351 33.6969 0.393836 33.5359 0.237583C33.1065 -0.0505087 33.3456 1.09697 32.926 0.716108C32.8772 0.545206 32.8772 0.291295 32.8528 0.120393C32.5601 -0.0602745 31.9062 -0.089572 32.2283 0.403602C31.9843 0.589152 31.3842 0.564738 31.1353 0.691693C30.784 1.11651 30.9889 1.52667 30.3742 1.74152C30.1644 1.88801 30.2766 2.11262 30.3254 2.30794C30.2375 2.48372 30.2229 2.53255 30.4376 2.58138C31.7257 3.50425 31.1744 2.46907 32.6137 2.58138C32.6967 2.62044 32.8235 2.68392 32.9211 2.67904C32.8772 2.70833 32.926 3.2601 32.7699 3.07943C32.7894 2.91342 32.7016 2.89388 32.5893 3.00131C32.5503 3.07944 32.5649 3.18686 32.604 3.2601C32.6137 3.35288 32.5893 3.4896 32.604 3.58237C32.6235 3.79722 32.36 4.03648 32.2283 3.75328Z"
            fill="#B9B7AC"
    />
    <path
            d="M16 8C17.1046 8 18 7.10457 18 6C18 4.89543 17.1046 4 16 4C14.8954 4 14 4.89543 14 6C14 7.10457 14.8954 8 16 8Z"
            stroke="#6B6960"
            strokeWidth="1.5"
            strokeLinecap="round"
            strokeLinejoin="round"
    />
    <path
            d="M21 5.96722C21 8.7003 17.5944 12.5604 16.4044 13.8265C16.3525 13.8813 16.2898 13.9249 16.2203 13.9548C16.1507 13.9846 16.0758 14 16 14C15.9242 14 15.8493 13.9846 15.7797 13.9548C15.7102 13.9249 15.6475 13.8813 15.5956 13.8265C14.4056 12.5604 11 8.70361 11 5.96722C11 4.64983 11.5268 3.3864 12.4645 2.45487C13.4021 1.52333 14.6739 1 16 1C17.3261 1 18.5979 1.52333 19.5355 2.45487C20.4732 3.3864 21 4.64983 21 5.96722V5.96722Z"
            stroke="#6B6960"
            strokeWidth="1.5"
            strokeLinecap="round"
            strokeLinejoin="round"
    />
</svg>
