<svg
        width="24"
        height="24"
        viewBox="0 0 24 24"
        fill="none"
        xmlns="http://www.w3.org/2000/svg"
>
    <path
            d="M18.206 11.9321L19.745 15.5001H22.74C22.8912 15.4944 23.0405 15.5355 23.1675 15.6178C23.2944 15.7001 23.3929 15.8196 23.4495 15.9599C23.506 16.1003 23.5179 16.2546 23.4835 16.402C23.449 16.5493 23.3699 16.6824 23.257 16.7831L20.657 19.0991L22.097 22.4121C22.1602 22.5637 22.1743 22.7312 22.1373 22.8912C22.1003 23.0511 22.0141 23.1955 21.8908 23.3039C21.7675 23.4123 21.6133 23.4793 21.4499 23.4955C21.2865 23.5117 21.1222 23.4762 20.98 23.3941L17.5 21.4351L14.02 23.4001C13.8778 23.4822 13.7135 23.5177 13.5501 23.5015C13.3867 23.4853 13.2325 23.4183 13.1092 23.3099C12.9859 23.2015 12.8997 23.0571 12.8627 22.8972C12.8257 22.7372 12.8398 22.5697 12.903 22.4181L14.343 19.1051L11.743 16.7891C11.6297 16.6888 11.5502 16.556 11.5154 16.4088C11.4805 16.2615 11.492 16.1071 11.5483 15.9667C11.6045 15.8262 11.7028 15.7066 11.8297 15.6242C11.9566 15.5417 12.1058 15.5005 12.257 15.5061H15.257L16.798 11.9371C16.8647 11.8082 16.9654 11.7 17.0892 11.6243C17.2131 11.5486 17.3553 11.5083 17.5005 11.5078C17.6456 11.5073 17.7881 11.5466 17.9125 11.6214C18.0369 11.6962 18.1384 11.8037 18.206 11.9321V11.9321Z"
            stroke="#22211D"
            strokeLinecap="round"
            strokeLinejoin="round"
    />
    <path
            d="M21.331 10.477C21.4398 9.99209 21.4965 9.49695 21.5 9C21.5 4.306 16.8 0.5 11 0.5C5.2 0.5 0.5 4.306 0.5 9C0.526172 10.1556 0.810835 11.2906 1.33309 12.3218C1.85534 13.353 2.60191 14.2541 3.518 14.959L1.5 19.5L7.137 16.9C7.90838 17.1426 8.7014 17.31 9.505 17.4"
            stroke="#22211D"
            strokeLinecap="round"
            strokeLinejoin="round"
    />
</svg>
