<svg
        width="24"
        height="24"
        viewBox="0 0 24 24"
        fill="none"
        xmlns="http://www.w3.org/2000/svg"
>
    <g clipPath="url(#clip0_4672:176421)">
        <mask id="path-1-inside-1_4672:176421" fill="white">
            <path
                    fill-rule="evenodd"
                    clip-rule="evenodd"
                    d="M9 0.5C9 0.223858 8.77614 -9.78514e-09 8.5 -2.18557e-08L0.500001 -3.71547e-07C0.223858 -3.83617e-07 9.43889e-07 0.223857 9.31819e-07 0.499999L-7.35433e-08 23.5C-8.56139e-08 23.7761 0.223858 24 0.5 24L8.5 24C8.77614 24 9 23.7761 9 23.5L9 0.5ZM8 8L8 1L1 1L1 8L8 8ZM8 9L8 15L1 15L1 9L8 9ZM8 23L8 16L1 16L1 23L8 23Z"
            />
        </mask>
        <path
                fill-rule="evenodd"
                clip-rule="evenodd"
                d="M9 0.5C9 0.223858 8.77614 -9.78514e-09 8.5 -2.18557e-08L0.500001 -3.71547e-07C0.223858 -3.83617e-07 9.43889e-07 0.223857 9.31819e-07 0.499999L-7.35433e-08 23.5C-8.56139e-08 23.7761 0.223858 24 0.5 24L8.5 24C8.77614 24 9 23.7761 9 23.5L9 0.5ZM8 8L8 1L1 1L1 8L8 8ZM8 9L8 15L1 15L1 9L8 9ZM8 23L8 16L1 16L1 23L8 23Z"
                fill="#22211D"
        />
        <path
                d="M8 1L9 1L9 0L8 -4.37114e-08L8 1ZM8 8L8 9L9 9L9 8L8 8ZM1 1L1 -3.49691e-07L0 -3.93402e-07L-4.37114e-08 1L1 1ZM1 8L-3.49691e-07 8L-3.93402e-07 9L1 9L1 8ZM8 15L8 16L9 16L9 15L8 15ZM8 9L9 9L9 8L8 8L8 9ZM1 15L-1.78834e-07 15L-2.22545e-07 16L1 16L1 15ZM1 9L1 8L1.27146e-07 8L8.34347e-08 9L1 9ZM8 16L9 16L9 15L8 15L8 16ZM8 23L8 24L9 24L9 23L8 23ZM1 16L1 15L2.98003e-07 15L2.54292e-07 16L1 16ZM1 23L-5.16876e-08 23L-9.5399e-08 24L1 24L1 23ZM8.5 1C8.22386 1 8 0.776143 8 0.5L10 0.5C10 -0.328428 9.32843 -1 8.5 -1L8.5 1ZM0.500001 1L8.5 1L8.5 -1L0.500001 -1L0.500001 1ZM1 0.499999C1 0.776142 0.776142 1 0.500001 1L0.500001 -1C-0.328426 -1 -0.999999 -0.328429 -0.999999 0.499999L1 0.499999ZM1 23.5L1 0.499999L-0.999999 0.499999L-1 23.5L1 23.5ZM0.5 23C0.776143 23 1 23.2239 1 23.5L-1 23.5C-1 24.3284 -0.328427 25 0.5 25L0.5 23ZM8.5 23L0.5 23L0.5 25L8.5 25L8.5 23ZM8 23.5C8 23.2239 8.22386 23 8.5 23L8.5 25C9.32843 25 10 24.3284 10 23.5L8 23.5ZM8 0.5L8 23.5L10 23.5L10 0.5L8 0.5ZM7 1L7 8L9 8L9 1L7 1ZM1 2L8 2L8 -4.37114e-08L1 -3.49691e-07L1 2ZM2 8L2 1L-4.37114e-08 1L-3.49691e-07 8L2 8ZM8 7L1 7L1 9L8 9L8 7ZM9 15L9 9L7 9L7 15L9 15ZM1 16L8 16L8 14L1 14L1 16ZM8.34347e-08 9L-1.78834e-07 15L2 15L2 9L8.34347e-08 9ZM8 8L1 8L1 10L8 10L8 8ZM7 16L7 23L9 23L9 16L7 16ZM1 17L8 17L8 15L1 15L1 17ZM2 23L2 16L2.54292e-07 16L-5.16876e-08 23L2 23ZM8 22L1 22L1 24L8 24L8 22Z"
                fill="#22211D"
                mask="url(#path-1-inside-1_4672:176421)"
        />
        <rect
                x="21.5352"
                y="7.0498"
                width="2"
                height="12"
                rx="1"
                transform="rotate(45 21.5352 7.0498)"
                fill="#22211D"
        />
        <rect
                x="22.9512"
                y="15.5342"
                width="2"
                height="12"
                rx="1"
                transform="rotate(135 22.9512 15.5342)"
                fill="#22211D"
        />
    </g>
    <defs>
        <clipPath id="clip0_4672:176421">
            <rect width="24" height="24" fill="white" />
        </clipPath>
    </defs>
</svg>
