<?xml version="1.0" encoding="utf-8"?>
<svg width="48" height="48" viewBox="0 0 48 48" fill="none" xmlns="http://www.w3.org/2000/svg">
    <path d="M23.7101 22.8902C24.1001 22.7202 24.5601 22.7902 24.8901 23.1702C25.1701 23.4802 25.3601 23.9902 25.4101 24.4002C25.4901 25.0102 25.5001 25.5502 25.1401 26.0702C24.7501 26.6502 23.9501 26.9402 23.3701 26.4802C22.4001 25.7302 22.5401 23.4002 23.7101 22.8902Z" fill="#4E4D47" style=""/>
    <path d="M12.7701 22.38C13.6901 22.46 13.8301 23.57 13.8501 24.29C13.8601 24.57 13.8301 24.87 13.7401 25.14C13.6001 25.55 13.2401 25.98 12.8001 26.04C12.2201 26.11 11.8001 25.56 11.5801 25.11C11.3201 24.57 11.2801 23.95 11.4901 23.38C11.6901 22.81 12.1101 22.32 12.7701 22.38Z" fill="#4E4D47" style=""/>
    <path d="M16.7401 30.3099C17.3801 30.1799 18.1301 30.1799 18.7801 29.8399C19.4401 29.4199 19.9101 28.4999 20.4501 27.9199C20.6001 29.1499 20.5701 30.3999 20.1601 31.3699C20.1701 31.3599 20.1701 31.3399 20.1801 31.3299L20.1401 31.4299C19.7901 32.1199 18.6201 32.2699 18.0601 32.1999C17.1001 32.0699 15.4901 30.0499 15.0601 31.5799C15.1801 30.5299 16.0001 30.4499 16.7401 30.3099Z" stroke="#4E4D47" stroke-miterlimit="10" stroke-linejoin="round" style=""/>
    <path d="M14.8099 27.1399C15.4499 24.5099 18.2399 20.7999 19.6899 24.7099C19.9999 25.5799 20.3099 26.7399 20.4499 27.9099C19.9099 28.4899 19.4399 29.4099 18.7799 29.8299C18.1399 30.1699 17.3899 30.1699 16.7399 30.2999C15.9999 30.4299 15.2499 30.4299 15.1199 31.4799C15.1199 31.4799 15.3099 31.1299 15.0599 31.4999C14.7999 29.9699 14.3799 28.6999 14.8099 27.1399Z" stroke="#4E4D47" stroke-miterlimit="10" stroke-linejoin="round"/>
    <path d="M40.53 40.5098C38.67 39.2898 38.47 37.5598 38.12 35.4798C37.83 33.4098 38.19 31.7598 38.91 29.8998C40.13 26.6798 39.92 22.7998 38.71 19.6098C38.24 18.3598 37.57 17.2898 36.73 16.2598C36.18 15.5898 35.45 15.1698 35.4 14.2098C35.36 13.3898 35.89 12.6998 36.44 12.1498C37.41 11.1598 40.19 9.59977 40.19 9.59977C38.69 8.80977 37.19 8.80977 35.61 9.16977C33.75 9.66977 32.37 10.9598 30.66 11.3898C28.66 11.8898 25.67 10.9598 23.6 10.8198C22.46 10.7498 21.38 10.7498 20.24 10.9598C19.38 11.0998 18.24 11.5998 17.45 11.6798C15.38 11.6798 15.38 8.63977 15.8 7.25977C14.73 8.20977 14.26 9.24977 13.8 10.3898C13.31 11.5998 12.79 13.1098 12.71 14.2298C12.57 16.0698 10.37 17.0398 9.39999 18.6298C8.32999 20.3898 7.82999 22.4498 7.91999 24.4998C7.99999 26.1898 8.35999 27.8098 8.76999 29.4498C9.03999 30.5098 9.19999 31.6598 8.88999 32.7198C8.55999 33.8298 7.65999 34.5598 7.07999 35.5198C5.93999 37.6698 5.77999 36.4898 6.06999 38.9898" stroke="#4E4D47" stroke-miterlimit="10"/>
    <path d="M24 2C36.13 2 46 11.87 46 24C46 36.13 36.13 46 24 46C11.87 46 2 36.13 2 24C2 11.87 11.87 2 24 2ZM24 0C10.75 0 0 10.75 0 24C0 37.25 10.75 48 24 48C37.25 48 48 37.25 48 24C48 10.75 37.25 0 24 0Z" fill="#4E4D47"/>
    <path d="M40.14 9.5498C35.53 9.8198 30.81 13.1998 27.16 15.7198C24.8 17.3798 22.29 18.2198 20.57 20.5798C18.91 22.7798 16.6 23.3698 14.4 20.5798C12.63 18.3798 12.26 17.4398 12.69 14.5998" stroke="#4E4D47" stroke-miterlimit="10"/>
    <path d="M40.53 9.40994C40.53 9.40994 37.31 10.4899 35.64 13.1999C34.05 14.8299 37.19 16.6299 37.37 17.1099C37.37 17.1099 35.27 16.3099 32.79 16.4699C29.62 16.6899 24.37 15.3199 19.21 21.8899C19.21 21.8999 30.43 7.15994 40.53 9.40994Z" fill="#4E4D47"/>
    <path d="M33.0498 14.99C33.1498 15.53 32.9098 15.71 32.3498 15.53C32.3398 15.54 32.1798 15.12 32.4398 14.92C32.6198 14.77 32.8198 14.8 33.0498 14.99Z" fill="#4E4D47"/>
    <path d="M32.873 13.9497L31.3994 15.1011L32.4954 16.5037L33.9689 15.3524L32.873 13.9497Z" fill="#4E4D47"/>
    <path d="M33.0498 14.99C33.1498 15.53 32.9098 15.71 32.3498 15.53C32.3398 15.54 32.1798 15.12 32.4398 14.92C32.6198 14.77 32.8198 14.8 33.0498 14.99Z" fill="#4E4D47"/>
    <path d="M7.99986 28.2999C8.35986 28.8399 8.79986 29.3199 9.32986 29.7399C10.3499 30.5299 12.0999 30.6599 13.0699 29.6899C14.0899 28.6599 14.1899 26.8899 14.2299 25.5299C14.2799 24.0199 14.1499 22.2799 13.2199 21.0199C12.1499 19.5599 10.0499 19.4399 8.37986 19.4399C8.10986 19.4399 7.83986 19.4499 7.58986 19.5199C6.55986 19.8299 6.52986 21.2099 6.49986 22.0799C6.45986 23.4299 6.72986 24.8499 7.06986 26.1599C7.27986 26.9299 7.57986 27.6499 7.99986 28.2999ZM25.3299 30.9799C26.8299 31.0299 28.0299 30.4499 28.9999 29.2199C29.9099 28.0599 31.0599 24.6499 31.1099 23.1199C31.1999 20.1299 29.1099 20.3999 26.0599 20.2999C23.0099 20.1999 20.0599 22.7199 19.9699 25.7099C19.8499 29.4299 21.8399 30.8699 25.3299 30.9799ZM2.89986 18.4899C2.89986 18.4899 7.01986 17.7099 10.8899 18.4699C13.5099 18.9799 14.3899 20.5999 15.9699 21.5399C16.7299 21.9899 17.7099 21.9999 18.5599 21.5699C20.2199 20.7199 23.1099 19.4099 25.7099 19.0699C29.6199 18.5499 34.9599 19.7599 34.9599 19.7599C34.9599 19.7599 35.0699 21.5499 34.8899 21.9399C34.7099 22.3299 33.9299 21.9499 33.5999 22.2199C33.2699 22.4899 32.6599 23.6599 32.3699 23.7699C32.0799 23.8799 31.9699 24.0799 31.9699 24.0799C31.9699 24.0799 31.5699 25.6599 31.3899 26.1699C31.2099 26.6799 30.0699 31.6499 26.0199 31.9199C21.9699 32.1899 20.4599 30.4399 20.4599 30.4399C20.4599 30.4399 19.0899 29.1699 19.0999 26.9399C19.0999 25.3399 18.8899 24.3099 18.6399 23.9899C18.3899 23.6599 17.6999 23.3599 17.1499 23.4199C16.6099 23.3199 15.8999 23.5799 15.6299 23.8899C15.3599 24.1999 15.0899 25.1999 14.9899 26.8099C14.8599 29.0299 13.9299 30.2399 13.9299 30.2399C13.9299 30.2399 13.0399 31.2699 11.0599 31.1699C7.00986 30.9799 6.19986 25.6199 6.05986 25.0899C5.91986 24.5599 5.60986 22.9699 5.60986 22.9699C5.60986 22.9699 5.51986 22.7699 5.22986 22.6399C4.93986 22.5099 4.39986 21.3099 4.09986 21.0199C3.78986 20.7299 2.97986 21.0699 2.82986 20.6599C2.68986 20.2699 2.89986 18.4899 2.89986 18.4899Z" fill="#4E4D47"/>
    <path d="M34.8901 21.9298C34.8901 21.9298 39.6301 21.7598 40.7201 22.7298C41.8001 23.6898 42.0701 24.3998 42.0701 24.3998C42.0701 24.3998 43.1501 24.3398 42.7501 23.1598C42.3401 21.9798 41.6101 21.2498 40.0701 21.0698C38.5401 20.8998 34.9601 19.7598 34.9601 19.7598L34.8901 21.9298Z" fill="#4E4D47"/>
</svg>
