<svg
        width="24"
        height="24"
        viewBox="0 0 24 24"
        fill="none"
        xmlns="http://www.w3.org/2000/svg"
>
    <path
            d="M6.966 21.9831L0.5 23.5001L2.017 17.0351L17.964 1.08607C18.1497 0.90027 18.3702 0.752879 18.6129 0.652318C18.8556 0.551758 19.1158 0.5 19.3785 0.5C19.6412 0.5 19.9014 0.551758 20.1441 0.652318C20.3868 0.752879 20.6073 0.90027 20.793 1.08607L22.915 3.20707C23.1008 3.3928 23.2482 3.61332 23.3488 3.85602C23.4493 4.09872 23.5011 4.35886 23.5011 4.62157C23.5011 4.88428 23.4493 5.14442 23.3488 5.38713C23.2482 5.62983 23.1008 5.85034 22.915 6.03607L6.966 21.9831Z"
            stroke="#22211D"
            strokeLinecap="round"
            strokeLinejoin="round"
    />
    <path
            d="M22.2098 6.74497L17.2568 1.79297"
            stroke="#22211D"
            strokeLinecap="round"
            strokeLinejoin="round"
    />
    <path
            d="M20.7828 8.17203L15.8418 3.20703"
            stroke="#22211D"
            strokeLinecap="round"
            strokeLinejoin="round"
    />
    <path
            d="M7.21758 21.7332L2.26758 16.7832"
            stroke="#22211D"
            strokeLinecap="round"
            strokeLinejoin="round"
    />
</svg>
