<svg
        width="24"
        height="24"
        viewBox="0 0 24 24"
        fill="none"
        xmlns="http://www.w3.org/2000/svg"
>
    <path
            d="M1.61919 21.9024L11.1483 2.56079C11.232 2.39101 11.3552 2.24938 11.505 2.15072C11.6549 2.05206 11.8258 2 12 2C12.1742 2 12.3451 2.05206 12.495 2.15072C12.6448 2.24938 12.768 2.39101 12.8517 2.56079L22.3808 21.9024C22.4617 22.0668 22.5027 22.2517 22.4999 22.4391C22.497 22.6264 22.4503 22.8097 22.3643 22.9708C22.2784 23.132 22.1562 23.2656 22.0098 23.3584C21.8633 23.4511 21.6977 23.5 21.5291 23.5H2.47091C2.30234 23.5 2.13669 23.4511 1.99025 23.3584C1.8438 23.2656 1.7216 23.132 1.63567 22.9708C1.54974 22.8097 1.50303 22.6264 1.50014 22.4391C1.49725 22.2517 1.53828 22.0668 1.61919 21.9024V21.9024Z"
            stroke="#4E4D47"
            stroke-linecap="round"
            stroke-linejoin="round"
    />
    <path
            d="M12 10V17"
            stroke="#4E4D47"
            stroke-linecap="round"
            stroke-linejoin="round"
    />
    <path
            d="M12 19C12.0663 19 12.1299 19.0263 12.1768 19.0732C12.2237 19.1201 12.25 19.1837 12.25 19.25"
            stroke="#4E4D47"
            stroke-linecap="round"
            stroke-linejoin="round"
    />
    <path
            d="M11.75 19.25C11.75 19.1837 11.7763 19.1201 11.8232 19.0732C11.8701 19.0263 11.9337 19 12 19"
            stroke="#4E4D47"
            stroke-linecap="round"
            stroke-linejoin="round"
    />
    <path
            d="M12 19.5C11.9337 19.5 11.8701 19.4737 11.8232 19.4268C11.7763 19.3799 11.75 19.3163 11.75 19.25"
            stroke="#4E4D47"
            stroke-linecap="round"
            stroke-linejoin="round"
    />
    <path
            d="M12.25 19.25C12.25 19.3163 12.2237 19.3799 12.1768 19.4268C12.1299 19.4737 12.0663 19.5 12 19.5"
            stroke="#4E4D47"
            stroke-linecap="round"
            stroke-linejoin="round"
    />
</svg>
