<svg width="24" height="24" viewBox="0 0 24 24" fill="none" xmlns="http://www.w3.org/2000/svg">
    <path d="M11.0303 1.72064C11.0927 1.51237 11.2208 1.32977 11.3955 1.19994C11.5702 1.07012 11.7822 1 12 1C12.2178 1 12.4298 1.07012 12.6045 1.19994C12.7792 1.32977 12.9073 1.51237 12.9697 1.72064L15.0367 8.59124H20.9886C21.2031 8.59143 21.4119 8.65957 21.585 8.78586C21.7581 8.91215 21.8866 9.09005 21.9519 9.29391C22.0172 9.49778 22.016 9.71708 21.9484 9.9202C21.8808 10.1233 21.7503 10.2998 21.5757 10.4241L17.0612 13.6432L19.0735 19.6691C19.142 19.8736 19.1432 20.0945 19.0769 20.2997C19.0106 20.5049 18.8803 20.6836 18.705 20.8096C18.5297 20.9356 18.3186 21.0023 18.1026 20.9999C17.8866 20.9976 17.6771 20.9264 17.5045 20.7967L12 16.6743L6.49547 20.7967C6.32293 20.9264 6.11335 20.9976 5.89736 20.9999C5.68137 21.0023 5.47029 20.9356 5.295 20.8096C5.1197 20.6836 4.98938 20.5049 4.92308 20.2997C4.85678 20.0945 4.85798 19.8736 4.92651 19.6691L6.93883 13.6432L2.42426 10.4241C2.24972 10.2998 2.11924 10.1233 2.05163 9.9202C1.98402 9.71708 1.98278 9.49778 2.04808 9.29391C2.11339 9.09005 2.24186 8.91215 2.41498 8.78586C2.58811 8.65957 2.79693 8.59143 3.01136 8.59124H8.9633L11.0303 1.72064Z" stroke="white" stroke-linecap="round" stroke-linejoin="round"/>
    <path d="M1 1L23 23" stroke="white" stroke-linecap="round" stroke-linejoin="round"/>
    <path d="M23 1L1 23" stroke="white" stroke-linecap="round" stroke-linejoin="round"/>
</svg>
