<svg width="24" height="24" viewBox="0 0 24 24" fill="none" xmlns="http://www.w3.org/2000/svg">
    <path d="M10.9091 1.56072C10.9793 1.32642 11.1234 1.12099 11.32 0.974936C11.5165 0.828884 11.755 0.75 12 0.75C12.245 0.75 12.4835 0.828884 12.68 0.974936C12.8766 1.12099 13.0207 1.32642 13.0909 1.56072L15.4163 9.29015H22.1122C22.3534 9.29036 22.5884 9.36702 22.7831 9.50909C22.9779 9.65117 23.1224 9.8513 23.1959 10.0807C23.2694 10.31 23.268 10.5567 23.1919 10.7852C23.1159 11.0137 22.9691 11.2122 22.7727 11.3521L17.6938 14.9736L19.9577 21.7527C20.0348 21.9827 20.0361 22.2314 19.9615 22.4622C19.8869 22.6931 19.7403 22.8941 19.5431 23.0358C19.3459 23.1775 19.1085 23.2525 18.8655 23.2499C18.6225 23.2473 18.3867 23.1672 18.1926 23.0213L12 18.3836L5.8074 23.0213C5.6133 23.1672 5.37752 23.2473 5.13453 23.2499C4.89154 23.2525 4.65408 23.1775 4.45687 23.0358C4.25967 22.8941 4.11305 22.6931 4.03846 22.4622C3.96388 22.2314 3.96523 21.9827 4.04232 21.7527L6.30618 14.9736L1.2273 11.3521C1.03094 11.2122 0.884145 11.0137 0.808086 10.7852C0.732026 10.5567 0.730629 10.31 0.804094 10.0807C0.87756 9.8513 1.02209 9.65117 1.21686 9.50909C1.41162 9.36702 1.64655 9.29036 1.88778 9.29015H8.58371L10.9091 1.56072Z" stroke="white" stroke-linecap="round" stroke-linejoin="round"/>
</svg>
