<svg width="12" height="12" viewBox="0 0 12 12" fill="none" xmlns="http://www.w3.org/2000/svg">
    <path d="M7.78527 4.19265C7.86426 4.37603 8.0448 4.49483 8.24447 4.49483H11.2377C11.244 4.49483 11.2503 4.49471 11.2566 4.49448C11.3048 4.49265 11.3523 4.50575 11.3929 4.53202C11.4334 4.55829 11.4649 4.59648 11.483 4.64142C11.501 4.68635 11.5048 4.73581 11.4938 4.78301C11.4828 4.8302 11.4575 4.87279 11.4214 4.90497L8.8233 7.21998C8.66213 7.36359 8.61132 7.59442 8.69729 7.79243L10.1346 11.1026C10.1567 11.157 10.1614 11.2169 10.1482 11.2742C10.1347 11.3324 10.1034 11.3848 10.0587 11.4241C10.014 11.4635 9.95815 11.4877 9.89901 11.4936C9.83988 11.4995 9.78037 11.4866 9.72886 11.4569L9.72887 11.4569L9.72433 11.4543L6.24641 9.49305C6.09379 9.40699 5.90726 9.40709 5.75473 9.49332L2.27681 11.4596L2.2768 11.4595L2.27276 11.4619C2.22124 11.4916 2.16173 11.5045 2.1026 11.4986C2.04347 11.4927 1.98761 11.4685 1.9429 11.4291C1.89819 11.3898 1.86687 11.3374 1.85343 11.2792C1.8402 11.2219 1.84496 11.162 1.86701 11.1076L3.30432 7.79743C3.3903 7.59942 3.33949 7.36859 3.17832 7.22498L0.579867 4.90969L0.578854 4.90879C0.54279 4.87683 0.517429 4.83445 0.506303 4.78743C0.495176 4.7404 0.498847 4.69108 0.516798 4.64624C0.534748 4.60141 0.56608 4.56328 0.606443 4.53703C0.646802 4.51079 0.694239 4.49769 0.742263 4.49949C0.748484 4.49972 0.754708 4.49983 0.760932 4.49983H3.75914C3.95873 4.49983 4.1392 4.38113 4.21825 4.19787L5.74976 0.647315C5.77429 0.604635 5.80915 0.568774 5.85118 0.543071C5.89695 0.515077 5.94948 0.500192 6.00307 0.500002C6.05665 0.499811 6.10929 0.514323 6.15526 0.54199C6.19705 0.567145 6.2319 0.602311 6.25669 0.644268L7.78527 4.19265Z" stroke="white" stroke-linecap="round" stroke-linejoin="round"/>
</svg>
