<svg
        width="24px"
        height="24px"
        viewBox="0 0 24 24"
        version="1.1"
        xmlns="http://www.w3.org/2000/svg"
>
    <g
            stroke="none"
            strokeWidth="1"
            fill="none"
            fillRule="evenodd"
            strokeLinecap="round"
            strokeLinejoin="round"
    >
        <g transform="translate(2.000000, 0.000000)" stroke="#888579">
            <g>
                <path d="M15.086,0.5 C15.3511948,0.500056637 15.6055073,0.605450625 15.793,0.793 L19.207,4.207 C19.3945494,4.39449273 19.4999434,4.64880519 19.5,4.914 L19.5,19.5 C19.5,20.0522847 19.0522847,20.5 18.5,20.5 L4.5,20.5 C3.94771525,20.5 3.5,20.0522847 3.5,19.5 L3.5,1.5 C3.5,0.94771525 3.94771525,0.5 4.5,0.5 L15.086,0.5 Z"></path>
                <path d="M16.5,20.5 L16.5,22.5 C16.5,23.0522847 16.0522847,23.5 15.5,23.5 L1.5,23.5 C0.94771525,23.5 0.5,23.0522847 0.5,22.5 L0.5,4.5 C0.5,3.94771525 0.94771525,3.5 1.5,3.5 L3.5,3.5"></path>
            </g>
        </g>
    </g>
</svg>
