<?xml version="1.0" encoding="utf-8"?>
<svg viewBox="0 0 48 48" fill="none" xmlns="http://www.w3.org/2000/svg">
  <path d="M29.9297 41.9399L32.3797 45.9499" stroke="#4E4D47" stroke-miterlimit="10" stroke-linecap="round"/>
  <path d="M13.6101 43.7998C13.6101 43.7998 17.6401 39.3998 17.7601 38.3898C17.8801 37.3798 8.67009 34.0298 10.6701 22.8098C12.6701 11.5898 25.1601 12.8398 25.1601 12.8398C25.1601 12.8398 29.1601 12.6598 30.9201 16.3498" stroke="#4E4D47" stroke-miterlimit="10" stroke-linecap="round"/>
  <path d="M24.5498 40.1202C31.4598 42.6702 31.7698 41.2502 31.7698 41.2502C24.7998 35.3702 23.9498 30.8502 23.9498 30.8502C25.6998 32.5102 29.2098 33.5002 32.3698 32.4002C32.5498 32.3402 32.7398 32.2702 32.9198 32.2102C37.2398 30.8002 42.1998 30.2502 42.1998 30.2502C43.1098 20.5702 40.8698 18.9002 37.3498 17.2402C33.8298 15.5802 29.1598 17.0002 29.1598 17.0002C29.1798 16.7502 27.8998 30.8402 22.3698 30.9502C18.7498 31.0302 24.5498 40.1202 24.5498 40.1202Z" stroke="#4E4D47" stroke-miterlimit="10" stroke-linejoin="round"/>
  <path d="M21.2199 27.7301C23.3407 27.7301 25.0599 25.6303 25.0599 23.0401C25.0599 20.4499 23.3407 18.3501 21.2199 18.3501C19.0991 18.3501 17.3799 20.4499 17.3799 23.0401C17.3799 25.6303 19.0991 27.7301 21.2199 27.7301Z" stroke="#4E4D47" stroke-miterlimit="10" stroke-linecap="round"/>
  <path d="M13.3701 14.0399C13.3701 14.0399 11.1501 14.5699 9.40008 14.5199C7.65008 14.4699 2.91009 13.9899 4.25009 19.3899C5.58009 24.7999 10.6801 22.8199 10.6801 22.8199C10.6801 22.8199 19.5601 13.7999 25.0601 12.4899C25.0601 12.4899 28.1401 8.26988 24.8001 6.42988C21.4601 4.58988 19.4601 5.77988 19.4601 5.77988C19.4601 5.77988 17.5501 6.30988 17.3801 8.98988C17.2101 11.6699 15.1701 13.3299 15.1701 13.3299L12.8601 10.4799L11.8301 11.3099L13.3701 14.0399Z" fill="#4E4D47"/>
  <path d="M21.31 26.2199C21.8954 26.2199 22.37 25.4722 22.37 24.5499C22.37 23.6276 21.8954 22.8799 21.31 22.8799C20.7246 22.8799 20.25 23.6276 20.25 24.5499C20.25 25.4722 20.7246 26.2199 21.31 26.2199Z" fill="#4E4D47"/>
  <path d="M19.1299 30.1402C19.1299 30.1402 24.6699 33.1002 26.9499 26.6602" stroke="#4E4D47" stroke-miterlimit="10" stroke-linecap="round"/>
  <path d="M15.5201 24.3099C15.5201 24.3099 15.1901 20.5199 17.3801 18.3499C19.5801 16.1799 23.0301 16.4399 23.0301 16.4399" stroke="#4E4D47" stroke-miterlimit="10" stroke-linecap="round"/>
  <path d="M32.9199 24.3398C32.9199 24.3398 39.3499 24.8198 42.1999 30.1098" stroke="#4E4D47" stroke-miterlimit="10" stroke-linecap="round"/>
  <path d="M32.1899 41.6499C32.1899 41.6499 33.6199 39.7799 32.9199 32.4599C32.9199 32.4599 30.0799 33.4399 27.8499 32.7199C25.6299 31.9999 23.9399 30.8599 23.9399 30.8599C23.9399 30.8599 26.2899 37.4499 32.1899 41.6499Z" fill="#4E4D47"/>
  <path d="M24 2C36.13 2 46 11.87 46 24C46 36.13 36.13 46 24 46C11.87 46 2 36.13 2 24C2 11.87 11.87 2 24 2ZM24 0C10.75 0 0 10.75 0 24C0 37.25 10.75 48 24 48C37.25 48 48 37.25 48 24C48 10.75 37.26 0 24 0Z" fill="#4E4D47"/>
</svg>