<svg
        width="24"
        height="20"
        viewBox="0 0 24 20"
        fill="none"
        xmlns="http://www.w3.org/2000/svg"
>
    <path
            fill-rule="evenodd"
            clip-rule="evenodd"
            d="M0.5 2.5C0.5 1.39543 1.39543 0.5 2.5 0.5H21.5C22.6046 0.5 23.5 1.39543 23.5 2.5V17.5C23.5 18.6046 22.6046 19.5 21.5 19.5H2.5C1.39543 19.5 0.5 18.6046 0.5 17.5V2.5Z"
            stroke="white"
            stroke-linecap="round"
            stroke-linejoin="round"
    />
    <path
            d="M0.5 5.5H23.5"
            stroke="white"
            stroke-linecap="round"
            stroke-linejoin="round"
    />
    <path
            d="M4 2.75C4.13807 2.75 4.25 2.86193 4.25 3C4.25 3.13807 4.13807 3.25 4 3.25C3.86193 3.25 3.75 3.13807 3.75 3C3.75 2.86193 3.86193 2.75 4 2.75"
            stroke="white"
            stroke-linecap="round"
            stroke-linejoin="round"
    />
    <path
            d="M7 2.75C7.13807 2.75 7.25 2.86193 7.25 3C7.25 3.13807 7.13807 3.25 7 3.25C6.86193 3.25 6.75 3.13807 6.75 3C6.75 2.86193 6.86193 2.75 7 2.75"
            stroke="white"
            stroke-linecap="round"
            stroke-linejoin="round"
    />
    <path
            d="M10 2.75C10.1381 2.75 10.25 2.86193 10.25 3C10.25 3.13807 10.1381 3.25 10 3.25C9.86193 3.25 9.75 3.13807 9.75 3C9.75 2.86193 9.86193 2.75 10 2.75"
            stroke="white"
            stroke-linecap="round"
            stroke-linejoin="round"
    />
    <path
            d="M9.5 14.5V9.5"
            stroke="white"
            stroke-linecap="round"
            stroke-linejoin="round"
    />
    <path
            d="M8.5 9.5H10.5"
            stroke="white"
            stroke-linecap="round"
            stroke-linejoin="round"
    />
    <path
            d="M4.5 14.5V9.5"
            stroke="white"
            stroke-linecap="round"
            stroke-linejoin="round"
    />
    <path
            d="M6.5 14.5V9.5"
            stroke="white"
            stroke-linecap="round"
            stroke-linejoin="round"
    />
    <path
            d="M4.5 12.5H6.5"
            stroke="white"
            stroke-linecap="round"
            stroke-linejoin="round"
    />
    <path
            d="M17.5 9.5V13.5C17.5 14.0523 17.9477 14.5 18.5 14.5H19.5"
            stroke="white"
            stroke-linecap="round"
            stroke-linejoin="round"
    />
    <path
            d="M15.5 14.5V9.5L14 12L12.5 9.5V14.5"
            stroke="white"
            stroke-linecap="round"
            stroke-linejoin="round"
    />
</svg>
