<svg
        width="25"
        height="24"
        viewBox="0 0 25 24"
        fill="none"
        xmlns="http://www.w3.org/2000/svg"
>
    <g clipPath="url(#clip0)">
        <path
                d="M18.0171 23.505C21.3308 23.505 24.0171 20.8187 24.0171 17.505C24.0171 14.1913 21.3308 11.505 18.0171 11.505C14.7034 11.505 12.0171 14.1913 12.0171 17.505C12.0171 20.8187 14.7034 23.505 18.0171 23.505Z"
                stroke="#22211D"
                stroke-linecap="round"
                stroke-linejoin="round"
        />
        <path
                d="M18.0171 14.505V20.505"
                stroke="#22211D"
                stroke-linecap="round"
                stroke-linejoin="round"
        />
        <path
                d="M18.0171 20.505L15.7671 18.255"
                stroke="#22211D"
                stroke-linecap="round"
                stroke-linejoin="round"
        />
        <path
                d="M18.0171 20.505L20.2671 18.255"
                stroke="#22211D"
                stroke-linecap="round"
                stroke-linejoin="round"
        />
        <path
                d="M1.01611 4.504H21.0161"
                stroke="#22211D"
                stroke-linecap="round"
                stroke-linejoin="round"
        />
        <path
                d="M4.01611 2.254C3.96667 2.254 3.91833 2.26866 3.87722 2.29613C3.83611 2.3236 3.80407 2.36265 3.78514 2.40833C3.76622 2.45401 3.76127 2.50428 3.77092 2.55277C3.78056 2.60127 3.80437 2.64581 3.83934 2.68077C3.8743 2.71574 3.91885 2.73955 3.96734 2.74919C4.01584 2.75884 4.0661 2.75389 4.11178 2.73497C4.15747 2.71605 4.19651 2.684 4.22398 2.64289C4.25145 2.60178 4.26611 2.55344 4.26611 2.504C4.26611 2.43769 4.23977 2.37411 4.19289 2.32722C4.14601 2.28034 4.08242 2.254 4.01611 2.254Z"
                stroke="#22211D"
                stroke-linecap="round"
                stroke-linejoin="round"
        />
        <path
                d="M6.01611 2.254C5.96667 2.254 5.91833 2.26866 5.87722 2.29613C5.83611 2.3236 5.80407 2.36265 5.78514 2.40833C5.76622 2.45401 5.76127 2.50428 5.77092 2.55277C5.78056 2.60127 5.80437 2.64581 5.83934 2.68077C5.8743 2.71574 5.91885 2.73955 5.96734 2.74919C6.01584 2.75884 6.0661 2.75389 6.11178 2.73497C6.15747 2.71605 6.19651 2.684 6.22398 2.64289C6.25145 2.60178 6.26611 2.55344 6.26611 2.504C6.26611 2.43769 6.23977 2.37411 6.19289 2.32722C6.14601 2.28034 6.08242 2.254 6.01611 2.254Z"
                stroke="#22211D"
                stroke-linecap="round"
                stroke-linejoin="round"
        />
        <path
                d="M8.01611 2.254C7.96667 2.254 7.91833 2.26866 7.87722 2.29613C7.83611 2.3236 7.80407 2.36265 7.78514 2.40833C7.76622 2.45401 7.76127 2.50428 7.77092 2.55277C7.78056 2.60127 7.80437 2.64581 7.83934 2.68077C7.8743 2.71574 7.91885 2.73955 7.96734 2.74919C8.01584 2.75884 8.0661 2.75389 8.11178 2.73497C8.15747 2.71605 8.19651 2.684 8.22398 2.64289C8.25145 2.60178 8.26611 2.55344 8.26611 2.504C8.26611 2.43769 8.23977 2.37411 8.19289 2.32722C8.14601 2.28034 8.08242 2.254 8.01611 2.254Z"
                stroke="#22211D"
                stroke-linecap="round"
                stroke-linejoin="round"
        />
        <path
                d="M9.01611 16.5H3.01611C2.48568 16.5 1.97697 16.2893 1.6019 15.9142C1.22683 15.5391 1.01611 15.0304 1.01611 14.5V2.5C1.01611 1.96957 1.22683 1.46086 1.6019 1.08579C1.97697 0.710714 2.48568 0.5 3.01611 0.5H19.0161C19.5465 0.5 20.0553 0.710714 20.4303 1.08579C20.8054 1.46086 21.0161 1.96957 21.0161 2.5V8.5"
                stroke="#22211D"
                stroke-linecap="round"
                stroke-linejoin="round"
        />
    </g>
    <defs>
        <clipPath id="clip0">
            <rect
                    width="24"
                    height="24"
                    fill="white"
                    transform="translate(0.5)"
            />
        </clipPath>
    </defs>
</svg>
