<svg
        width="24"
        height="24"
        viewBox="0 0 24 24"
        fill="none"
        xmlns="http://www.w3.org/2000/svg"
>
    <path
            d="M17.5 0.5H6.5C3.18629 0.5 0.5 3.18629 0.5 6.5V17.5C0.5 20.8137 3.18629 23.5 6.5 23.5H17.5C20.8137 23.5 23.5 20.8137 23.5 17.5V6.5C23.5 3.18629 20.8137 0.5 17.5 0.5Z"
            stroke="#22211D"
            strokeLinecap="round"
            strokeLinejoin="round"
    />
    <path
            d="M12 18C15.3137 18 18 15.3137 18 12C18 8.68629 15.3137 6 12 6C8.68629 6 6 8.68629 6 12C6 15.3137 8.68629 18 12 18Z"
            stroke="#22211D"
            strokeLinecap="round"
            strokeLinejoin="round"
    />
    <path
            d="M19 6.5C19.8284 6.5 20.5 5.82843 20.5 5C20.5 4.17157 19.8284 3.5 19 3.5C18.1716 3.5 17.5 4.17157 17.5 5C17.5 5.82843 18.1716 6.5 19 6.5Z"
            stroke="#22211D"
            strokeLinecap="round"
            strokeLinejoin="round"
    />
</svg>
