<svg
        xmlns="http://www.w3.org/2000/svg"
        width="24"
        height="24"
        viewBox="0 0 24 24"
>
    <g
            fill="none"
            fillRule="evenodd"
            stroke="#000"
            strokeLinecap="round"
            strokeLinejoin="round"
            strokeWidth="1.5"
    >
        <path d="M2.783 21L21.533 3M8.964 19.051C9.94681456 19.3562275 10.9709085 19.5076828 12 19.5 16.1 19.569 20.258 16.687 22.824 13.863 23.3938167 13.2303973 23.3938167 12.2696027 22.824 11.637 21.8944103 10.6172104 20.8645551 9.69355691 19.75 8.88M14.413 6.282C13.6239535 6.08564827 12.8130592 5.99088151 12 6 7.969 5.933 3.8 8.752 1.179 11.635.609183316 12.2676027.609183316 13.2283973 1.179 13.861 1.97592454 14.7333975 2.84573761 15.5363019 3.779 16.261" />
        <path d="M8.24999987 12.75C8.24973466 11.7553568 8.6447376 10.8013755 9.34805654 10.0980565 10.0513755 9.3947376 11.0053568 8.99973466 12 8.99999987M15.7500001 12.749C15.7502653 13.7437351 15.3552942 14.6978192 14.652004 15.4012969 13.9487139 16.1047746 12.9947351 16.5 12 16.5" />
    </g>
</svg>
