<svg
        width="24px"
        height="24px"
        viewBox="0 0 24 24"
        version="1.1"
        xmlns="http://www.w3.org/2000/svg"
>
    <g stroke="none" stroke-width="1" fill="none" fill-rule="evenodd">
        <g transform="translate(2.000000, 0.000000)">
            <g stroke-linecap="round" stroke-linejoin="round" stroke="#888579">
                <path d="M19.207,4.5 C19.3945494,4.68749273 19.4999434,4.94180519 19.5,5.207 L19.5,22.5 C19.5,23.0522847 19.0522847,23.5 18.5,23.5 L1.5,23.5 C0.94771525,23.5 0.5,23.0522847 0.5,22.5 L0.5,1.5 C0.5,0.94771525 0.94771525,0.5 1.5,0.5 L14.793,0.5 C15.0581948,0.500056637 15.3125073,0.605450625 15.5,0.793 L19.207,4.5 Z"></path>
            </g>
            <path
                    d="M3,10 L4,10 L4,14 L6,14 L6,15 L3,15 L3,10 Z M7,10 L8,10 L8,15 L7,15 L7,10 Z M10,10.0044769 L11,13.792 L12,10.0049192 L13,10 L11.5,15 L10.5,15 L9,10 L10,10.0044769 Z M14,10 L17,10 L17,11 L15,11 L15,12 L17,12 L17,13 L15,13 L15,14 L17,14 L17,15 L14,15 L14,10 Z"
                    fill="#E31F2B"
                    fill-rule="nonzero"
            ></path>
        </g>
    </g>
</svg>
