<svg width="24" height="24" viewBox="0 0 24 24" fill="none" xmlns="http://www.w3.org/2000/svg">
    <g clip-path="url(#clip0_1417_19809)">
        <path d="M12 18.03C13.1046 18.03 14 17.1346 14 16.03C14 14.9255 13.1046 14.03 12 14.03C10.8954 14.03 10 14.9255 10 16.03C10 17.1346 10.8954 18.03 12 18.03Z" stroke="#B9B7AC" stroke-linecap="round" stroke-linejoin="round"/>
        <path d="M20.5 13.53C20.5 12.4692 20.0786 11.4517 19.3284 10.7016C18.5783 9.95146 17.5609 9.53003 16.5 9.53003H7.5C6.43913 9.53003 5.42172 9.95146 4.67157 10.7016C3.92143 11.4517 3.5 12.4692 3.5 13.53V19.53C3.5 20.5909 3.92143 21.6083 4.67157 22.3585C5.42172 23.1086 6.43913 23.53 7.5 23.53H16.5C17.5609 23.53 18.5783 23.1086 19.3284 22.3585C20.0786 21.6083 20.5 20.5909 20.5 19.53V13.53Z" stroke="#B9B7AC" stroke-linecap="round" stroke-linejoin="round"/>
        <path d="M6.5 9.65603V6.03003C6.5 4.57134 7.07946 3.17239 8.11091 2.14094C9.14236 1.10949 10.5413 0.530029 12 0.530029C13.4587 0.530029 14.8576 1.10949 15.8891 2.14094C16.9205 3.17239 17.5 4.57134 17.5 6.03003V9.65603" stroke="#B9B7AC" stroke-linecap="round" stroke-linejoin="round"/>
    </g>
    <defs>
        <clipPath id="clip0_1417_19809">
            <rect width="24" height="24" fill="white"/>
        </clipPath>
    </defs>
</svg>
