<svg width="24" height="24" viewBox="0 0 24 24" fill="none" xmlns="http://www.w3.org/2000/svg">
    <path d="M12 18.03C13.1046 18.03 14 17.1346 14 16.03C14 14.9254 13.1046 14.03 12 14.03C10.8954 14.03 10 14.9254 10 16.03C10 17.1346 10.8954 18.03 12 18.03Z" stroke="white" stroke-linecap="round" stroke-linejoin="round"/>
    <path d="M20.5 13.53C20.5 12.4691 20.0786 11.4517 19.3284 10.7016C18.5783 9.95143 17.5609 9.53 16.5 9.53H7.5C6.43913 9.53 5.42172 9.95143 4.67157 10.7016C3.92143 11.4517 3.5 12.4691 3.5 13.53V19.53C3.5 20.5909 3.92143 21.6083 4.67157 22.3584C5.42172 23.1086 6.43913 23.53 7.5 23.53H16.5C17.5609 23.53 18.5783 23.1086 19.3284 22.3584C20.0786 21.6083 20.5 20.5909 20.5 19.53V13.53Z" stroke="white" stroke-linecap="round" stroke-linejoin="round"/>
    <path d="M6.5 9.656V6.03C6.5 4.57131 7.07946 3.17236 8.11091 2.14091C9.14236 1.10946 10.5413 0.529999 12 0.529999C13.4587 0.529999 14.8576 1.10946 15.8891 2.14091C16.9205 3.17236 17.5 4.57131 17.5 6.03V9.656" stroke="white" stroke-linecap="round" stroke-linejoin="round"/>
</svg>
