<svg
        width="24px"
        height="24px"
        viewBox="0 0 24 24"
        version="1.1"
        xmlns="http://www.w3.org/2000/svg"
>
    <g stroke="none" strokeWidth="1" fill="none" fillRule="evenodd">
        <g
                transform="translate(2.000000, 0.000000)"
                fill="#888579"
                fillRule="nonzero"
        >
            <path d="M19.414,4.914 L15.086,0.586 C14.7110145,0.21090125 14.2023896,0.000113274811 13.672,0 L2,0 C0.8954305,-6.76353751e-17 0,0.8954305 0,2 L0,22 C0,23.1045695 0.8954305,24 2,24 L18,24 C19.1045695,24 20,23.1045695 20,22 L20,6.328 C19.9998867,5.79761037 19.7890987,5.28898546 19.414,4.914 Z M9,19.5 L4.5,19.5 C3.94771525,19.5 3.5,19.0522847 3.5,18.5 C3.5,17.9477153 3.94771525,17.5 4.5,17.5 L9,17.5 C9.55228475,17.5 10,17.9477153 10,18.5 C10,19.0522847 9.55228475,19.5 9,19.5 Z M13.5,15.5 L4.5,15.5 C3.94771525,15.5 3.5,15.0522847 3.5,14.5 C3.5,13.9477153 3.94771525,13.5 4.5,13.5 L13.5,13.5 C14.0522847,13.5 14.5,13.9477153 14.5,14.5 C14.5,15.0522847 14.0522847,15.5 13.5,15.5 Z M13.5,11.5 L4.5,11.5 C3.94771525,11.5 3.5,11.0522847 3.5,10.5 C3.5,9.94771525 3.94771525,9.5 4.5,9.5 L13.5,9.5 C14.0522847,9.5 14.5,9.94771525 14.5,10.5 C14.5,11.0522847 14.0522847,11.5 13.5,11.5 Z"></path>
        </g>
    </g>
</svg>
