<svg width="25" height="24" viewBox="0 0 25 24" fill="none" xmlns="http://www.w3.org/2000/svg">
    <g clip-path="url(#clip0_1417_67963)">
        <path d="M8 6.8999V15.5549C7.99997 16.8952 8.37447 18.2088 9.08124 19.3476C9.78802 20.4864 10.7989 21.405 12 21.9999" stroke="white" stroke-linecap="round" stroke-linejoin="round"/>
        <path d="M22 4.48383C22 4.31584 21.9577 4.15056 21.8769 4.00325C21.7962 3.85594 21.6796 3.73134 21.538 3.64096C21.3964 3.55058 21.2343 3.49732 21.0667 3.48612C20.8991 3.47491 20.7314 3.5061 20.579 3.57683C16.744 5.35583 12.956 6.96383 5 6.99983H4C3.20435 6.99983 2.44129 7.3159 1.87868 7.87851C1.31607 8.44112 1 9.20418 1 9.99983V11.9998C1 12.7955 1.31607 13.5585 1.87868 14.1211C2.44129 14.6838 3.20435 14.9998 4 14.9998H5C12.956 15.0358 16.744 16.6438 20.579 18.4228C20.7314 18.4935 20.8991 18.5247 21.0667 18.5135C21.2343 18.5023 21.3964 18.4491 21.538 18.3587C21.6796 18.2683 21.7962 18.1437 21.8769 17.9964C21.9577 17.8491 22 17.6838 22 17.5158V4.48383Z" stroke="white" stroke-linecap="round" stroke-linejoin="round"/>
        <path d="M22 9H22.5C22.8978 9 23.2794 9.15804 23.5607 9.43934C23.842 9.72064 24 10.1022 24 10.5V11.5C24 11.8978 23.842 12.2794 23.5607 12.5607C23.2794 12.842 22.8978 13 22.5 13H22" stroke="white" stroke-linecap="round" stroke-linejoin="round"/>
    </g>
    <defs>
        <clipPath id="clip0_1417_67963">
            <rect width="24" height="24" fill="white" transform="translate(0.5)"/>
        </clipPath>
    </defs>
</svg>
