<svg width="24" height="24" viewBox="0 0 24 24" fill="none" xmlns="http://www.w3.org/2000/svg">
    <path d="M7.5 6.89999V15.555C7.49997 16.8953 7.87447 18.2089 8.58124 19.3477C9.28802 20.4865 10.2989 21.4051 11.5 22" stroke="white" stroke-linecap="round" stroke-linejoin="round"/>
    <path d="M21.5 4.48401C21.5 4.31602 21.4577 4.15074 21.3769 4.00343C21.2962 3.85612 21.1796 3.73152 21.038 3.64114C20.8964 3.55076 20.7343 3.49751 20.5667 3.4863C20.3991 3.47509 20.2314 3.50629 20.079 3.57701C16.244 5.35601 12.456 6.96401 4.5 7.00001H3.5C2.70435 7.00001 1.94129 7.31608 1.37868 7.87869C0.81607 8.4413 0.5 9.20436 0.5 10V12C0.5 12.7957 0.81607 13.5587 1.37868 14.1213C1.94129 14.6839 2.70435 15 3.5 15H4.5C12.456 15.036 16.244 16.644 20.079 18.423C20.2314 18.4937 20.3991 18.5249 20.5667 18.5137C20.7343 18.5025 20.8964 18.4493 21.038 18.3589C21.1796 18.2685 21.2962 18.1439 21.3769 17.9966C21.4577 17.8493 21.5 17.684 21.5 17.516V4.48401Z" stroke="white" stroke-linecap="round" stroke-linejoin="round"/>
    <path d="M21.5 9H22C22.3978 9 22.7794 9.15804 23.0607 9.43934C23.342 9.72064 23.5 10.1022 23.5 10.5V11.5C23.5 11.8978 23.342 12.2794 23.0607 12.5607C22.7794 12.842 22.3978 13 22 13H21.5" stroke="white" stroke-linecap="round" stroke-linejoin="round"/>
</svg>