<svg
        width="40"
        height="40"
        viewBox="0 0 40 40"
        fill="none"
        xmlns="http://www.w3.org/2000/svg"
>
    <path
            d="M28.3333 17.5004C31.555 17.5004 34.1667 14.8887 34.1667 11.6671C34.1667 8.44541 31.555 5.83374 28.3333 5.83374C25.1117 5.83374 22.5 8.44541 22.5 11.6671C22.5 14.8887 25.1117 17.5004 28.3333 17.5004Z"
            stroke="#6B6960"
            strokeWidth="1.5"
            strokeLinecap="round"
            strokeLinejoin="round"
    />
    <path
            d="M5.83337 34.1663L9.50004 29.0279C9.56451 28.9377 9.64635 28.8612 9.74076 28.803C9.83517 28.7448 9.94025 28.706 10.0498 28.6889C10.1594 28.6718 10.2713 28.6768 10.379 28.7036C10.4866 28.7303 10.5878 28.7782 10.6767 28.8446L12.6667 30.3329C12.8435 30.4655 13.0658 30.5225 13.2846 30.4912C13.5034 30.46 13.7008 30.3431 13.8334 30.1663L18.3334 24.1663"
            stroke="#6B6960"
            strokeWidth="1.5"
            strokeLinecap="round"
            strokeLinejoin="round"
    />
    <path
            d="M29.585 5.96802L28.3334 11.6664L34.1234 10.958"
            stroke="#6B6960"
            strokeWidth="1.66667"
            strokeLinecap="round"
            strokeLinejoin="round"
    />
    <path
            d="M33.3333 22.5H25C24.5397 22.5 24.1666 22.8731 24.1666 23.3333V33.3333C24.1666 33.7936 24.5397 34.1667 25 34.1667H33.3333C33.7935 34.1667 34.1666 33.7936 34.1666 33.3333V23.3333C34.1666 22.8731 33.7935 22.5 33.3333 22.5Z"
            stroke="#6B6960"
            strokeWidth="1.66667"
            strokeLinecap="round"
            strokeLinejoin="round"
    />
    <path
            d="M27.5 27.5H30.8333"
            stroke="#6B6960"
            strokeWidth="1.66667"
            strokeLinecap="round"
            strokeLinejoin="round"
    />
    <path
            d="M27.5 30.8337H29.1667"
            stroke="#6B6960"
            strokeWidth="1.66667"
            strokeLinecap="round"
            strokeLinejoin="round"
    />
    <path
            d="M15 5.83374H6.66671C6.20647 5.83374 5.83337 6.20684 5.83337 6.66707V16.6671C5.83337 17.1273 6.20647 17.5004 6.66671 17.5004H15C15.4603 17.5004 15.8334 17.1273 15.8334 16.6671V6.66707C15.8334 6.20684 15.4603 5.83374 15 5.83374Z"
            stroke="#6B6960"
            strokeWidth="1.66667"
            strokeLinecap="round"
            strokeLinejoin="round"
    />
    <path
            d="M9.16663 9.16626H12.5"
            stroke="#6B6960"
            strokeWidth="1.66667"
            strokeLinecap="round"
            strokeLinejoin="round"
    />
    <path
            d="M9.16663 12.5H10.8333"
            stroke="#6B6960"
            strokeWidth="1.66667"
            strokeLinecap="round"
            strokeLinejoin="round"
    />
    <path
            d="M37.5 0.83374H2.50004C1.57957 0.83374 0.833374 1.57993 0.833374 2.50041V37.5004C0.833374 38.4209 1.57957 39.1671 2.50004 39.1671H37.5C38.4205 39.1671 39.1667 38.4209 39.1667 37.5004V2.50041C39.1667 1.57993 38.4205 0.83374 37.5 0.83374Z"
            stroke="#6B6960"
            strokeWidth="1.66667"
            strokeLinecap="round"
            strokeLinejoin="round"
    />
</svg>
