<svg width="24" height="24" viewBox="0 0 24 24" fill="none" xmlns="http://www.w3.org/2000/svg">
    <path d="M3.78964 13.2457C5.69841 13.2457 7.24578 11.6983 7.24578 9.78951C7.24578 7.88074 5.69841 6.33337 3.78964 6.33337C1.88086 6.33337 0.333496 7.88074 0.333496 9.78951C0.333496 11.6983 1.88086 13.2457 3.78964 13.2457Z" stroke="#4E4D47" stroke-width="0.75"/>
    <path d="M12.0001 13.2457C13.9089 13.2457 15.4562 11.6983 15.4562 9.78951C15.4562 7.88074 13.9089 6.33337 12.0001 6.33337C10.0913 6.33337 8.54395 7.88074 8.54395 9.78951C8.54395 11.6983 10.0913 13.2457 12.0001 13.2457Z" stroke="#4E4D47" stroke-width="0.75"/>
    <path d="M20.2105 13.2457C22.1193 13.2457 23.6667 11.6983 23.6667 9.78951C23.6667 7.88074 22.1193 6.33337 20.2105 6.33337C18.3018 6.33337 16.7544 7.88074 16.7544 9.78951C16.7544 11.6983 18.3018 13.2457 20.2105 13.2457Z" stroke="#4E4D47" stroke-width="0.75"/>
    <path d="M7.89462 16.7544C9.80339 16.7544 11.3508 15.207 11.3508 13.2982C11.3508 11.3895 9.80339 9.8421 7.89462 9.8421C5.98584 9.8421 4.43848 11.3895 4.43848 13.2982C4.43848 15.207 5.98584 16.7544 7.89462 16.7544Z" stroke="#4E4D47" stroke-width="0.75"/>
    <path d="M16.1051 16.7544C18.0138 16.7544 19.5612 15.207 19.5612 13.2982C19.5612 11.3895 18.0138 9.8421 16.1051 9.8421C14.1963 9.8421 12.6489 11.3895 12.6489 13.2982C12.6489 15.207 14.1963 16.7544 16.1051 16.7544Z" stroke="#4E4D47" stroke-width="0.75"/>
    <path d="M6.55469 7.71576C7.00337 8.314 7.24592 9.04164 7.24592 9.78944C7.24592 10.5372 7.00337 11.2649 6.55469 11.8631" stroke="#4E4D47" stroke-width="0.75"/>
    <path d="M14.7644 7.71576C15.2131 8.314 15.4556 9.04164 15.4556 9.78944C15.4556 10.5372 15.2131 11.2649 14.7644 11.8631M11.9995 13.2456C11.2517 13.2456 10.524 13.003 9.92578 12.5544" stroke="#4E4D47" stroke-width="0.75"/>
    <path d="M20.2104 13.2456C19.4626 13.2456 18.735 13.0031 18.1367 12.5544" stroke="#4E4D47" stroke-width="0.75"/>
</svg>
