<svg
        width="24px"
        height="24px"
        viewBox="0 0 24 24"
        version="1.1"
        xmlns="http://www.w3.org/2000/svg"
>
    <g stroke="none" stroke-width="1" fill="none" fill-rule="evenodd">
        <g transform="translate(2.000000, 0.000000)" stroke="#888579">
            <path d="M19.207,4.5 C19.3945494,4.68749273 19.4999434,4.94180519 19.5,5.207 L19.5,22.5 C19.5,23.0522847 19.0522847,23.5 18.5,23.5 L1.5,23.5 C0.94771525,23.5 0.5,23.0522847 0.5,22.5 L0.5,1.5 C0.5,0.94771525 0.94771525,0.5 1.5,0.5 L14.793,0.5 C15.0581948,0.500056637 15.3125073,0.605450625 15.5,0.793 L19.207,4.5 Z"></path>
            <path d="M15.5,18.5 C15.5,15.4624339 13.0375661,13 10,13 C6.96243388,13 4.5,15.4624339 4.5,18.5 L15.5,18.5 Z"></path>
            <circle id="Oval" cx="9.694" cy="8" r="3.5"></circle>
        </g>
    </g>
</svg>
