<svg
        width="24"
        height="24"
        viewBox="0 0 24 24"
        fill="none"
        xmlns="http://www.w3.org/2000/svg"
>
    <path
            d="M6.5 20.498H23.5"
            stroke="#22211D"
            strokeLinecap="round"
            strokeLinejoin="round"
    />
    <path
            d="M0.5 19.2391C0.635232 18.739 1.13011 18.4249 1.64025 18.5155C2.1504 18.6062 2.50683 19.0714 2.46151 19.5876C2.41619 20.1037 1.98413 20.4998 1.466 20.5001C1.98312 20.5013 2.41404 20.8966 2.45978 21.4117C2.50551 21.9268 2.15098 22.3918 1.64215 22.4841C1.13333 22.5764 0.638074 22.2655 0.5 21.7671"
            stroke="#22211D"
            strokeLinecap="round"
            strokeLinejoin="round"
    />
    <path
            d="M6.5 12.498H23.5"
            stroke="#22211D"
            strokeLinecap="round"
            strokeLinejoin="round"
    />
    <path
            d="M0.5 11.5C0.5 10.9477 0.947715 10.5 1.5 10.5V10.5C1.76522 10.5 2.01957 10.6054 2.20711 10.7929C2.39464 10.9804 2.5 11.2348 2.5 11.5V11.5C2.50002 11.8238 2.39 12.138 2.188 12.391L0.5 14.5H2.5"
            stroke="#22211D"
            strokeLinecap="round"
            strokeLinejoin="round"
    />
    <path
            d="M6.5 4.49805H23.5"
            stroke="#22211D"
            strokeLinecap="round"
            strokeLinejoin="round"
    />
    <path
            d="M0.5 2.5H1C1.27614 2.5 1.5 2.72386 1.5 3V6.5"
            stroke="#22211D"
            strokeLinecap="round"
            strokeLinejoin="round"
    />
    <path
            d="M0.5 6.49805H2.5"
            stroke="#22211D"
            strokeLinecap="round"
            strokeLinejoin="round"
    />
</svg>
