<svg width="24" height="24" viewBox="0 0 24 24" fill="none" xmlns="http://www.w3.org/2000/svg">
<g clip-path="url(#clip0_4310_153809)">
<path d="M12 23.5C18.3513 23.5 23.5 18.3513 23.5 12C23.5 5.64873 18.3513 0.5 12 0.5C5.64873 0.5 0.5 5.64873 0.5 12C0.5 18.3513 5.64873 23.5 12 23.5Z" stroke="#22211D" stroke-linecap="round" stroke-linejoin="round"/>
<path d="M16 9.5C16 10.2956 15.6839 11.0587 15.1213 11.6213C14.5587 12.1839 13.7956 12.5 13 12.5H10V6.5H13C13.7956 6.5 14.5587 6.81607 15.1213 7.37868C15.6839 7.94129 16 8.70435 16 9.5Z" stroke="#22211D" stroke-linecap="round" stroke-linejoin="round"/>
<path d="M10 18.5V12.5" stroke="#22211D" stroke-linecap="round" stroke-linejoin="round"/>
</g>
<defs>
<clipPath id="clip0_4310_153809">
<rect width="24" height="24" fill="white"/>
</clipPath>
</defs>
</svg>
