<svg
        width="40"
        height="40"
        viewBox="0 0 40 40"
        fill="none"
        xmlns="http://www.w3.org/2000/svg"
>
    <path
            fillRule="evenodd"
            clipRule="evenodd"
            d="M19.9999 15.8333C22.9915 15.8333 25.4166 13.4082 25.4166 10.4167C25.4166 7.42512 22.9915 5 19.9999 5C17.0084 5 14.5833 7.42512 14.5833 10.4167C14.5833 13.4082 17.0084 15.8333 19.9999 15.8333Z"
            stroke="#6B6960"
            strokeWidth="1.66667"
            strokeLinecap="round"
            strokeLinejoin="round"
    />
    <path
            fillRule="evenodd"
            clipRule="evenodd"
            d="M19.9999 39.1668C30.5854 39.1668 39.1666 30.5856 39.1666 20.0002C39.1666 9.41471 30.5854 0.833496 19.9999 0.833496C9.41446 0.833496 0.833252 9.41471 0.833252 20.0002C0.833252 30.5856 9.41446 39.1668 19.9999 39.1668Z"
            stroke="#6B6960"
            strokeWidth="1.66667"
            strokeLinecap="round"
            strokeLinejoin="round"
    />
    <path
            d="M23.4083 35.0002L24.1667 30.8335H27.5V25.8335C27.5 21.6914 24.1421 18.3335 20 18.3335C15.8579 18.3335 12.5 21.6914 12.5 25.8335V30.8335H15.8333L16.5917 35.0002"
            stroke="#6B6960"
            strokeWidth="1.66667"
            strokeLinecap="round"
            strokeLinejoin="round"
    />
</svg>
