<svg xmlns="http://www.w3.org/2000/svg" fill="none" viewBox="0 0 60 20">
    <g fill="#fff" fill-rule="evenodd" class="brand-image__color-by-numbers" clip-rule="evenodd">
        <path d="m24.666 5.215-1.944 3.704-1.93-3.704h-2.355l3.136 5.486v4.03h2.185V10.7l3.12-5.486h-2.212Zm-9.502 5.472.988-3.096.955 3.096h-1.943Zm-.019-5.473-3.42 9.517h2.115l.79-2.305h3l.793 2.304h2.199l-3.406-9.516h-2.07Z"/>
        <path d="M7.37 14.731V5.215h2.184v7.663h3.931l-.226 1.853h-5.89ZM2.155 9.86V6.4L5.13 8.13 2.154 9.86ZM5.64 5.68c-.496-.312-1.147-.467-1.95-.467H0v9.518h2.158v-3.663h1.05c.67 0 1.238-.066 1.702-.197.464-.133.84-.322 1.129-.567a2.08 2.08 0 0 0 .624-.912c.128-.363.192-.78.192-1.252a4.03 4.03 0 0 0-.235-1.315c-.156-.452-.482-.833-.979-1.145Z"/>
    </g>
    <path fill="#fff" d="M30 0h30v20H30z"/>
    <path fill="#AF001E" d="M30 0h30v20H30z"/>
    <path fill="#fff" fill-rule="evenodd" d="m33.57 13.324-.174 1.137c-.029.222.073.31.26.34.42.059 1.475.132 2.5.132 2.298 0 3.974-.768 3.974-2.953 0-1.285-.55-2.245-2.457-2.747l-1.069-.28c-.722-.192-1.055-.429-1.055-.975 0-.768.694-.916 1.358-.916.897 0 1.807.074 2.168.104.376.03.476-.015.534-.34l.174-1.108c.03-.221-.072-.31-.26-.339-.42-.06-1.344-.133-2.515-.133-2.384 0-3.54 1.063-3.54 2.747 0 1.52.81 2.422 2.211 2.79l1.07.281c.881.237 1.257.502 1.257 1.064 0 .826-.55.974-1.879.974-.583 0-1.58-.082-1.977-.114l-.045-.004c-.377-.03-.477.015-.535.34ZM52.304 9.16v-2h3.797c.29 0 .377-.103.377-.397V5.73c0-.295-.087-.398-.377-.398h-5.507c-.29 0-.377.103-.377.398v8.672c0 .294.088.397.377.397h1.334c.29 0 .377-.103.377-.398v-3.415h3.449c.29 0 .376-.103.376-.398V9.56c0-.295-.087-.398-.377-.398h-3.449Zm-7.576 1.37.145-.62c.092-.395.192-.415.391-.455.083-.017.182-.037.305-.088.334-.148.668-.384.668-1.134 0-.825-.421-1.149-1.291-1.149h-1.379v7.317c0 .295-.087.398-.377.398h-1.335c-.29 0-.377-.103-.377-.398V5.732c0-.295.087-.398.377-.398h3.236c2.234 0 3.25 1.031 3.25 2.871 0 1.428-.799 2.076-1.51 2.532L48.95 14.3c.232.368-.015.5-.218.5H47.15c-.347 0-.464-.103-.609-.353l-1.726-3.15c-.101-.178-.145-.296-.145-.443 0-.059.014-.147.058-.324Z" clip-rule="evenodd"/>
</svg>
