<svg
        width="40"
        height="40"
        viewBox="0 0 40 40"
        fill="none"
        xmlns="http://www.w3.org/2000/svg"
>
    <g clipPath="url(#clip0)">
        <path
                d="M10.6813 22.4267C7.49423 17.4058 9.00391 10.5439 14.2039 7.36398C19.4039 4.18406 26.1136 5.69034 29.3007 10.8786C31.4813 14.3933 31.4813 18.9121 29.3007 22.4267"
                stroke="#6B6960"
                stroke-width="1.67"
                stroke-linecap="round"
                stroke-linejoin="round"
        />
        <path
                d="M8.16521 27.4476C2.29425 21.0877 2.62973 11.0459 9.17166 5.02078C15.7136 -1.00432 25.6104 -0.502232 31.6491 6.02496C37.1846 12.0501 37.1846 21.4225 31.6491 27.4476"
                stroke="#6B6960"
                stroke-width="1.67"
                stroke-linecap="round"
                stroke-linejoin="round"
        />
        <path
                d="M25.4425 27.7824C25.6103 25.9413 24.2684 24.2677 22.4232 24.1003C22.2555 24.1003 22.2555 24.1003 22.0877 24.1003H17.7264C15.8813 24.1003 14.3716 25.6066 14.3716 27.4476C14.3716 27.615 14.3716 27.615 14.3716 27.7824L15.378 36.1506C15.5458 37.8242 17.0555 39.1631 18.7329 39.1631H21.0813C22.7587 39.1631 24.2684 37.8242 24.4361 36.1506L25.4425 27.7824Z"
                stroke="#6B6960"
                stroke-width="1.67"
                stroke-linecap="round"
                stroke-linejoin="round"
        />
        <path
                d="M19.9072 20.9204C22.2232 20.9204 24.1007 19.0472 24.1007 16.7363C24.1007 14.4255 22.2232 12.5522 19.9072 12.5522C17.5911 12.5522 15.7136 14.4255 15.7136 16.7363C15.7136 19.0472 17.5911 20.9204 19.9072 20.9204Z"
                stroke="#6B6960"
                stroke-width="1.67"
                stroke-linecap="round"
                stroke-linejoin="round"
        />
    </g>
    <defs>
        <clipPath id="clip0">
            <rect width="40" height="40" fill="white" />
        </clipPath>
    </defs>
</svg>
