<svg
        width="40"
        height="40"
        viewBox="0 0 40 40"
        fill="none"
        xmlns="http://www.w3.org/2000/svg"
>
    <path
            d="M14.1667 12.9185C14.1663 11.7395 14.4991 10.5843 15.1269 9.58634C15.7546 8.58835 16.6518 7.78817 17.7147 7.27809C18.7777 6.76802 19.9632 6.56885 21.1345 6.70355C22.3058 6.83824 23.4152 7.30133 24.3346 8.03937C25.254 8.77742 25.9461 9.76036 26.3309 10.8748C26.7158 11.9892 26.7777 13.1898 26.5096 14.3379C26.2415 15.486 25.6543 16.535 24.8157 17.3637C23.9771 18.1925 22.9213 18.7673 21.7701 19.0218C21.3923 19.0963 21.0517 19.2985 20.8053 19.5943C20.5589 19.8902 20.4217 20.2618 20.4167 20.6468V22.5001"
            stroke="#6B6960"
            stroke-width="1.5"
            stroke-linecap="round"
            stroke-linejoin="round"
    />
    <path
            d="M20.4166 25C20.5814 25 20.7425 25.0489 20.8796 25.1404C21.0166 25.232 21.1234 25.3622 21.1865 25.5144C21.2496 25.6667 21.2661 25.8343 21.2339 25.9959C21.2018 26.1576 21.1224 26.306 21.0058 26.4226C20.8893 26.5391 20.7408 26.6185 20.5792 26.6507C20.4175 26.6828 20.25 26.6663 20.0977 26.6032C19.9454 26.5402 19.8153 26.4334 19.7237 26.2963C19.6321 26.1593 19.5833 25.9982 19.5833 25.8333C19.5833 25.6123 19.671 25.4004 19.8273 25.2441C19.9836 25.0878 20.1956 25 20.4166 25Z"
            fill="#6B6960"
    />
    <path
            d="M37.4999 32.5004H9.99992L1.49992 38.6871C1.43801 38.7335 1.36441 38.7618 1.28734 38.7687C1.21027 38.7757 1.13279 38.761 1.06358 38.7264C0.994369 38.6918 0.936162 38.6386 0.895481 38.5728C0.8548 38.507 0.833252 38.4311 0.833252 38.3537V2.50041C0.833252 2.05838 1.00885 1.63446 1.32141 1.3219C1.63397 1.00934 2.05789 0.83374 2.49992 0.83374H37.4999C37.942 0.83374 38.3659 1.00934 38.6784 1.3219C38.991 1.63446 39.1666 2.05838 39.1666 2.50041V30.8337C39.1666 31.2758 38.991 31.6997 38.6784 32.0123C38.3659 32.3248 37.942 32.5004 37.4999 32.5004Z"
            stroke="#6B6960"
            stroke-width="1.66667"
            stroke-linecap="round"
            stroke-linejoin="round"
    />
</svg>
