<svg
        width="24"
        height="24"
        viewBox="0 0 24 24"
        fill="none"
        xmlns="http://www.w3.org/2000/svg"
>
    <path
            d="M21.5 2.50098H2.5C1.39543 2.50098 0.5 3.39641 0.5 4.50098V19.501C0.5 20.6055 1.39543 21.501 2.5 21.501H21.5C22.6046 21.501 23.5 20.6055 23.5 19.501V4.50098C23.5 3.39641 22.6046 2.50098 21.5 2.50098Z"
            stroke="white"
            strokeLinecap="round"
            strokeLinejoin="round"
    />
    <path
            d="M0.5 7.50098H23.5"
            stroke="white"
            strokeLinecap="round"
            strokeLinejoin="round"
    />
    <path
            d="M3.52393 4.75098C3.57337 4.75098 3.62171 4.76564 3.66282 4.79311C3.70393 4.82058 3.73598 4.85963 3.7549 4.90531C3.77382 4.95099 3.77877 5.00126 3.76912 5.04975C3.75948 5.09825 3.73567 5.14279 3.7007 5.17776C3.66574 5.21272 3.6212 5.23653 3.5727 5.24617C3.52421 5.25582 3.47394 5.25087 3.42826 5.23195C3.38258 5.21303 3.34353 5.18098 3.31606 5.13987C3.28859 5.09876 3.27393 5.05042 3.27393 5.00098C3.2738 4.96811 3.28017 4.93554 3.29269 4.90515C3.30521 4.87476 3.32362 4.84715 3.34686 4.82391C3.3701 4.80067 3.39771 4.78226 3.4281 4.76974C3.45849 4.75722 3.49106 4.75085 3.52393 4.75098"
            stroke="white"
            strokeLinecap="round"
            strokeLinejoin="round"
    />
    <path
            d="M6.52393 4.75098C6.57337 4.75098 6.62171 4.76564 6.66282 4.79311C6.70393 4.82058 6.73598 4.85963 6.7549 4.90531C6.77382 4.95099 6.77877 5.00126 6.76912 5.04975C6.75948 5.09825 6.73567 5.14279 6.7007 5.17776C6.66574 5.21272 6.6212 5.23653 6.5727 5.24617C6.5242 5.25582 6.47394 5.25087 6.42826 5.23195C6.38258 5.21303 6.34353 5.18098 6.31606 5.13987C6.28859 5.09876 6.27393 5.05042 6.27393 5.00098C6.2738 4.96811 6.28017 4.93554 6.29269 4.90515C6.30521 4.87476 6.32362 4.84715 6.34686 4.82391C6.3701 4.80067 6.39771 4.78226 6.4281 4.76974C6.45849 4.75722 6.49106 4.75085 6.52393 4.75098"
            stroke="white"
            strokeLinecap="round"
            strokeLinejoin="round"
    />
    <path
            d="M12 15.9885C13.0571 15.9885 13.9141 15.0982 13.9141 13.9999C13.9141 12.9016 13.0571 12.0112 12 12.0112C10.9429 12.0112 10.0859 12.9016 10.0859 13.9999C10.0859 15.0982 10.9429 15.9885 12 15.9885Z"
            stroke="#ffffff"
            strokeLinecap="round"
            strokeLinejoin="round"
    />
    <path
            d="M18.2212 13.8135C17.5852 13.0635 15.0417 10.3066 12 10.3066C8.95826 10.3066 6.41474 13.0635 5.77873 13.8135C5.73548 13.8652 5.71167 13.9313 5.71167 13.9998C5.71167 14.0683 5.73548 14.1345 5.77873 14.1862C6.41474 14.9362 8.95826 17.693 12 17.693C15.0417 17.693 17.5852 14.9362 18.2212 14.1862C18.2645 14.1345 18.2883 14.0683 18.2883 13.9998C18.2883 13.9313 18.2645 13.8652 18.2212 13.8135V13.8135Z"
            stroke="#ffffff"
            strokeLinecap="round"
            strokeLinejoin="round"
    />
</svg>
