<svg
        width="24"
        height="24"
        viewBox="0 0 24 24"
        fill="none"
        xmlns="http://www.w3.org/2000/svg"
>
    <path
            d="M20.4999 13.9071C21.2678 13.5518 21.9143 12.9785 22.3588 12.2586C22.8034 11.5386 23.0263 10.7038 22.9999 9.85811C22.9905 9.22488 22.8536 8.60005 22.5972 8.02095C22.3409 7.44185 21.9704 6.92038 21.508 6.48771C21.0455 6.05504 20.5006 5.72005 19.9057 5.50277C19.3109 5.28549 18.6783 5.19037 18.0459 5.22311C17.4875 4.09896 16.6248 3.15408 15.556 2.49592C14.4871 1.83777 13.2551 1.49275 11.9999 1.50011C10.3187 1.47755 8.69227 2.09696 7.45199 3.23207C6.21171 4.36718 5.45099 5.93254 5.32489 7.60911C4.81042 7.49599 4.27726 7.49843 3.76385 7.61623C3.25043 7.73403 2.76955 7.96427 2.35585 8.29035C1.94215 8.61643 1.60595 9.03023 1.37147 9.50192C1.137 9.97361 1.01009 10.4914 0.999889 11.0181C0.959625 11.7728 1.18895 12.5172 1.64691 13.1184C2.10486 13.7196 2.76162 14.1385 3.49989 14.3001"
            stroke="#ffffff"
            stroke-width="1.2"
            stroke-linecap="round"
            stroke-linejoin="round"
    />
    <path
            d="M15 17L4 17"
            stroke="#ffffff"
            stroke-width="1.2"
            stroke-linecap="round"
            stroke-linejoin="round"
    />
    <path
            d="M12 20L15 17L12 14"
            stroke="#ffffff"
            stroke-width="1.2"
            stroke-linecap="round"
            stroke-linejoin="round"
    />
    <path
            d="M6.5 19.626C7.09001 20.8376 8.07084 21.8153 9.2845 22.4018C10.4982 22.9883 11.874 23.1494 13.1904 22.8591C14.5068 22.5688 15.6871 21.8441 16.5413 20.8017C17.3954 19.7592 17.8737 18.4597 17.8989 17.1125C17.9242 15.7653 17.4951 14.4488 16.6807 13.3751C15.8662 12.3014 14.7139 11.5329 13.4093 11.1935C12.1048 10.8541 10.7238 10.9635 9.48902 11.504C8.25421 12.0446 7.23739 12.9849 6.60233 14.1735"
            stroke="#ffffff"
            stroke-width="1.2"
            stroke-linecap="round"
            stroke-linejoin="round"
    />
</svg>
