<svg
        width="24"
        height="24"
        viewBox="0 0 24 24"
        fill="none"
        xmlns="http://www.w3.org/2000/svg"
>
    <path
            d="M20.4999 13.9071C21.2678 13.5518 21.9143 12.9785 22.3588 12.2586C22.8034 11.5386 23.0263 10.7038 22.9999 9.85811C22.9905 9.22488 22.8536 8.60005 22.5972 8.02095C22.3409 7.44185 21.9704 6.92038 21.508 6.48771C21.0455 6.05504 20.5006 5.72005 19.9057 5.50277C19.3109 5.28549 18.6783 5.19037 18.0459 5.22311C17.4875 4.09896 16.6248 3.15408 15.556 2.49592C14.4871 1.83777 13.2551 1.49275 11.9999 1.50011C10.3187 1.47755 8.69227 2.09696 7.45199 3.23207C6.21171 4.36718 5.45099 5.93254 5.32489 7.60911C4.81042 7.49599 4.27726 7.49843 3.76385 7.61623C3.25043 7.73403 2.76955 7.96427 2.35585 8.29035C1.94215 8.61643 1.60595 9.03023 1.37147 9.50192C1.137 9.97361 1.01009 10.4914 0.999889 11.0181C0.959625 11.7728 1.18895 12.5172 1.64691 13.1184C2.10486 13.7196 2.76162 14.1385 3.49989 14.3001"
            stroke="#ffffff"
            strokeWidth="1.2"
            strokeLinecap="round"
            strokeLinejoin="round"
    />
    <path
            d="M12 22.501C15.3137 22.501 18 19.8147 18 16.501C18 13.1873 15.3137 10.501 12 10.501C8.68629 10.501 6 13.1873 6 16.501C6 19.8147 8.68629 22.501 12 22.501Z"
            stroke="#ffffff"
            strokeWidth="1.2"
            strokeLinecap="round"
            strokeLinejoin="round"
    />
    <path
            d="M14.674 14.7568L11.774 18.6308C11.7095 18.7167 11.6273 18.7878 11.533 18.8391C11.4387 18.8905 11.3344 18.921 11.2273 18.9286C11.1202 18.9362 11.0126 18.9207 10.912 18.8831C10.8114 18.8455 10.72 18.7868 10.644 18.7108L9.14404 17.2108"
            stroke="#ffffff"
            strokeWidth="1.2"
            strokeLinecap="round"
            strokeLinejoin="round"
    />
</svg>