<svg
        xmlns="http://www.w3.org/2000/svg"
        width="24"
        height="24"
        viewBox="0 0 24 24"
        fill="none"
>
    <path
            d="M14.4498 21.5C14.335 22.0651 14.0284 22.5732 13.5819 22.9382C13.1354 23.3031 12.5765 23.5025 11.9998 23.5025C11.4231 23.5025 10.8642 23.3031 10.4177 22.9382C9.97117 22.5732 9.66456 22.0651 9.5498 21.5"
            stroke="#22211D"
            stroke-linecap="round"
            stroke-linejoin="round"
    />
    <path
            d="M4 11.5C4 9.37827 4.84285 7.34344 6.34315 5.84315C7.84344 4.34285 9.87827 3.5 12 3.5C14.1217 3.5 16.1566 4.34285 17.6569 5.84315C19.1571 7.34344 20 9.37827 20 11.5V18C20 18.3978 20.158 18.7794 20.4393 19.0607C20.7206 19.342 21.1022 19.5 21.5 19.5H2.5C2.89782 19.5 3.27936 19.342 3.56066 19.0607C3.84196 18.7794 4 18.3978 4 18V11.5Z"
            stroke="#22211D"
            stroke-linecap="round"
            stroke-linejoin="round"
    />
    <path
            d="M12 0.500977V3.50098"
            stroke="#22211D"
            stroke-linecap="round"
            stroke-linejoin="round"
    />
</svg>
