<svg
        width="24"
        height="24"
        viewBox="0 0 24 24"
        fill="none"
        xmlns="http://www.w3.org/2000/svg"
>
    <path
            d="M12 23.5C18.3513 23.5 23.5 18.3513 23.5 12C23.5 5.64873 18.3513 0.5 12 0.5C5.64873 0.5 0.5 5.64873 0.5 12C0.5 18.3513 5.64873 23.5 12 23.5Z"
            stroke="#4E4D47"
            stroke-linecap="round"
            stroke-linejoin="round"
    />
    <path
            d="M12 18C11.9506 18 11.9022 18.0147 11.8611 18.0421C11.82 18.0696 11.788 18.1086 11.769 18.1543C11.7501 18.2 11.7452 18.2503 11.7548 18.2988C11.7644 18.3473 11.7883 18.3918 11.8232 18.4268C11.8582 18.4617 11.9027 18.4855 11.9512 18.4952C11.9997 18.5048 12.05 18.4999 12.0957 18.481C12.1414 18.462 12.1804 18.43 12.2079 18.3889C12.2353 18.3478 12.25 18.2994 12.25 18.25C12.25 18.1837 12.2237 18.1201 12.1768 18.0732C12.1299 18.0263 12.0663 18 12 18Z"
            fill="#4E4D47"
            stroke="#4E4D47"
            stroke-linecap="round"
            stroke-linejoin="round"
    />
    <path
            d="M8.14272 9.39272C8.14282 8.75848 8.43298 8.26083 8.77926 7.7161C9.12554 7.17137 9.62235 6.72459 10.2171 6.42305C10.8119 6.12151 11.4825 5.97641 12.1579 6.00312C12.8334 6.02983 13.4886 6.22735 14.0542 6.57478C14.6198 6.92221 15.0748 7.40662 15.371 7.97676C15.6672 8.54689 15.7935 9.18154 15.7368 9.81354C15.68 10.4455 15.4421 11.0514 15.0484 11.567C14.6546 12.0825 14.0123 12.3814 13.3927 12.6351C12.9469 12.8176 12.5675 13.1182 12.3011 13.5C12.0346 13.8818 12 14.4355 12 14.8919V15.375"
            stroke="#4E4D47"
            stroke-linecap="round"
            stroke-linejoin="round"
    />
</svg>
