<svg
        width="40"
        height="41"
        viewBox="0 0 40 41"
        fill="none"
        xmlns="http://www.w3.org/2000/svg"
>
    <path
            d="M23.8212 15.511H19.7522L22.0162 13.248"
            stroke="#6B6960"
            strokeWidth="1.5"
            strokeLinecap="round"
            strokeLinejoin="round"
    />
    <path
            d="M17.489 9.1792V13.2482L19.752 10.9842"
            stroke="#6B6960"
            strokeWidth="1.5"
            strokeLinecap="round"
            strokeLinejoin="round"
    />
    <path
            d="M14.4711 8.72144V11.7924C14.4711 12.4932 14.3331 13.187 14.0649 13.8344C13.7967 14.4818 13.4036 15.07 12.9081 15.5654L8.80807 19.6654C8.70886 19.7644 8.63016 19.8821 8.57646 20.0115C8.52276 20.141 8.49512 20.2798 8.49512 20.4199C8.49512 20.5601 8.52276 20.6989 8.57646 20.8283C8.63016 20.9578 8.70886 21.0754 8.80807 21.1744L11.8301 24.1874C11.9291 24.2866 12.0467 24.3653 12.1762 24.419C12.3056 24.4727 12.4444 24.5004 12.5846 24.5004C12.7247 24.5004 12.8635 24.4727 12.993 24.419C13.1224 24.3653 13.2401 24.2866 13.3391 24.1874L17.4391 20.0874C17.9345 19.5919 18.5227 19.1988 19.1701 18.9306C19.8175 18.6624 20.5113 18.5244 21.2121 18.5244H24.2831"
            stroke="#6B6960"
            strokeWidth="1.66667"
            strokeLinecap="round"
            strokeLinejoin="round"
    />
    <path
            d="M29.4871 12.468C30.0538 12.9208 30.5223 13.4845 30.8638 14.1245C31.2053 14.7645 31.4126 15.4675 31.4732 16.1904C31.5338 16.9133 31.4464 17.6409 31.2162 18.3289C30.986 19.0168 30.6179 19.6506 30.1345 20.1914C29.651 20.7323 29.0623 21.1688 28.4044 21.4745C27.7465 21.7801 27.0332 21.9483 26.308 21.9688C25.5829 21.9894 24.8612 21.8619 24.187 21.594C23.5129 21.3261 22.9004 20.9236 22.3871 20.411"
            stroke="#6B6960"
            strokeWidth="1.66667"
            strokeLinecap="round"
            strokeLinejoin="round"
    />
    <path
            d="M12.5702 10.5928C12.0602 10.0778 11.6604 9.46439 11.3953 8.78986C11.1302 8.11532 11.0054 7.39385 11.0283 6.66946C11.0513 5.94507 11.2216 5.23295 11.5288 4.57655C11.8361 3.92016 12.2739 3.33326 12.8155 2.85165C13.3571 2.37005 13.9912 2.00385 14.679 1.7754C15.3668 1.54694 16.0939 1.46103 16.816 1.52289C17.5381 1.58475 18.2401 1.7931 18.879 2.13522C19.5179 2.47733 20.0804 2.94605 20.5322 3.51275"
            stroke="#6B6960"
            strokeWidth="1.66667"
            strokeLinecap="round"
            strokeLinejoin="round"
    />
    <path
            d="M18.9701 4.18519C20.3383 3.38864 21.931 3.06527 23.5015 3.26513C25.0721 3.46499 26.5329 4.17694 27.6581 5.29079C28.7832 6.40464 29.5098 7.85829 29.7255 9.42674C29.9411 10.9952 29.6338 12.591 28.8511 13.9672"
            stroke="#6B6960"
            strokeWidth="1.66667"
            strokeLinecap="round"
            strokeLinejoin="round"
    />
    <path
            d="M16.3334 35.3326V26.9993"
            stroke="#6B6960"
            strokeWidth="1.66667"
            strokeLinecap="round"
            strokeLinejoin="round"
    />
    <path
            d="M14.6667 26.9993H18.0001"
            stroke="#6B6960"
            strokeWidth="1.66667"
            strokeLinecap="round"
            strokeLinejoin="round"
    />
    <path
            d="M8.00012 35.3326V26.9993"
            stroke="#6B6960"
            strokeWidth="1.66667"
            strokeLinecap="round"
            strokeLinejoin="round"
    />
    <path
            d="M11.3334 35.3326V26.9993"
            stroke="#6B6960"
            strokeWidth="1.66667"
            strokeLinecap="round"
            strokeLinejoin="round"
    />
    <path
            d="M8.00012 31.9993H11.3335"
            stroke="#6B6960"
            strokeWidth="1.66667"
            strokeLinecap="round"
            strokeLinejoin="round"
    />
    <path
            d="M29.6667 26.9993V33.6659C29.6667 34.108 29.8423 34.5319 30.1549 34.8444C30.4675 35.157 30.8914 35.3326 31.3334 35.3326H33.0001"
            stroke="#6B6960"
            strokeWidth="1.66667"
            strokeLinecap="round"
            strokeLinejoin="round"
    />
    <path
            d="M26.3334 35.3326V26.9993L23.8334 31.1659L21.3334 26.9993V35.3326"
            stroke="#6B6960"
            strokeWidth="1.66667"
            strokeLinecap="round"
            strokeLinejoin="round"
    />
</svg>
