<svg width="24" height="24" viewBox="0 0 24 24" fill="none" xmlns="http://www.w3.org/2000/svg">
    <path d="M18.25 10.999L13.75 14.499L18.25 17.999" stroke="white" stroke-linecap="round" stroke-linejoin="round"/>
    <path d="M14 14.5H16.9474C18.2874 14.5 19.5726 14.9741 20.5201 15.818C21.4677 16.6619 22 17.8065 22 19V20.5" stroke="white" stroke-linecap="round" stroke-linejoin="round"/>
    <path d="M21.661 11.017C21.716 10.6807 21.7457 10.3407 21.75 10C21.75 5.305 17.05 1.5 11.25 1.5C5.45 1.5 0.75 5.306 0.75 10C0.776308 11.1557 1.06102 12.2909 1.58326 13.3222C2.10549 14.3535 2.852 15.2548 3.768 15.96L1.75 20.5L7.387 17.9C8.63573 18.2992 9.939 18.5017 11.25 18.5C11.8049 18.4967 12.3591 18.4576 12.909 18.383" stroke="white" stroke-linecap="round" stroke-linejoin="round"/>
</svg>
