<svg width="24" height="24" viewBox="0 0 24 24" fill="none" xmlns="http://www.w3.org/2000/svg">
    <path d="M8.25 9.74199C8.24896 9.03441 8.44803 8.34096 8.82422 7.74168C9.20041 7.14239 9.73839 6.66169 10.3761 6.35506C11.0138 6.04844 11.7252 5.92838 12.4282 6.00875C13.1312 6.08912 13.7971 6.36664 14.3491 6.80928C14.9012 7.25192 15.3168 7.84164 15.548 8.51037C15.7792 9.1791 15.8167 9.89958 15.6559 10.5887C15.4952 11.2778 15.1429 11.9073 14.6397 12.4048C14.1365 12.9022 13.5029 13.2472 12.812 13.4C12.5854 13.4447 12.381 13.566 12.2331 13.7435C12.0853 13.921 12.003 14.144 12 14.375V15.488" stroke="white" stroke-linecap="round" stroke-linejoin="round"/>
    <circle cx="12" cy="18" r="0.25" stroke="white" fill="white" />
    <path d="M15.5 1.04328C14.3964 0.691076 13.2204 0.500977 12 0.500977C5.64873 0.500977 0.5 5.6497 0.5 12.001C0.5 18.3523 5.64873 23.501 12 23.501C18.3513 23.501 23.5 18.3523 23.5 12.001C23.5 10.8304 23.3251 9.70063 23 8.63643" stroke="white" stroke-linecap="round" stroke-linejoin="round"/>
    <path fill-rule="evenodd" clip-rule="evenodd" d="M20 8C22.2091 8 24 6.20914 24 4C24 1.79086 22.2091 0 20 0C17.7909 0 16 1.79086 16 4C16 6.20914 17.7909 8 20 8ZM22.368 2.83844C22.555 2.63518 22.5417 2.31887 22.3384 2.13196C22.1352 1.94504 21.8189 1.9583 21.632 2.16156L19.0909 4.92494L18.368 4.13922C18.181 3.93601 17.8647 3.92285 17.6615 4.10982C17.4582 4.29679 17.4451 4.6131 17.6321 4.81631L18.466 5.72268C18.5439 5.80748 18.6388 5.87722 18.7463 5.92569C18.8541 5.9743 18.9713 6 19.0909 6C19.2105 6 19.3277 5.9743 19.4355 5.92569C19.5431 5.8772 19.6382 5.80716 19.7162 5.72231L22.368 2.83844Z" fill="white"/>
</svg>