<svg width="24" height="24" viewBox="0 0 24 24" fill="none" xmlns="http://www.w3.org/2000/svg">
    <path d="M8.875 10.1183C8.87414 9.52868 9.04002 8.95081 9.35351 8.4514C9.66701 7.95199 10.1153 7.55141 10.6467 7.29589C11.1781 7.04037 11.771 6.94032 12.3568 7.0073C12.9426 7.07427 13.4976 7.30554 13.9576 7.6744C14.4176 8.04327 14.764 8.5347 14.9567 9.09198C15.1494 9.64925 15.1805 10.2497 15.0466 10.8239C14.9127 11.3981 14.6191 11.9228 14.1998 12.3373C13.7804 12.7519 13.2524 13.0394 12.6767 13.1667C12.4878 13.2039 12.3175 13.305 12.1943 13.4529C12.0711 13.6009 12.0025 13.7867 12 13.9792V14.9067" stroke="white" stroke-linecap="round" stroke-linejoin="round"/>
    <path d="M12 16.9933C12.0412 16.9933 12.0815 17.0055 12.1158 17.0284C12.15 17.0513 12.1767 17.0838 12.1925 17.1219C12.2083 17.16 12.2124 17.2019 12.2044 17.2423C12.1963 17.2827 12.1765 17.3198 12.1473 17.3489C12.1182 17.3781 12.0811 17.3979 12.0407 17.4059C12.0003 17.414 11.9584 17.4099 11.9203 17.3941C11.8822 17.3783 11.8497 17.3516 11.8268 17.3174C11.8039 17.2831 11.7917 17.2428 11.7917 17.2016C11.7917 17.1464 11.8136 17.0934 11.8527 17.0543C11.8918 17.0152 11.9448 16.9933 12 16.9933Z" fill="white" stroke="white" stroke-linecap="round" stroke-linejoin="round"/>
    <path d="M12 21.5841C17.2927 21.5841 21.5834 17.2935 21.5834 12.0008C21.5834 6.70809 17.2927 2.41748 12 2.41748C6.70729 2.41748 2.41669 6.70809 2.41669 12.0008C2.41669 17.2935 6.70729 21.5841 12 21.5841Z" stroke="white" stroke-linecap="round" stroke-linejoin="round"/>
    <path d="M1 1L23 23" stroke="white" stroke-linecap="round" stroke-linejoin="round"/>
    <path d="M23 1L1 23" stroke="white" stroke-linecap="round" stroke-linejoin="round"/>
</svg>
