<svg width="24" height="24" viewBox="0 0 24 24" fill="none" xmlns="http://www.w3.org/2000/svg">
    <path d="M8.25 9.74199C8.24896 9.03441 8.44803 8.34096 8.82422 7.74168C9.20041 7.14239 9.73839 6.66169 10.3761 6.35506C11.0138 6.04844 11.7252 5.92838 12.4282 6.00875C13.1312 6.08912 13.7971 6.36664 14.3491 6.80928C14.9012 7.25192 15.3168 7.84164 15.548 8.51037C15.7792 9.1791 15.8167 9.89958 15.6559 10.5887C15.4952 11.2778 15.1429 11.9073 14.6397 12.4048C14.1365 12.9022 13.5029 13.2472 12.812 13.4C12.5854 13.4447 12.381 13.566 12.2331 13.7435C12.0853 13.921 12.003 14.144 12 14.375V15.488" stroke="white" stroke-linecap="round" stroke-linejoin="round"/>
    <circle cx="12" cy="18" r="0.25" stroke="white" fill="white" />
    <circle cx="12" cy="12" r="11.5" stroke="white" />
</svg>
