<svg width="24" height="24" viewBox="0 0 24 24" fill="none" xmlns="http://www.w3.org/2000/svg">
    <path d="M8.25 9.7419C8.24896 9.03432 8.44803 8.34087 8.82422 7.74158C9.20041 7.1423 9.73839 6.6616 10.3761 6.35497C11.0138 6.04835 11.7252 5.92829 12.4282 6.00866C13.1312 6.08903 13.7971 6.36655 14.3491 6.80919C14.9012 7.25183 15.3168 7.84154 15.548 8.51028C15.7792 9.17901 15.8167 9.89949 15.6559 10.5886C15.4952 11.2777 15.1429 11.9073 14.6397 12.4047C14.1365 12.9021 13.5029 13.2471 12.812 13.3999C12.5854 13.4446 12.381 13.5659 12.2331 13.7434C12.0853 13.9209 12.003 14.1439 12 14.3749V15.4879" stroke="white" stroke-linecap="round" stroke-linejoin="round"/>
    <path d="M12 17.9919C12.0494 17.9919 12.0978 18.0066 12.1389 18.0341C12.18 18.0615 12.212 18.1006 12.231 18.1463C12.2499 18.192 12.2548 18.2422 12.2452 18.2907C12.2356 18.3392 12.2117 18.3838 12.1768 18.4187C12.1418 18.4537 12.0973 18.4775 12.0488 18.4871C12.0003 18.4968 11.95 18.4918 11.9043 18.4729C11.8586 18.454 11.8196 18.4219 11.7921 18.3808C11.7647 18.3397 11.75 18.2914 11.75 18.2419C11.75 18.1756 11.7763 18.1121 11.8232 18.0652C11.8701 18.0183 11.9337 17.9919 12 17.9919Z" fill="white" stroke="white" stroke-linecap="round" stroke-linejoin="round"/>
    <path d="M12 23.501C18.3513 23.501 23.5 18.3523 23.5 12.001C23.5 5.6497 18.3513 0.500977 12 0.500977C5.64873 0.500977 0.5 5.6497 0.5 12.001C0.5 18.3523 5.64873 23.501 12 23.501Z" stroke="white" stroke-linecap="round" stroke-linejoin="round"/>
</svg>
