<svg
        width="24"
        height="24"
        viewBox="0 0 24 24"
        fill="none"
        xmlns="http://www.w3.org/2000/svg"
>
    <path
            d="M7.75 11.395L10.2 14.876C10.2931 15.0146 10.4179 15.1291 10.564 15.2098C10.7102 15.2905 10.8735 15.3353 11.0404 15.3403C11.2073 15.3452 11.373 15.3103 11.5237 15.2385C11.6744 15.1666 11.8058 15.0598 11.907 14.927L19.75 5"
            stroke="#ffffff"
            stroke-width="1.2"
            stroke-linecap="round"
            stroke-linejoin="round"
    />
    <path
            d="M17.2624 3.49663C15.2227 2.23439 12.7973 1.74733 10.4285 2.12428C8.05964 2.50123 5.90522 3.71708 4.35811 5.55009C2.81101 7.38309 1.97431 9.71112 2.0006 12.1096C2.02689 14.5081 2.91442 16.8172 4.50133 18.6159C6.08824 20.4145 8.2688 21.5829 10.6453 21.9078C13.0218 22.2327 15.436 21.6926 17.4475 20.386C19.459 19.0793 20.9338 17.0932 21.603 14.7898C22.2721 12.4864 22.0911 10.0192 21.0928 7.83819"
            stroke="#ffffff"
            stroke-width="1.2"
            stroke-linecap="round"
            stroke-linejoin="round"
    />
</svg>
