<?xml version="1.0" encoding="utf-8"?>
<svg viewBox="0 0 58 48" fill="none" xmlns="http://www.w3.org/2000/svg">
    <path d="M34 2C46.13 2 56 11.87 56 24C56 36.13 46.13 46 34 46C21.87 46 12 36.13 12 24C12 11.87 21.87 2 34 2ZM34 0C20.75 0 10 10.75 10 24C10 37.25 20.75 48 34 48C47.25 48 58 37.25 58 24C58 10.75 47.25 0 34 0Z" fill="#4E4D47"/>
    <path d="M25.3597 10.0103C26.6697 10.0103 28.1497 10.0503 29.3197 10.1303C31.5897 10.2903 33.8497 10.6103 36.0497 11.1603C37.0997 11.4203 38.1297 11.7303 39.1397 12.1003C42.1297 13.2003 45.2797 14.9003 46.0697 17.9903C46.2997 18.8903 46.3297 19.8203 46.2897 20.7403C46.1997 22.5203 45.9597 24.0103 45.1797 25.6603C44.4097 27.2903 43.4297 28.8403 42.4497 30.3703C41.9197 31.1903 41.3697 32.0003 40.8097 32.8003C39.9997 33.9403 39.6597 35.1203 39.5297 36.4603C39.4697 37.1303 39.4597 37.8103 39.3697 38.4703C39.2697 39.2103 39.2597 46.1203 38.4797 46.4303C37.5997 46.7703 35.9897 46.9203 35.0897 46.6503C33.7797 46.2603 34.0897 38.3603 34.3297 37.4003C35.1497 34.0503 35.8297 29.0003 32.8797 26.3203C31.5497 25.1203 29.8597 24.3403 28.3797 23.3103C26.6597 22.1103 25.0797 20.7303 23.7497 19.1703C22.7397 17.9803 21.8397 16.1703 20.9697 14.8003" stroke="#4E4D47" stroke-miterlimit="10"/>
    <path d="M35.1797 18.1104C34.1997 18.9704 32.2897 18.6004 30.9197 17.2804C29.5497 15.9604 29.2297 14.1904 30.1997 13.3304C31.1797 12.4704 33.0897 12.8404 34.4597 14.1604C35.8397 15.4804 36.1597 17.2504 35.1797 18.1104Z" stroke="#4E4D47" stroke-miterlimit="10"/>
    <path d="M35.6197 18.1502C34.9297 18.7602 33.7897 18.7002 33.0797 18.0202C32.3697 17.3402 32.3597 16.2902 33.0497 15.6802C33.7397 15.0702 34.8797 15.1302 35.5897 15.8102C36.2997 16.5002 36.3097 17.5502 35.6197 18.1502Z" fill="#4E4D47"/>
    <path d="M36.4199 37.1401C36.6799 37.1801 36.9499 37.1301 37.1999 37.0401C38.3899 36.6201 42.0299 35.3501 42.9699 35.3501C44.0999 35.3501 44.6099 38.7701 44.0099 40.0501C43.3999 41.3201 42.0199 41.0801 42.0199 41.0801L36.8499 38.7401C36.5499 38.6001 36.2199 38.5501 35.8899 38.5901L29.8099 39.3301C29.8099 39.3301 27.4699 39.1701 28.3399 36.8601C29.2099 34.5501 29.6399 35.0301 30.7599 35.3501C31.8099 35.6501 34.6299 36.9001 36.4199 37.1401Z" fill="#4E4D47" stroke="#4E4D47" stroke-miterlimit="10"/>
    <path d="M36.3898 39.2501C37.2679 39.2501 37.9798 38.5919 37.9798 37.7801C37.9798 36.9682 37.2679 36.3101 36.3898 36.3101C35.5117 36.3101 34.7998 36.9682 34.7998 37.7801C34.7998 38.5919 35.5117 39.2501 36.3898 39.2501Z" fill="#4E4D47" stroke="#4E4D47" stroke-miterlimit="10"/>
    <path d="M34.3296 10.7803C36.4096 11.1703 38.8296 12.1903 40.5796 13.3103C41.8996 14.1503 43.1396 15.1703 44.0896 16.3703C44.9896 17.5003 45.7696 18.7603 46.2196 20.1003C46.4696 20.8403 46.6496 21.6203 46.7296 22.3903C46.8796 23.7603 47.0396 25.5903 46.7896 26.9503C46.3596 29.3203 45.8396 31.1703 44.9496 32.7603C48.9096 28.9203 51.0796 20.3803 46.9396 16.2003C45.1896 14.4303 42.9896 13.3503 40.6096 12.4803C39.6696 12.1403 38.7096 11.6103 37.7196 11.4103C37.2896 11.3203 36.8296 11.2003 36.3996 11.1203C35.8696 11.0203 34.8796 10.8703 34.3296 10.7803Z" fill="#4E4D47" stroke="#4E4D47" stroke-miterlimit="10" stroke-linecap="round" stroke-linejoin="round"/>
    <path d="M29.19 14.9402C29.19 14.9402 28.8 17.5102 21.21 14.8902C13.62 12.2702 2 1.00024 2 1.00024C2 1.00024 6.84 0.920238 13.41 3.69024C19.97 6.45024 27.89 11.5902 28.61 12.6602C29.33 13.7302 29.19 14.9402 29.19 14.9402Z" fill="white" stroke="#4E4D47" stroke-miterlimit="10"/>
    <path d="M2 1L27.51 15.77" stroke="#4E4D47" stroke-miterlimit="10" stroke-linecap="round"/>
</svg>
