<svg
        xmlns="http://www.w3.org/2000/svg"
        width="24"
        height="24"
        viewBox="0 0 24 24"
>
    <g
            fill="none"
            fill-rule="evenodd"
            stroke="#4E4D47"
            stroke-linecap="round"
            stroke-linejoin="round"
    >
        <path d="M20.254 13.5H23.5v-3h-3.247c-.21-.867-.551-2.181-1.003-2.922l2.296-2.295-2.83-2.829L16.42 4.75c-.74-.452-2.053-.794-2.92-1.002V.5h-3v3.248c-.867.208-2.181.55-2.921 1.002L5.282 2.454l-2.83 2.829L4.75 7.579c-.452.74-.794 2.054-1.004 2.921H.5v3h3.246c.21.867.552 2.181 1.004 2.921l-2.297 2.297 2.829 2.828 2.296-2.297c.74.453 2.055.795 2.922 1.005V23.5h3v-3.246c.867-.21 2.18-.552 2.92-1.004l2.298 2.296 2.828-2.828-2.296-2.297c.452-.74.794-2.054 1.004-2.921z" />
        <path d="M16.5 12a4.5 4.5 0 1 1-9 0 4.5 4.5 0 0 1 9 0z" />
    </g>
</svg>
