<svg
        width="18"
        height="18"
        viewBox="0 0 18 18"
        fill="none"
        xmlns="http://www.w3.org/2000/svg"
>
    <circle cx="9" cy="9" r="9" fill="#19A067" />
    <path
            fill-rule="evenodd"
            clip-rule="evenodd"
            d="M13.6019 5.20151C14.043 5.53395 14.131 6.16096 13.7985 6.60199L9.59979 12.1722C9.42002 12.4101 9.19132 12.6064 8.92939 12.7482C8.66749 12.8899 8.37831 12.974 8.08137 12.9949C7.78444 13.0158 7.48637 12.973 7.20725 12.8694C6.92809 12.7658 6.67416 12.6037 6.46276 12.3936L4.29474 10.2368C3.9032 9.84732 3.90155 9.21416 4.29105 8.82262C4.68056 8.43108 5.31372 8.42943 5.70526 8.81894L7.87251 10.9749C7.87256 10.975 7.87245 10.9749 7.87251 10.9749C7.88086 10.9832 7.89138 10.99 7.90321 10.9944C7.91513 10.9989 7.92804 11.0007 7.94099 10.9998C7.95393 10.9989 7.96631 10.9953 7.97727 10.9893C7.98813 10.9835 7.99718 10.9756 8.00409 10.9665C8.00414 10.9664 8.00403 10.9666 8.00409 10.9665L12.2015 5.39812C12.5339 4.9571 13.1609 4.86907 13.6019 5.20151Z"
            fill="white"
    />
</svg>
