<svg
        width="24px"
        height="24px"
        viewBox="0 0 24 24"
        version="1.1"
        xmlns="http://www.w3.org/2000/svg"
>
    <g
            stroke="none"
            stroke-width="1"
            fill="none"
            fill-rule="evenodd"
            stroke-linejoin="round"
    >
        <g
                transform="translate(2.000000, 0.000000)"
                stroke="#888579"
                stroke-linecap="round"
        >
            <g>
                <path
                        d="M19.207,4.5 C19.3945494,4.68749273 19.4999434,4.94180519 19.5,5.207 L19.5,22.5 C19.5,23.0522847 19.0522847,23.5 18.5,23.5 L1.5,23.5 C0.94771525,23.5 0.5,23.0522847 0.5,22.5 L0.5,1.5 C0.5,0.94771525 0.94771525,0.5 1.5,0.5 L14.793,0.5 C15.0581948,0.500056637 15.3125073,0.605450625 15.5,0.793 L19.207,4.5 Z"
                        id="Shape"
                ></path>
            </g>
        </g>
        <g transform="translate(5.000000, 7.000000)" stroke="#888579">
            <path
                    d="M5.66666667,2.66666667 C5.66666667,2.66666667 14,1.66666667 14,10 C11.3333333,5 5.66666667,6.66666667 5.66666667,6.66666667 L5.66666667,9.33333333 L0,4.66666667 L5.66666667,0 L5.66666667,2.66666667 L5.66666667,2.66666667 Z"
                    transform="translate(7.000000, 5.000000) scale(-1, 1) translate(-7.000000, -5.000000) "
            ></path>
        </g>
    </g>
</svg>
