<svg
        width="24"
        height="19"
        viewBox="0 0 24 19"
        fill="none"
        xmlns="http://www.w3.org/2000/svg"
>
    <path
            d="M23 3.62823L21 3.12823L22 1.12823L19.536 1.82823C18.8963 1.23141 18.0958 0.834975 17.2334 0.687837C16.371 0.540699 15.4843 0.649302 14.6829 1.00024C13.8815 1.35118 13.2004 1.9291 12.7236 2.66267C12.2468 3.39624 11.9953 4.25335 12 5.12823V6.12823C8.461 6.85823 5.366 4.92823 2.5 1.62823C2 4.29489 2.5 6.29489 4 7.62823L1 7.12823C1.405 9.19723 2.362 10.8282 5 11.1282L2.5 12.1282C3.5 14.1282 5.066 14.4382 7.5 14.6282C5.60692 15.9809 3.32603 16.6827 1 16.6282C13.755 22.2972 21 13.9642 21 6.62823V5.30023L23 3.62823Z"
            stroke="white"
            strokeLinecap="round"
            strokeLinejoin="round"
    />
</svg>
