<svg
        width="24"
        height="24"
        viewBox="0 0 24 24"
        fill="none"
        xmlns="http://www.w3.org/2000/svg"
>
    <path
            fillRule="evenodd"
            clipRule="evenodd"
            d="M12 24C18.6274 24 24 18.6274 24 12C24 5.37258 18.6274 0 12 0C5.37258 0 0 5.37258 0 12C0 18.6274 5.37258 24 12 24ZM12 23C5.92487 23 1 18.0751 1 12C1 5.92487 5.92487 1 12 1C18.0751 1 23 5.92487 23 12C23 18.0751 18.0751 23 12 23ZM9 16.5872C9 16.9648 9.26926 17.1104 9.59932 16.9099L17.0858 12.3657C17.4158 12.1653 17.4158 11.8376 17.0858 11.6372L9.60149 7.0902C9.27143 6.88978 9.00217 7.03464 9.00145 7.41297L9 16.5872Z"
            fill="#22211D"
    />
</svg>
