<svg
        width="24px"
        height="24px"
        viewBox="0 0 24 24"
        version="1.1"
        xmlns="http://www.w3.org/2000/svg"
>
    <g stroke="none" stroke-width="1" fill="none" fill-rule="evenodd">
        <g transform="translate(2.000000, 0.000000)">
            <g stroke-linecap="round" stroke-linejoin="round" stroke="#888579">
                <g>
                    <path
                            d="M15.086,0.5 C15.3511948,0.500056637 15.6055073,0.605450625 15.793,0.793 L19.207,4.207 C19.3945494,4.39449273 19.4999434,4.64880519 19.5,4.914 L19.5,19.5 C19.5,20.0522847 19.0522847,20.5 18.5,20.5 L4.5,20.5 C3.94771525,20.5 3.5,20.0522847 3.5,19.5 L3.5,1.5 C3.5,0.94771525 3.94771525,0.5 4.5,0.5 L15.086,0.5 Z"
                            id="Shape"
                    ></path>
                    <path
                            d="M16.5,20.5 L16.5,22.5 C16.5,23.0522847 16.0522847,23.5 15.5,23.5 L1.5,23.5 C0.94771525,23.5 0.5,23.0522847 0.5,22.5 L0.5,4.5 C0.5,3.94771525 0.94771525,3.5 1.5,3.5 L3.5,3.5"
                            id="Shape"
                    ></path>
                </g>
            </g>
            <g
                    transform="translate(8.500000, 6.500000)"
                    fill="#888579"
                    fill-rule="nonzero"
            >
                <path
                        d="M1.0034309,8.32435067 C0.7261791,8.49270123 0.5,8.37042555 0.5,8.05321767 L0.501216012,0.346897001 C0.501824032,0.0290984014 0.728003132,-0.0925865746 1.00525493,0.0757639854 L7.29206115,3.89525421 C7.56931295,4.06360477 7.56931295,4.3388727 7.29206115,4.50722326 L1.0034309,8.32435067 Z"
                        id="Fill-1"
                ></path>
            </g>
        </g>
    </g>
</svg>
