<svg
        xmlns="http://www.w3.org/2000/svg"
        width="24"
        height="24"
        viewBox="0 0 24 24"
        fill="none"
>
    <path
            d="M22.88 15.1199L15.25 22.7499L11.5 23.4999L12.25 19.7499L19.88 12.1199C20.0763 11.9232 20.3095 11.7672 20.5662 11.6607C20.8229 11.5543 21.0981 11.4995 21.376 11.4995C21.6539 11.4995 21.9291 11.5543 22.1858 11.6607C22.4425 11.7672 22.6757 11.9232 22.872 12.1199L22.88 12.1279C23.0767 12.3242 23.2327 12.5574 23.3391 12.8141C23.4456 13.0708 23.5004 13.346 23.5004 13.6239C23.5004 13.9018 23.4456 14.1769 23.3391 14.4336C23.2327 14.6903 23.0767 14.9235 22.88 15.1199Z"
            stroke="#22211D"
            stroke-linecap="round"
            stroke-linejoin="round"
    />
    <path
            d="M8.5 23.5H1.5C1.23478 23.5 0.98043 23.3946 0.792893 23.2071C0.605357 23.0196 0.5 22.7652 0.5 22.5V1.5C0.5 1.23478 0.605357 0.98043 0.792893 0.792893C0.98043 0.605357 1.23478 0.5 1.5 0.5H14.793C15.0582 0.500057 15.3125 0.605451 15.5 0.793L19.207 4.5C19.3946 4.68749 19.4999 4.9418 19.5 5.207V8"
            stroke="#22211D"
            stroke-linecap="round"
            stroke-linejoin="round"
    />
    <path
            d="M7.636 8.21387C7.51966 8.14902 7.38839 8.11571 7.25521 8.11724C7.12202 8.11877 6.99155 8.1551 6.87674 8.22261C6.76192 8.29012 6.66675 8.38648 6.60067 8.50212C6.53458 8.61777 6.49988 8.74868 6.5 8.88187V14.6179C6.49988 14.7511 6.53458 14.882 6.60067 14.9976C6.66675 15.1133 6.76192 15.2096 6.87674 15.2771C6.99155 15.3446 7.12202 15.381 7.25521 15.3825C7.38839 15.384 7.51966 15.3507 7.636 15.2859L12.607 12.2269C12.7261 12.1606 12.8254 12.0637 12.8945 11.9461C12.9636 11.8286 13.0001 11.6947 13.0001 11.5584C13.0001 11.422 12.9636 11.2882 12.8945 11.1706C12.8254 11.0531 12.7261 10.9562 12.607 10.8899L7.636 8.21387Z"
            stroke="#22211D"
            stroke-linecap="round"
            stroke-linejoin="round"
    />
</svg>
