<svg width="800" height="800" viewBox="0 0 800 800" fill="none" xmlns="http://www.w3.org/2000/svg">
<circle cx="401.5" cy="400.5" r="238.5" stroke="black" stroke-width="10"/>
<path d="M279.385 309.679C277.153 302.375 257.101 273.792 266.511 246.186C273.79 224.833 311.355 300.8 318.006 311.927L310.731 352.39C310.731 352.39 272.673 322.05 265.955 316.988C259.236 311.927 250.845 310.811 250.284 296.759C249.333 272.925 274.355 305.185 279.385 309.679Z" fill="#0B111F"/>
<path d="M268.878 246.992C267.3 246.455 265.723 245.917 264.145 245.379C262.157 250.806 261.208 256.584 261.166 262.328C260.864 279.994 269.566 296.96 275.908 310.742L281.808 306.967C277.257 302.238 272.217 296.033 266.513 290.904C263.411 288.387 261.052 285.434 255.025 284.202C253.413 283.966 250.943 284.445 249.389 285.941C247.805 287.443 247.319 288.885 246.925 290.185C246.251 292.746 246.268 294.766 246.323 296.917C246.471 300.666 247.109 304.772 249.308 308.57C251.479 312.411 255.149 315.001 258.15 316.773C260.181 317.992 262.041 318.989 263.614 320.096C270.417 324.998 277.541 329.906 284.238 335.162C292.483 341.65 300.715 348.151 308.928 354.652L312.705 357.681L313.578 352.902C315.96 339.406 318.343 325.911 320.729 312.416L320.913 311.405L320.38 310.508C308.243 289.076 297.456 266.199 280.856 246.469C278.856 244.37 276.894 242.278 273.761 240.715C272.347 240.012 269.695 239.352 267.524 240.687C266.422 241.358 265.817 242.098 265.251 242.979C264.76 243.774 264.448 244.498 264.145 245.379C265.723 245.917 267.3 246.455 268.878 246.992C269.252 245.861 269.796 245.145 270.068 245.021C270.195 244.955 270.271 244.927 270.535 244.946C270.779 244.964 271.201 245.086 271.619 245.288C273.426 246.167 275.36 248.018 277.102 249.918C292.642 268.588 303.448 291.467 315.631 313.346L315.283 311.437C312.818 324.918 310.352 338.398 307.884 351.878L312.534 350.127C304.358 343.569 296.17 337.012 287.964 330.46C281.273 325.13 275.016 319.358 268.296 313.881C266.244 312.252 264.13 311.039 262.279 309.921C256.532 306.771 254.503 302.956 254.245 296.601C254.169 294.909 254.243 293.327 254.521 292.292C254.644 291.78 254.861 291.559 254.684 291.745C254.603 291.824 254.394 291.939 254.264 291.967C254.128 292 254.1 291.977 254.199 291.986C255.506 292.055 258.944 294.435 261.41 296.65C266.775 301.33 271.163 306.645 276.963 312.39L286.713 321.026L282.862 308.616C275.092 292.39 267.377 278.584 266.868 262.267C266.699 257.095 267.323 251.927 268.878 246.992ZM264.145 245.379L268.878 246.992L264.145 245.379V245.379Z" fill="black"/>
<path d="M390.676 210.741C407.534 208.634 421.969 207.48 442.068 210.74C462.964 214.13 491.229 231.527 498.544 243.497C504.756 253.662 505.133 268.535 504.191 273.994C501.367 305.432 496.285 369.549 498.544 374.52C501.368 380.733 515.486 406.712 512.098 438.903L496.85 415.184C505.886 446.81 498.543 533.217 356.79 539.43L324.599 537.735L330.246 523.052C327.322 522.383 322.834 521.151 318.272 519.514L318.382 520.227C311.045 538.864 280.435 570.039 275.465 572.75C269.253 576.138 262.476 578.397 251.181 572.75C245.382 569.851 263.3 552.767 276.886 540.896C262.022 553.342 240.034 571.545 236.497 573.314C229.72 576.703 218.02 576.013 207.125 568.231C201.771 564.407 235.002 541.68 257.018 527.403C238.298 539.181 211.468 555.778 207.125 556.936C198.654 559.195 181.15 549.997 190.186 542.253C212.341 523.266 268.48 502.797 302.944 471.652C303.054 469.645 303.174 467.589 303.302 465.489C294.479 466.064 280.336 464.484 254.572 458.102C235.71 453.431 269.24 446.251 274.331 441.728C274.331 441.728 246.658 441.868 228.586 434.951C187.359 419.173 234.225 416.319 239.316 414.056C239.316 414.056 205.098 407.207 180.581 377.347C167.598 361.533 216.161 368.875 216.161 368.875C209.951 363.227 172.677 353.062 157.426 299.41C149.238 270.607 192.442 317.484 208.824 320.304C208.776 320.249 199.373 309.583 191.316 299.41C175.21 279.073 157.999 249.501 163.643 227.685C167.741 211.851 188.055 239.841 220.684 271.735C248.559 298.983 283.685 330.309 313.12 353.098C313.182 352.514 313.243 351.937 313.304 351.366C314.81 334.988 317.864 299.208 322.34 277.947C326.858 256.486 345.718 232.526 355.66 225.425C375.427 211.306 381.64 211.871 390.676 210.741Z" fill="#1B1F2A"/>
<path d="M441.489 382C422.99 366.5 440.489 344 440.489 344C477.99 374 494.489 365 494.489 365C502.995 371.684 515.333 418.266 510.489 411C502.49 399 483.989 385.5 482.989 385C482.189 384.6 483.989 406 483.989 406C467.99 384 443.49 367.5 443.49 367.5L441.489 382Z" fill="#0D0F1C" stroke="#0D0F1C"/>
<path d="M446.537 486.904C444.851 491.994 477.461 464.278 479.71 434.865C479.71 434.865 485.333 437.128 489.831 474.46C489.831 474.46 464.531 535.548 358.263 538.942C375.694 530.457 390.311 505.569 390.311 505.569C417.3 502.176 436.979 491.994 449.348 471.631C449.348 471.631 448.223 481.813 446.537 486.904Z" fill="#0D0F1C"/>
<path d="M207.487 567.168C199.585 561.522 302.868 502.981 318.107 500.551C333.347 498.121 347.462 493.776 347.462 493.776L329.401 524.262L318.107 520.31C310.775 538.94 280.184 570.104 275.217 572.813C269.008 576.201 262.235 578.459 250.947 572.813C245.152 569.915 263.06 552.838 276.637 540.971C261.782 553.413 239.807 571.61 236.272 573.378C229.499 576.765 218.375 574.947 207.487 567.168Z" fill="#0D0F1C"/>
<path d="M380.845 249.926C381.411 248.842 382.262 248.046 383.172 247.39C391.949 242.22 402.513 242.834 411.292 245.128C414.057 245.907 416.711 246.955 419.293 248.307C425.5 251.836 432.217 254.417 436.302 260.252C436.974 261.227 437.728 262.383 438.774 263.041C438.176 261.955 438.085 260.833 437.89 259.619C436.502 251.37 429.62 245.777 423.72 241.28C420.716 239.112 417.32 237.473 413.731 236.465C402.267 233.306 388.487 236.232 381.872 246.279C381.248 247.42 380.82 248.699 380.845 249.926Z" fill="black"/>
<path d="M409.101 329.13C389.45 329.158 373.495 310.975 373.466 290.808C373.437 270.64 389.342 254.268 408.993 254.24C428.643 254.211 444.596 270.537 444.625 290.705C444.654 310.873 428.751 329.101 409.101 329.13Z" fill="#4C95CC"/>
<mask id="path-10-inside-1_3489_2600" fill="white">
<path d="M409.101 329.13C389.45 329.158 373.495 310.975 373.466 290.808C373.437 270.64 389.343 254.268 408.993 254.24C428.643 254.211 444.596 270.538 444.625 290.705C444.654 310.873 428.751 329.102 409.101 329.13Z"/>
</mask>
<path d="M409.108 334.13C409.103 330.797 409.098 327.463 409.093 324.13C405.871 323.936 402.745 323.163 399.832 321.885C387.918 316.708 380.241 303.319 380.732 290.797C380.874 275.366 394.257 261.916 409.004 262.24C409.004 262.24 409.004 262.24 409.004 262.24C423.75 261.873 437.172 275.285 437.358 290.716C437.886 303.236 430.247 316.647 418.348 321.858C415.439 323.144 412.316 323.926 409.093 324.13C409.098 327.463 409.103 330.797 409.108 334.13C413.533 334.328 418.026 333.691 422.265 332.287C439.62 326.493 451.538 309.153 451.891 290.695C453.001 267.923 432.841 245.681 408.981 246.24C408.981 246.24 408.981 246.24 408.981 246.24C385.12 245.749 365.024 268.049 366.199 290.818C366.606 309.276 378.574 326.581 395.946 332.325C400.189 333.717 404.683 334.34 409.108 334.13ZM409.093 324.13L409.108 334.13L409.093 324.13Z" fill="black" mask="url(#path-10-inside-1_3489_2600)"/>
<ellipse cx="406.864" cy="293.969" rx="19.1462" ry="21.1099" fill="black"/>
<circle cx="418.646" cy="283.169" r="7.36391" fill="#F8FFFF"/>
<path d="M242.545 438.017C201.189 422.224 213.643 423.324 218.749 421.059L262.938 410.319C277.097 415.971 308.259 419.363 320.155 418.233C341.117 416.241 284.808 433.134 303.16 438.017C320.155 442.539 336.018 440.843 346.215 432.364C356.696 423.649 339.408 454.968 324.683 457.798C311.653 461.757 313.919 472.497 254.438 457.798C235.517 453.122 269.151 445.936 274.258 441.409C274.258 441.409 260.673 444.939 242.545 438.017Z" fill="#090D19"/>
<path d="M402.827 405.153C402.746 404.874 402.565 404.63 402.315 404.478C402.064 404.325 401.765 404.277 401.482 404.343C401.2 404.409 400.953 404.585 400.796 404.833C400.639 405.081 400.585 405.379 400.636 405.666C400.636 405.666 400.636 405.666 400.636 405.666C401.03 407.892 401.306 410.265 401.456 412.529C402.735 433.254 396.325 454.48 382.25 469.109C368.18 483.951 347.69 491.068 326.907 493.824C324.65 494.131 322.324 494.396 319.925 494.616C319.636 494.643 319.362 494.775 319.165 494.992C318.968 495.209 318.864 495.493 318.875 495.784C318.887 496.074 319.013 496.349 319.226 496.55C319.44 496.751 319.723 496.86 320.014 496.864C320.014 496.864 320.014 496.864 320.014 496.864C322.456 496.893 324.838 496.863 327.161 496.776C348.449 496.021 371.054 489.614 386.592 473.25C402.138 457.107 407.826 433.468 404.399 412.185C404.014 409.851 403.486 407.417 402.827 405.153Z" fill="black"/>
<path d="M444.095 426.76C444.006 426.596 443.869 426.457 443.695 426.381C443.522 426.304 443.33 426.294 443.156 426.356C442.982 426.417 442.839 426.546 442.752 426.715C442.666 426.883 442.647 427.078 442.681 427.261C442.681 427.261 442.681 427.261 442.681 427.261C442.775 427.776 442.869 428.305 442.959 428.838C443.734 433.569 444.347 438.267 444.586 442.866C444.75 447.415 444.777 452.127 442.26 455.718C441.974 456.11 441.655 456.48 441.294 456.83C441.159 456.958 441.061 457.127 441.032 457.314C441.003 457.501 441.043 457.69 441.148 457.841C441.253 457.993 441.414 458.099 441.599 458.138C441.784 458.178 441.977 458.146 442.145 458.065C442.145 458.065 442.145 458.065 442.145 458.065C442.677 457.801 443.181 457.484 443.656 457.115C448.029 453.553 448.786 447.597 448.582 442.674C448.317 437.6 446.955 432.731 444.841 428.239C444.602 427.733 444.352 427.236 444.095 426.76Z" fill="black"/>
<path d="M307.96 509.635C307.795 509.471 307.58 509.354 307.345 509.325C307.11 509.296 306.875 509.355 306.69 509.492C306.504 509.63 306.379 509.836 306.337 510.069C306.295 510.303 306.343 510.542 306.452 510.749C306.452 510.749 306.452 510.749 306.452 510.749C306.795 511.388 307.167 512.006 307.555 512.61C310.178 516.328 312.146 519.571 317.072 522.595C319.379 523.52 321.523 523.721 323.671 523.766C325.272 523.779 326.845 523.666 328.493 523.33C328.258 523.344 328.473 523.354 329.076 523.252C335.82 520.442 336.431 515.337 338.038 510.914C338.226 510.22 338.393 509.518 338.529 508.812C338.572 508.583 338.546 508.34 338.437 508.129C338.328 507.919 338.148 507.759 337.93 507.683C337.712 507.607 337.471 507.62 337.254 507.717C337.038 507.815 336.867 507.989 336.758 508.195C336.758 508.195 336.758 508.195 336.758 508.195C336.441 508.789 336.105 509.38 335.76 509.961C333.616 513.578 330.327 518.169 328.174 518.515C328.405 518.485 328.237 518.465 327.63 518.546C326.402 518.717 325.046 518.78 323.727 518.767C321.966 518.744 320.142 518.584 318.759 518.156C316.287 516.931 312.453 513.64 309.44 511.016C308.935 510.563 308.436 510.103 307.96 509.635Z" fill="black"/>
<path d="M470.249 559.149C464.381 554.662 442.976 557.092 435.828 559.149L453.885 559.149L460.092 563.542L468.557 578.685C471.265 577.788 478.902 582.706 484.921 586.071C482.476 578.966 476.118 563.636 470.249 559.149Z" fill="#1E1E28" stroke="black" stroke-width="5" stroke-linejoin="round"/>
<path d="M428.076 561.033L416.16 531.086L396.299 537.302L408.783 559.338C401.595 557.078 379.957 558.66 369.062 569.508L404.811 579.679C410.258 571.995 441.505 584.011 456.448 590.98C455.691 584.953 452.816 571.543 447.369 566.118C441.921 560.694 432.237 560.468 428.076 561.033Z" fill="#1D1C2A" stroke="black" stroke-width="5"/>
<path d="M461.497 559.95C455.662 555.433 439.99 558.444 432.883 560.515C436.436 560.515 444.441 561.531 448.031 565.597C451.622 569.663 454.016 575.572 454.764 578.019C457.457 577.115 470.1 583.665 476.084 587.053C473.653 579.901 467.332 564.467 461.497 559.95Z" fill="#1E1E28" stroke="black" stroke-width="5" stroke-linejoin="round"/>
<path d="M410.179 598.834C410.179 598.834 404.609 589.585 392.354 579.128C380.099 568.671 373.972 567.305 373.972 567.305C379.542 565.24 393.468 563.362 403.495 570.682C416.778 580.38 416.121 591.89 410.179 598.834Z" fill="#D9D9D9"/>
<path d="M410.179 598.834C410.179 598.834 404.609 589.585 392.354 579.128C380.099 568.671 373.972 567.305 373.972 567.305C379.542 565.24 393.468 563.362 403.495 570.682C416.778 580.38 416.121 591.89 410.179 598.834Z" fill="#1D1C2A"/>
<path d="M410.179 598.834C410.179 598.834 404.609 589.585 392.354 579.128C380.099 568.671 373.972 567.305 373.972 567.305C379.542 565.24 393.468 563.362 403.495 570.682C416.778 580.38 416.121 591.89 410.179 598.834Z" stroke="black" stroke-width="5"/>
<path d="M366.751 568.083L352 539.5C352 539.5 345.424 539.947 341.5 540C337.576 540.053 330.02 538.941 330.02 538.941L349.799 569.226C339.439 566.178 318.38 565.455 317.023 586.94C317.023 586.94 341.887 582.368 354.319 586.94C366.751 591.511 383.139 608.653 383.139 608.653C387.095 601.225 390.485 584.768 372.402 578.369C384.506 578.369 393.103 592.207 398.396 601.796C400.662 596.559 400.888 591.743 399.991 587.511C397.755 576.967 388.695 569.386 386.529 569.226C384.269 569.059 372.402 568.083 366.751 568.083Z" fill="#1D1C2A" stroke="black" stroke-width="5" stroke-linejoin="round"/>
<path d="M311.231 351.48C311.194 351.972 311.348 352.461 311.666 352.84C311.983 353.22 312.436 353.458 312.927 353.503C313.418 353.548 313.908 353.397 314.289 353.082C314.67 352.767 314.911 352.314 314.965 351.824C314.965 351.824 314.965 351.824 314.965 351.824C316.283 339.61 317.596 327.403 319.158 315.249C320.752 303.021 322.456 290.753 325.073 278.877C330.009 259.667 342.719 241.059 357.644 228.82C368.249 221.505 378.082 215.409 390.983 215.186C407.964 213.045 424.578 212.583 441.136 215.556C460.864 219.663 482.615 231.391 494.181 246.36C498.62 253.83 500.136 264.847 499.101 273.463L499.048 273.862C497.739 288.166 496.542 302.556 495.474 316.906C494.474 336.759 491.429 353.226 493.856 376.837C503.788 396.378 509.394 417.488 507.274 438.674L515.799 436.648C510.671 428.773 505.538 420.902 500.399 413.033C497.577 408.636 490.919 411.65 492.351 416.675C508.961 475.554 450.006 525.037 392.363 531.781C380.467 533.977 368.392 535.334 356.039 536.087C355.547 536.117 355.083 536.336 354.75 536.701C354.417 537.067 354.242 537.549 354.264 538.041C354.285 538.534 354.502 538.998 354.866 539.333C355.229 539.669 355.71 539.846 356.203 539.833C356.203 539.833 356.203 539.833 356.203 539.833C368.705 539.491 380.988 538.516 393.185 536.65C451.412 532.043 518.575 480.872 500.937 414.221L492.889 417.863C497.916 425.803 502.948 433.739 507.986 441.672L515.169 452.769L516.511 439.647C519.189 416.394 512.864 392.713 502.82 372.761C502.357 358.23 504.154 336.084 505.447 317.646C506.51 303.357 507.676 288.998 508.923 274.75L508.871 275.148C510.127 263.018 508.618 252.048 502.495 241.278C486.531 221.45 465.879 211.656 442.589 206.591C425.171 203.665 407.028 204.475 389.956 206.961C376.653 207.224 363.392 215.137 353.264 222.686C336.145 237.502 324.394 255.983 319.195 277.639C316.826 289.99 315.482 302.34 314.251 314.696C313.055 326.956 312.132 339.241 311.231 351.48Z" fill="black"/>
<path d="M341.293 197.299C358.47 192.724 375.194 204.542 380.844 211.595C380.844 211.595 372.369 214.455 366.719 217.314C361.068 220.173 356.548 224.748 356.548 224.748C339.598 220.745 320.951 223.606 320.951 223.606C327.28 208.508 351.463 210.834 362.764 213.884C354.853 205.306 341.293 197.299 341.293 197.299Z" fill="black"/>
<path d="M566.355 304.19C558.807 299.296 499.076 273.842 488.905 273.841C478.734 273.84 475.329 277.775 461.77 300.818C453.887 314.216 449.057 319.824 446.394 322.171C445.279 323.154 444.442 325.438 445.209 326.711C447.507 330.528 451.416 334.549 461.77 336.788C474.768 339.599 513.055 339.089 540.915 342.408C568.776 345.727 611.581 355.335 611.581 355.335C606.493 328.357 579.357 312.621 566.355 304.19Z" fill="#8D8D93"/>
<path d="M471.132 362.482C495.855 368.072 549.064 358.756 580.162 349.627C580.162 349.627 540.82 340.684 502.603 339.566C464.386 338.448 450.336 335.653 444.722 323.916C441.162 325.406 439.096 325.592 437.971 333.418C436.334 344.811 445.869 356.771 471.132 362.482Z" fill="#2A2C35" stroke="black" stroke-width="7" stroke-linecap="round"/>
<path d="M558.943 313.75C551.399 308.821 491.139 282.054 480.973 282.053C470.808 282.052 475.31 277.526 461.76 300.733C453.869 314.247 449.039 319.891 446.38 322.248C445.27 323.233 444.434 325.511 445.194 326.786C447.488 330.637 451.39 334.699 461.759 336.959C474.75 339.79 513.015 339.276 540.859 342.619C568.704 345.961 604.708 353.371 604.708 353.371C586.063 331.862 576.271 325.071 558.943 313.75Z" fill="#595D69"/>
<path d="M489.556 295.535C489.06 295.347 488.509 295.364 488.026 295.582C487.542 295.8 487.165 296.202 486.978 296.698C486.79 297.194 486.807 297.744 487.026 298.228C487.244 298.711 487.645 299.088 488.141 299.276C488.141 299.276 488.141 299.276 488.141 299.276C488.296 299.335 488.508 299.422 488.697 299.501C490.367 300.211 492.022 301.062 493.418 302.054C493.479 302.097 493.541 302.142 493.603 302.188C495.032 303.257 496.651 304.391 498.468 305.407C498.668 305.52 498.877 305.638 499.074 305.742C499.228 305.829 499.4 305.892 499.578 305.896C499.755 305.9 499.922 305.846 500.05 305.738C500.178 305.631 500.26 305.476 500.287 305.301C500.314 305.126 500.283 304.945 500.224 304.778C500.132 304.541 500.042 304.318 499.944 304.094C499.057 302.099 497.799 300.337 495.983 298.973C495.904 298.914 495.824 298.856 495.744 298.799C493.972 297.547 492.148 296.627 490.25 295.815C490.023 295.72 489.818 295.635 489.556 295.535Z" fill="black"/>
<path d="M566.355 304.19C558.807 299.296 499.076 273.842 488.905 273.841C478.734 273.84 475.329 277.775 461.77 300.818C453.887 314.216 449.057 319.824 446.394 322.171C445.279 323.154 444.442 325.438 445.209 326.711C447.507 330.528 451.416 334.549 461.77 336.788C474.768 339.599 513.055 339.089 540.915 342.408C568.776 345.727 611.581 355.335 611.581 355.335C606.493 328.357 579.357 312.621 566.355 304.19Z" stroke="black" stroke-width="7" stroke-linecap="round"/>
<path d="M366.738 404.811C366.918 405.161 367.231 405.426 367.607 405.55C367.983 405.673 368.39 405.645 368.742 405.469C369.094 405.294 369.362 404.986 369.49 404.611C369.618 404.237 369.594 403.827 369.423 403.473C369.423 403.473 369.423 403.473 369.423 403.473C363.223 391.73 355.74 380.307 344.23 372.527C343.092 371.797 341.888 371.007 340.738 370.237C298.303 340.596 260.149 304.828 223.201 268.533C214.707 260.071 206.521 251.306 198.234 242.494C194.08 238.095 189.917 233.681 185.47 229.372C183.239 227.224 180.95 225.098 178.351 223.055C175.576 221.153 173.42 218.612 167.496 218.135C165.172 218.021 162.197 219.589 160.954 221.376C159.586 223.185 159.139 224.65 158.71 226.169C153.238 256.792 171.441 280.947 187.074 302.18C192.533 309.063 198.141 315.697 203.888 322.286C204.171 322.61 204.477 322.959 204.77 323.291L209.365 315.054C209.166 315.02 208.931 314.968 208.666 314.896C208.666 314.896 208.666 314.896 208.666 314.896C196.035 310.051 183.429 297.591 169.053 288.652C167.599 287.776 165.969 286.848 164.148 286.066C162.15 285.469 160.408 283.803 155.433 285.433C154.271 285.927 153.059 286.986 152.416 288C151.784 288.922 151.386 290.146 151.254 290.796C150.915 292.444 150.977 293.548 151.067 294.743C151.164 295.822 151.325 296.756 151.538 297.76C151.72 298.612 151.946 299.506 152.215 300.453C159.656 331.854 185.907 360.41 212.507 372.262L216.615 363.616C216.143 363.546 215.556 363.465 215.086 363.402C207.594 362.432 200.163 361.755 192.377 361.893C188.443 362.046 184.608 362.118 179.888 363.773C178.687 364.24 177.375 364.838 176.002 366.02C174.612 367.167 173.173 369.434 173.074 371.795C173.047 376.354 175.019 378.288 176.404 380.174C192.268 399.208 213.922 412.383 238.162 418.277L237.194 409.528C231.151 411.191 221.323 411.635 212.155 416.209C210.942 416.941 209.535 417.746 208.198 419.756C206.684 421.743 206.909 425.608 208.085 427.268C210.205 430.615 212.358 431.649 214.478 433.008C218.553 435.368 222.642 437 226.818 438.571C242.516 444.026 258.275 444.986 274.166 445.112L271.702 438.669C268.626 440.813 261.733 443.036 256.316 445.362C253.43 446.662 250.669 447.567 247.411 450.281C246.986 450.684 246.564 451.098 246.086 451.872C245.667 452.545 245.173 453.785 245.387 455.135C245.981 457.912 247.649 458.561 248.465 459.115C250.4 460.148 251.906 460.494 253.584 460.91C263.054 463.099 272.469 465.069 282.078 466.44C289.371 467.432 296.759 468.236 304.4 467.5C312.247 467.264 319.146 461.769 325.091 459.717C325.591 459.555 326.012 459.205 326.258 458.739C326.505 458.273 326.558 457.73 326.405 457.227C326.252 456.724 325.906 456.302 325.442 456.052C324.977 455.802 324.433 455.746 323.928 455.89C323.928 455.89 323.928 455.89 323.928 455.89C310.095 463.821 297.459 463.728 282.936 460.988C273.639 459.353 264.415 457.129 255.12 454.696C253.753 454.337 252.447 453.894 251.719 453.453C251.552 453.353 251.453 453.258 251.498 453.29C251.517 453.309 251.806 453.556 251.913 454.188C252.011 454.802 251.78 455.263 251.742 455.324C251.686 455.417 251.756 455.317 251.891 455.207C253.266 454.066 256.283 452.788 258.913 451.761C264.533 449.374 269.644 448.693 276.593 444.184L283.887 437.622L274.129 437.741C259.134 437.292 243.386 435.805 229.815 430.726C225.916 429.184 222.082 427.523 218.919 425.602C217.329 424.674 215.786 423.298 215.726 423.009C215.713 422.981 215.833 423.155 215.847 423.564C215.868 423.951 215.691 424.389 215.624 424.48C215.457 424.689 215.882 424.235 216.498 423.925C219.201 422.496 223.45 421.532 227.436 420.747C231.731 419.811 234.906 419.815 240.94 417.969L254.227 412.024L239.972 409.221C218.706 403.762 198.125 391.16 184.04 373.893C183.573 373.321 183.269 372.86 183.083 372.491C182.896 372.147 182.972 372.008 182.965 372.452C182.956 372.673 182.869 372.982 182.752 373.189C182.635 373.404 182.534 373.491 182.532 373.495C182.521 373.493 182.885 373.254 183.409 373.065C185.646 372.24 189.224 371.931 192.595 371.863C199.484 371.75 206.695 372.393 213.756 373.313C214.186 373.371 214.772 373.452 215.122 373.504L231.47 375.972L219.229 364.859C189.075 349.94 169.881 327.65 161.833 297.714C161.615 296.951 161.445 296.268 161.317 295.671C161.168 294.972 161.074 294.38 161.028 293.865C161.003 293.582 160.997 293.359 161.001 293.203C161.003 293.049 161.025 292.916 161.019 292.953C161.018 292.957 160.971 293.193 160.748 293.531C160.535 293.882 159.986 294.369 159.539 294.551C159.08 294.755 158.775 294.758 158.706 294.76C158.617 294.759 158.701 294.757 158.837 294.787C159.157 294.854 159.641 295.014 160.219 295.261C161.318 295.729 162.654 296.466 163.878 297.208C177.346 305.327 188.006 317.415 206.055 324.549C206.055 324.549 206.055 324.549 206.055 324.549C206.588 324.693 207.125 324.815 207.671 324.909L221.665 327.314L212.265 316.671C211.998 316.368 211.69 316.017 211.415 315.702C205.767 309.227 200.201 302.66 194.881 295.987C179.64 276.134 163.398 251.581 167.795 228.524C167.983 227.735 168.265 227.184 168.317 227.127C168.337 227.098 168.237 227.219 168.031 227.319C167.831 227.421 167.608 227.442 167.593 227.435C182.408 235.407 200.399 258.675 217.598 274.275C255.625 310.034 294.77 344.717 338.519 373.647C339.708 374.399 340.954 375.173 342.133 375.888C352.7 382.573 360.565 393.667 366.738 404.811Z" fill="black"/>
<path d="M310.996 466.683C311.758 465.883 311.728 464.617 310.929 463.855C310.13 463.093 308.864 463.123 308.101 463.922L309.549 465.302L310.996 466.683ZM189.94 542.424L191.24 543.945L189.94 542.424ZM206.861 557.061L207.375 558.994L206.861 557.061ZM275.133 515.966L276.21 517.652C277.135 517.061 277.411 515.835 276.828 514.905C276.246 513.975 275.023 513.688 274.087 514.262L275.133 515.966ZM206.861 568.32L208.022 566.691L206.861 568.32ZM290.361 529.477L291.652 531.004C292.488 530.298 292.601 529.051 291.906 528.206C291.21 527.361 289.965 527.232 289.111 527.916L290.361 529.477ZM275.133 572.823L276.089 574.58L275.133 572.823ZM319.867 521.204C320.272 520.177 319.768 519.015 318.741 518.61C317.713 518.204 316.552 518.708 316.146 519.736L318.007 520.47L319.867 521.204ZM309.549 465.302L308.101 463.922C291.698 481.121 267.977 495.208 245.193 507.595C233.865 513.755 222.696 519.533 212.967 524.989C203.231 530.449 194.725 535.701 188.64 540.904L189.94 542.424L191.24 543.945C197.004 539.015 205.213 533.924 214.924 528.478C224.642 523.027 235.653 517.335 247.104 511.11C269.878 498.727 294.113 484.385 310.996 466.683L309.549 465.302ZM189.94 542.424L188.64 540.904C185.939 543.214 184.912 545.98 185.651 548.793C186.329 551.373 188.385 553.522 190.704 555.126C193.074 556.766 195.998 558.035 198.898 558.751C201.771 559.46 204.817 559.674 207.375 558.994L206.861 557.061L206.347 555.128C204.673 555.573 202.361 555.486 199.857 554.868C197.38 554.256 194.911 553.173 192.98 551.837C190.998 550.466 189.846 549.016 189.52 547.776C189.255 546.769 189.427 545.494 191.24 543.945L189.94 542.424ZM206.861 557.061L207.375 558.994C208.491 558.697 210.409 557.758 212.682 556.541C215.045 555.277 218.028 553.579 221.396 551.605C228.135 547.656 236.474 542.565 244.589 537.538C252.707 532.51 260.612 527.538 266.486 523.825C269.424 521.968 271.854 520.425 273.55 519.346C274.399 518.807 275.063 518.383 275.516 518.095C275.742 517.95 275.916 517.84 276.032 517.765C276.091 517.728 276.135 517.7 276.165 517.681C276.18 517.671 276.191 517.664 276.198 517.659C276.202 517.657 276.205 517.655 276.207 517.654C276.208 517.653 276.209 517.653 276.209 517.652C276.21 517.652 276.21 517.652 275.133 515.966C274.056 514.281 274.056 514.281 274.056 514.282C274.055 514.282 274.054 514.282 274.054 514.283C274.052 514.284 274.049 514.286 274.045 514.288C274.038 514.293 274.027 514.3 274.012 514.309C273.983 514.328 273.939 514.356 273.88 514.393C273.764 514.468 273.591 514.578 273.366 514.722C272.914 515.01 272.251 515.432 271.404 515.971C269.71 517.048 267.283 518.589 264.349 520.444C258.48 524.154 250.587 529.118 242.483 534.138C234.376 539.159 226.07 544.23 219.374 548.154C216.024 550.118 213.091 551.785 210.795 553.014C208.409 554.292 206.924 554.975 206.347 555.128L206.861 557.061ZM275.133 515.966C274.087 514.262 274.087 514.262 274.086 514.262C274.086 514.263 274.085 514.263 274.083 514.264C274.081 514.265 274.077 514.268 274.073 514.271C274.063 514.276 274.049 514.285 274.031 514.296C273.994 514.319 273.939 514.353 273.866 514.398C273.721 514.487 273.507 514.619 273.228 514.791C272.67 515.136 271.854 515.642 270.818 516.288C268.746 517.579 265.796 519.43 262.281 521.668C255.253 526.143 245.957 532.173 236.904 538.383C227.865 544.582 219.01 551.001 212.894 556.246C209.858 558.85 207.382 561.261 205.912 563.274C205.194 564.257 204.569 565.338 204.361 566.43C204.252 567.005 204.243 567.664 204.472 568.327C204.708 569.011 205.148 569.555 205.7 569.948L206.861 568.32L208.022 566.691C208.08 566.732 208.191 566.844 208.252 567.021C208.306 567.177 208.276 567.254 208.291 567.178C208.331 566.967 208.533 566.467 209.142 565.633C210.325 564.014 212.504 561.851 215.498 559.283C221.443 554.184 230.149 547.866 239.166 541.681C248.168 535.507 257.422 529.504 264.429 525.042C267.932 522.812 270.871 520.968 272.933 519.682C273.965 519.04 274.777 518.536 275.331 518.194C275.608 518.023 275.82 517.892 275.963 517.804C276.035 517.76 276.089 517.727 276.125 517.704C276.143 517.693 276.157 517.685 276.166 517.679C276.17 517.677 276.173 517.675 276.176 517.673C276.177 517.673 276.178 517.672 276.178 517.672C276.179 517.671 276.179 517.671 275.133 515.966ZM206.861 568.32L205.7 569.948C217.024 578.018 229.503 578.964 237.097 575.176L236.204 573.386L235.311 571.596C229.364 574.563 218.466 574.134 208.022 566.691L206.861 568.32ZM236.204 573.386L237.097 575.176C237.967 574.741 239.474 573.68 241.284 572.325C243.159 570.922 245.525 569.077 248.196 566.95C253.542 562.695 260.154 557.282 266.588 551.959C273.024 546.635 279.29 541.397 283.946 537.49C286.275 535.536 288.201 533.915 289.545 532.782C290.217 532.216 290.744 531.771 291.103 531.469C291.282 531.317 291.419 531.201 291.512 531.123C291.558 531.084 291.593 531.054 291.617 531.034C291.629 531.024 291.637 531.017 291.643 531.012C291.646 531.009 291.649 531.007 291.65 531.006C291.651 531.006 291.651 531.005 291.652 531.005C291.652 531.004 291.652 531.004 290.361 529.477C289.07 527.95 289.07 527.95 289.069 527.95C289.069 527.95 289.069 527.951 289.068 527.951C289.066 527.953 289.064 527.955 289.061 527.957C289.055 527.962 289.047 527.969 289.035 527.979C289.012 527.999 288.977 528.028 288.931 528.067C288.838 528.145 288.701 528.261 288.522 528.412C288.164 528.714 287.639 529.158 286.967 529.723C285.625 530.855 283.701 532.474 281.375 534.426C276.723 538.329 270.465 543.561 264.039 548.877C257.611 554.194 251.022 559.589 245.705 563.82C243.046 565.937 240.715 567.754 238.888 569.122C236.996 570.538 235.794 571.355 235.311 571.596L236.204 573.386ZM290.361 529.477C289.111 527.916 289.111 527.916 289.11 527.916C289.11 527.917 289.109 527.917 289.109 527.918C289.107 527.919 289.105 527.921 289.101 527.923C289.095 527.928 289.086 527.936 289.074 527.945C289.05 527.964 289.015 527.993 288.969 528.03C288.876 528.105 288.739 528.215 288.561 528.359C288.205 528.647 287.685 529.069 287.028 529.607C285.713 530.683 283.845 532.224 281.633 534.087C277.212 537.81 271.401 542.831 265.867 547.999C260.353 553.149 255.033 558.52 251.648 562.933C249.98 565.108 248.64 567.227 248.067 569.076C247.779 570.007 247.621 571.068 247.895 572.105C248.194 573.238 248.944 574.096 249.98 574.613L250.873 572.823L251.766 571.033C251.695 570.998 251.697 570.985 251.722 571.015C251.734 571.028 251.744 571.044 251.753 571.061C251.761 571.076 251.763 571.085 251.762 571.083C251.755 571.056 251.714 570.821 251.888 570.259C252.241 569.121 253.211 567.468 254.821 565.367C257.994 561.231 263.11 556.047 268.597 550.923C274.063 545.818 279.817 540.846 284.21 537.146C286.405 535.297 288.258 533.769 289.561 532.703C290.212 532.17 290.726 531.753 291.076 531.469C291.251 531.328 291.386 531.219 291.476 531.147C291.521 531.11 291.555 531.083 291.578 531.065C291.589 531.056 291.598 531.049 291.603 531.045C291.606 531.042 291.608 531.041 291.609 531.04C291.61 531.039 291.611 531.039 291.611 531.038C291.611 531.038 291.611 531.038 290.361 529.477ZM250.873 572.823L249.98 574.613C255.868 577.55 260.74 578.508 265.052 578.195C269.347 577.884 272.887 576.322 276.089 574.58L275.133 572.823L274.177 571.066C271.173 572.701 268.224 573.955 264.762 574.206C261.316 574.456 257.161 573.725 251.766 571.033L250.873 572.823ZM275.133 572.823L276.089 574.58C276.921 574.127 278.089 573.212 279.407 572.073C280.772 570.895 282.433 569.358 284.291 567.548C288.009 563.927 292.561 559.172 297.184 553.921C306.366 543.493 316.061 530.85 319.867 521.204L318.007 520.47L316.146 519.736C312.623 528.667 303.364 540.849 294.182 551.278C289.623 556.456 285.141 561.137 281.5 564.682C279.679 566.456 278.079 567.935 276.793 569.046C275.46 570.197 274.586 570.844 274.177 571.066L275.133 572.823Z" fill="black"/>
<path d="M238.529 313.41C238.601 313.123 238.56 312.819 238.412 312.562C238.263 312.306 238.021 312.118 237.736 312.041C237.451 311.963 237.147 312.002 236.889 312.148C236.631 312.294 236.442 312.536 236.358 312.82C236.358 312.82 236.358 312.82 236.358 312.82C234.819 318.878 235.528 325.109 237.666 330.85C238.685 333.527 240.073 336.072 241.775 338.392C250.04 348.708 261.87 354.851 271.489 361.705L272.931 357.762C266.076 357.281 258.393 355.425 250.913 354.412C247.111 353.886 243.324 353.401 239.238 353.472C237.165 353.597 235.136 353.504 232.43 355.009C231.07 355.702 229.668 357.97 229.887 359.738C230.015 361.521 230.582 362.547 231.187 363.643C242.033 385.297 267.801 392.97 288.281 397.886C288.868 398.065 289.451 398.248 290.029 398.436L290.302 392.655C284.338 393.979 278.17 395.247 272.075 397.604C269.066 398.918 265.838 399.956 263.059 403.715C261.599 405.602 261.591 409.21 262.786 411.054C263.876 413.032 265.26 414.25 266.647 415.369C285.207 426.445 306.198 419.89 322.092 420.981L321.876 416.612C315.824 420.161 309.212 423.179 303.103 427.712C301.587 428.932 300.055 430.059 298.808 432.321C298.207 433.386 297.874 435.365 298.733 436.816C299.547 438.239 300.608 438.857 301.569 439.388C305.422 441.234 309.055 441.573 312.727 442.034C319.534 442.769 326.512 442.659 333.223 440.906C339.088 439.466 344.609 436.222 349.058 432.676C349.302 432.509 349.474 432.255 349.534 431.964C349.594 431.674 349.537 431.373 349.376 431.125C349.215 430.878 348.962 430.705 348.672 430.642C348.383 430.58 348.08 430.635 347.83 430.791C347.83 430.791 347.83 430.791 347.83 430.791C343.004 434.275 338.096 436.849 332.525 438.027C326.226 439.416 319.653 439.297 313.186 438.377C289.682 436.876 313.518 426.796 324.316 420.871L328.494 418.425L324.1 416.503C303.692 414.445 284.534 419.74 270.267 410.817C269.218 409.98 268.335 409.048 267.965 408.317C267.776 407.954 267.738 407.71 267.745 407.561C267.755 407.412 267.794 407.242 267.991 406.941C268.854 405.612 271.647 404.133 274.244 403.144C279.649 401.077 285.587 399.836 291.611 398.51L302.309 396.118L291.883 392.73C291.268 392.53 290.651 392.336 290.032 392.147C268.224 386.759 246.473 380.614 235.885 360.87C235.485 360.224 235.293 359.641 235.29 359.476C235.286 359.4 235.283 359.504 235.231 359.579C235.182 359.656 235.171 359.621 235.3 359.535C235.91 359.1 237.752 358.782 239.416 358.725C242.881 358.592 246.576 358.96 250.256 359.395C257.685 360.219 264.815 361.875 272.931 362.232L279.061 362.186L274.372 358.289C263.485 350.983 252.252 345.538 244.379 336.414C242.771 334.382 241.433 332.137 240.415 329.745C238.265 324.658 237.4 318.746 238.529 313.41Z" fill="black"/>
<path d="M339.126 507.276C339.205 507.048 339.201 506.795 339.104 506.57C339.008 506.346 338.828 506.168 338.605 506.076C338.381 505.985 338.129 505.985 337.902 506.077C337.676 506.169 337.495 506.346 337.391 506.565C337.391 506.565 337.391 506.565 337.391 506.565C336.564 508.305 335.743 510.047 334.926 511.792C331.119 519.918 327.418 528.087 323.821 536.299L322.953 538.281L325.034 539.181C333.692 542.203 341.985 543.01 350.996 541.986C352.062 541.817 353.147 541.591 354.27 541.212C369.903 533.255 382.555 522.066 390.073 506.651C390.823 504.789 391.396 502.826 391.591 500.785C391.613 500.544 391.548 500.3 391.4 500.105C391.252 499.911 391.035 499.782 390.796 499.747C390.557 499.712 390.312 499.773 390.115 499.917C389.917 500.061 389.784 500.276 389.736 500.514C389.736 500.514 389.736 500.514 389.736 500.514C389.37 502.286 388.679 503.991 387.829 505.62C379.838 519.005 365.888 529.823 352.675 536.482C351.941 536.726 351.093 536.91 350.221 537.047C342.683 537.98 333.859 537.272 326.689 535.092L327.902 537.974C331.109 529.602 334.212 521.187 337.21 512.729C337.853 510.913 338.492 509.096 339.126 507.276Z" fill="black"/>
</svg>
