<svg width="800" height="800" viewBox="0 0 800 800" fill="none" xmlns="http://www.w3.org/2000/svg">
<path d="M475.213 270.525C513.388 294.067 548.066 322.035 554.961 368.516C558.159 388.838 557.959 418.517 554.262 439.443C551.564 450.711 546.267 461.376 543.069 472.543C540.371 485.32 543.069 497.694 545.168 510.472C551.564 541.961 581.995 544.794 573.5 576.284L530.5 608.03C476.935 633.685 427.112 643 369.426 643C305.5 643 222.096 569.442 216.5 562.5C210.104 554.15 219.178 555.342 219.678 542.867C221.277 510.27 260.052 486.93 251.557 453.83C244.662 427.672 239.365 404.13 243.063 376.866C248.359 345.879 264.849 321.834 287.634 301.009C290.832 298.292 293.43 295.677 296.628 292.96C295.029 308.454 292.431 325.054 297.727 339.943C304.123 357.55 334.903 298.292 353.491 302.115C374.678 306.341 370.481 299.902 383.672 286.622C399.562 271.129 421.847 320.828 436.238 303.725C447.131 291.149 457.624 270.827 472.315 269.519C477.012 269.116 482.608 275.253 487.705 278.573" fill="#C6BDB3"/>
<path d="M293.529 295.5C293.031 282.784 299.11 265.061 302.898 253.146C307.283 239.028 312.367 225.51 324.526 217.5C313.961 229.215 321.835 260.055 332.5 268.565H330.905C318.247 271.77 301.403 288.391 293.529 295.5Z" fill="#7F7263"/>
<path d="M365.371 377.106C364.374 378.62 363.577 380.236 362.979 382.053C359.688 391.544 362.58 402.347 364.972 411.737C365.072 412.04 365.072 412.242 365.172 412.545C371.553 438.796 394.284 462.927 422.897 454.951C446.725 447.984 465.268 422.238 467.362 398.107C468.06 387.405 466.066 375.894 462.377 365.798C458.888 356.105 452.507 344.393 444.232 337.931C438.35 333.287 429.975 331.066 422.598 331.57C420.205 331.671 417.812 332.075 415.519 332.782C413.126 333.489 410.734 334.599 408.54 335.811C406.148 337.123 403.954 338.739 401.761 340.354C399.468 342.071 397.275 343.989 395.181 345.807C392.988 347.725 390.894 349.744 388.8 351.764C386.707 353.783 384.713 355.802 382.719 357.922C380.824 359.942 378.83 361.961 376.936 363.98C372.948 368.221 368.462 372.159 365.371 377.106Z" fill="white"/>
<path d="M302.732 326.936C283.932 317.262 270.006 339.232 266.823 343.565C254.19 360.698 256.279 379.946 257.274 399.8C258.368 419.049 266.823 452.508 293.183 449.283C318.547 446.562 327.5 414.816 327.5 393.35C327.599 345.681 302.732 326.936 302.732 326.936Z" fill="white"/>
<path d="M412.911 370.946C420.21 368.101 428.709 369.345 435.009 375.658C440.108 380.903 443.708 389.349 444.707 396.106C446.107 406.153 446.307 415.222 439.708 423.935C432.409 433.537 417.611 438.338 406.612 430.78C388.314 417.978 391.014 379.481 412.911 370.946Z" fill="#FFFF00"/>
<path d="M415.268 386.266C419.168 384.776 423.667 385.39 426.967 388.721C429.667 391.439 431.566 395.823 432.066 399.418C432.866 404.679 432.866 409.413 429.367 413.972C425.467 418.97 417.668 421.513 411.768 417.567C402.269 410.904 403.669 390.738 415.268 386.266Z" fill="black"/>
<path d="M294.187 370.572C308.803 371.772 311.19 389.677 311.488 401.281C311.587 405.882 311.09 410.584 309.698 414.885C307.511 421.387 301.744 428.489 294.684 429.389C285.338 430.59 278.676 421.787 275.097 414.485C270.921 405.782 270.324 395.879 273.605 386.677C276.986 377.374 283.548 369.671 294.187 370.572Z" fill="#FFFF00"/>
<path d="M292.68 381.552C301.866 382.367 303.28 393.575 303.482 400.81C303.582 403.663 303.28 406.618 302.371 409.369C301.059 413.444 297.424 417.928 292.983 418.437C287.127 419.15 282.988 413.648 280.768 409.063C278.143 403.561 277.739 397.345 279.859 391.639C281.878 385.831 286.017 380.94 292.68 381.552Z" fill="black"/>
<path d="M292.398 293.619C306.719 264.149 354.79 261.424 384.534 258.194C412.175 254.965 434.308 271.012 462.95 265.259C463.05 265.259 463.05 265.259 463.15 265.259C463.05 265.259 463.05 265.259 462.95 265.259C470.862 259.103 489.489 256.075 498.102 251.029C509.218 244.368 521.236 238.918 534.255 237.707C537.961 237.404 541.566 237.404 545.272 237.908C551.881 238.716 558.291 242.955 564.5 245.478C554.585 246.891 546.073 251.029 539.463 258.093C537.56 260.112 534.456 262.433 532.653 264.653C529.148 268.69 519.133 279.187 516.129 288.27C515.027 291.701 516.129 295.435 515.728 298.968C515.428 301.39 478.974 303.005 475.168 303.408C452.735 305.932 430.202 310.271 411.574 323.997C397.153 334.594 385.536 348.219 374.419 362.247C365.506 373.551 353.288 394.846 336.563 393.433C328.551 392.727 323.644 383.442 319.738 377.689C314.731 370.321 309.423 363.257 304.816 355.687C293.8 337.42 282.283 314.006 292.398 293.619Z" fill="#7F7263"/>
<path d="M322.3 462.169C328.7 460.856 336.1 460.856 342.5 457.42C349 453.278 353.6 443.983 359 438.225C360.5 450.55 360.1 462.977 356.1 472.676C356.2 472.575 356.2 472.373 356.3 472.272L355.9 473.282C352.4 480.152 340.9 481.668 335.3 480.961C325.7 479.647 309.8 459.441 305.5 474.798C306.8 464.291 314.9 463.482 322.3 462.169Z" fill="#FFD200"/>
<path d="M303.1 430.445C309.5 404.177 337.1 366.998 351.4 406.198C354.5 414.886 357.6 426.505 359 438.225C353.6 444.084 349 453.278 342.4 457.42C336 460.754 328.6 460.754 322.2 462.169C314.8 463.482 307.4 463.482 306.2 473.99C306.2 473.99 308.1 470.453 305.6 474.192C303 458.734 298.9 445.903 303.1 430.445Z" fill="#FFFF00"/>
<path d="M312 419.345C309.7 426.923 308.8 434.5 308.1 442.38C307.1 452.989 306.2 463.597 308.1 474.003C306.7 474.003 305.3 474.003 303.9 474.003C305.5 465.921 312.7 466.224 318.3 469.053C329.1 474.609 342.5 481.378 354.5 474.003C356.7 472.589 356.7 477.842 354.5 479.257C345.9 484.51 336.6 483.399 327.5 480.065C324.2 478.853 321.3 477.135 318.3 475.417C315.2 473.7 309.2 469.659 308.1 475.215C307.7 477.337 304.3 477.337 303.9 475.215C301.9 463.799 299.6 452.382 300.7 440.865C301.6 431.671 303.5 422.578 306.4 413.789C310.9 399.846 322.2 380.145 339.5 387.723C341.6 388.632 340.1 391.865 338 391.259C321.1 386.914 316.1 406.11 312 419.345Z" fill="black" stroke="black" stroke-width="3"/>
<path d="M335.3 460.566C330.5 461.273 325.4 462.183 320.6 463.193C314.2 464.506 310.6 467.638 307.7 473.397C306.5 475.822 303.8 473.801 304.1 471.275C305.5 460.869 313.4 457.232 323.7 456.02C328.9 455.413 337.6 453.999 342.5 452.18C349.5 449.554 355.1 441.269 359 435.207C359.7 434.197 360.6 438.137 360.1 439.451C355.7 451.372 347.8 458.747 335.3 460.566Z" fill="black" stroke="black" stroke-width="2"/>
<path d="M574.05 568.5C552.961 557.408 537.37 522.518 535.171 498.216C533.772 483.494 536.57 467.26 541.268 453.344C546.365 438.017 555.16 425.311 556.16 408.976C557.959 378.119 550.363 345.751 532.472 320.34C525.576 310.559 513.583 302.996 513.583 289.887C513.583 277.282 526.575 266.795 535.171 259.232C543.466 252.073 553.061 245.418 564.055 243.401C564.255 244.914 564.455 246.426 564.655 247.939C562.756 247.939 562.056 247.636 560.257 246.729C556.459 244.813 552.362 243.603 548.264 242.594C540.368 240.779 531.973 241.183 524.077 242.494C509.285 244.914 496.991 253.586 483.799 260.241C472.105 266.19 460.511 267.904 447.618 267.098C433.725 266.19 420.133 262.863 406.34 261.048C391.748 259.132 376.256 259.031 361.964 262.661C351.47 265.283 340.376 271.736 329.582 266.997C314.19 260.241 315.489 234.628 319.187 221.519C320.686 222.326 322.086 223.234 323.585 224.04C312.291 234.527 306.594 248.14 301.397 262.358C298.898 269.115 296.799 275.971 295.2 283.03C293.901 288.879 294.201 299.265 291.702 304.811C287.204 315.197 279.009 319.735 271.113 327.398C260.619 337.785 254.922 349.683 251.224 363.801C246.926 380.136 248.625 396.573 251.224 413.11C253.722 429.042 260.319 443.664 261.418 459.697C262.318 474.318 255.821 487.024 247.226 498.015C238.531 509.006 231.035 522.216 226.637 535.627C223.439 545.509 220.54 555.694 221.34 566.08C221.54 568.802 217.542 568.702 217.142 566.08C213.644 539.56 224.838 512.535 241.029 492.065C245.527 486.419 249.425 480.772 251.324 473.713C253.722 464.739 252.123 455.058 250.124 446.285C246.526 430.353 242.628 414.623 241.329 398.287C239.13 370.557 247.026 340.608 267.215 320.945C275.411 312.979 283.506 305.315 286.005 293.517C287.404 287.265 288.404 280.106 290.103 273.854C292.202 266.291 294.7 257.72 297.499 250.46C302.396 238.258 310.092 229.284 319.887 220.209C321.786 218.494 324.984 220.108 324.284 222.729C320.686 235.132 319.787 266.594 340.176 263.266C346.073 262.258 351.77 260.039 357.467 258.325C363.963 256.409 370.759 255.401 377.556 254.896C390.549 253.787 403.642 255.199 416.535 257.317C429.528 259.434 442.521 262.157 455.714 262.258C469.106 262.358 480.3 256.712 491.694 250.359C502.988 244.107 514.182 238.561 527.175 237.048C534.071 236.242 540.868 236.342 547.764 237.452C551.462 238.057 555.06 239.267 558.458 240.578C560.457 241.384 562.556 242.998 564.655 242.998C567.154 242.998 567.853 247.132 565.255 247.535C550.663 250.157 538.769 261.048 528.674 271.232C523.177 276.778 518.08 283.03 517.98 291.299C517.98 298.861 524.876 304.004 529.474 309.046C548.764 330.524 557.659 359.868 560.257 388.203C561.557 403.127 560.557 418.353 557.359 432.975C554.161 447.798 547.364 461.411 544.966 476.537C540.668 503.763 553.461 536.535 573.95 555.391C575.349 556.702 576.748 558.315 578.348 559.425C579.347 560.131 575.149 566.483 573.95 565.777V568.5H574.05Z" fill="black"/>
<path d="M460.929 312.653C468.539 315.978 475.349 322.932 480.355 329.684C491.771 345.203 489.267 367.979 489.267 386.723C489.267 389.646 485.162 388.839 485.162 385.211C485.162 367.878 484.361 351.149 474.548 336.436C470.041 329.684 463.733 324.343 456.523 320.715C452.418 318.699 448.913 317.792 444.507 316.784C440.301 315.777 435.695 315.575 431.79 313.761C431.289 313.459 431.49 312.753 431.99 312.552C441.904 307.614 453.619 309.428 460.929 312.653Z" fill="black"/>
<path d="M464 312.15C463.8 312.15 463.8 311.85 464 311.85C464.2 311.85 464.2 312.15 464 312.15Z" fill="black"/>
<path d="M562.375 245.712C531.973 249.427 504.071 262.881 478.269 278.745C453.167 294.107 428.166 310.975 405.764 329.951C394.163 339.69 383.662 350.734 374.662 362.983C367.961 372.12 359.961 383.767 349.96 389.49C326.558 403.044 307.957 367.401 299.356 350.533C293.856 339.79 289.956 328.143 288.256 316.195C287.456 310.774 287.356 305.352 287.656 299.93C287.756 298.223 287.656 295.111 288.556 293.605C289.756 291.496 288.356 294.709 288.956 292.701C290.756 286.677 291.756 280.452 293.056 274.327C293.756 271.114 294.356 268.002 295.056 264.789C295.356 263.484 295.456 261.676 296.456 260.672C298.456 258.564 301.557 261.777 299.556 263.785C300.557 262.781 299.656 264.488 299.456 265.291C299.156 266.797 298.856 268.203 298.556 269.709C297.656 274.026 296.756 278.343 295.856 282.661C295.156 286.074 294.456 289.488 293.556 292.802C293.356 293.705 293.056 294.609 292.656 295.512C292.556 295.814 292.356 296.115 292.156 296.316C291.756 296.717 292.156 300.533 292.056 301.737C291.056 317.3 295.756 332.862 302.357 346.718C308.557 359.771 318.158 373.927 330.459 381.96C341.859 389.39 352.46 382.16 360.261 373.827C369.961 363.485 377.562 351.437 387.463 341.095C407.264 320.513 431.566 304.549 455.067 288.585C486.57 267.5 523.172 243.805 562.375 243.503C563.875 243.403 563.875 245.512 562.375 245.712Z" fill="black"/>
<path d="M556.5 243.5C556.5 252.06 534.146 253.973 517.606 281.063C515.1 286.299 515.701 294.255 517.505 299.089C517.505 299.089 516.503 303.62 485.127 306.843C466.782 308.756 436.208 315.504 408.842 333.328C389.294 346.017 375.36 365.856 350.5 386.5C350.5 386.5 364.634 355.181 396.612 325.675C403.328 319.532 415.859 311.073 424.981 306.843C462.672 276.027 503.973 250.046 556.5 243.5Z" fill="black"/>
<path d="M526.347 312.358C533.857 319.8 539.665 327.14 543.67 336.693C548.577 348.156 551.48 360.323 553.683 372.49C555.886 384.657 557.388 397.025 556.587 409.393C555.285 430.51 546.273 449.917 541.067 470.329C535.059 494.362 542.368 518.294 556.187 538.807C557.288 540.516 574.911 559.722 573.409 560.326C573.109 560.426 569.504 563.543 567.902 562.136C562.495 557.711 551.781 542.628 551.08 541.522C538.163 522.215 530.352 499.49 533.857 476.765C536.961 455.95 547.175 436.744 550.179 415.929C553.683 391.495 548.176 364.446 539.565 341.318C535.259 329.654 528.15 321.609 519.338 312.761C512.329 305.722 505.92 297.476 504.518 287.723C504.218 285.51 507.723 284.505 508.123 286.818C510.126 297.376 518.737 304.817 526.347 312.358Z" fill="black"/>
<path d="M496.76 306.514C485.766 305.714 474.672 307.515 463.878 309.216C461.48 309.616 459.281 306.815 461.28 304.814C477.071 289.907 504.255 288.206 519.647 301.512C522.245 303.713 521.346 313.518 518.747 311.317C505.555 299.911 478.57 295.709 465.078 308.515C464.178 307.015 463.379 305.614 462.479 304.113C485.266 300.512 512.351 297.01 530.041 315.519C531.34 316.919 529.641 319.32 527.942 318.22C518.347 311.617 508.553 307.415 496.76 306.514Z" fill="black"/>
<path fill-rule="evenodd" clip-rule="evenodd" d="M519.471 322.468L571.589 398.57C573.31 404.018 572.127 408.343 567.918 411.384C563.709 414.425 559.32 414.375 554.645 411.432L495.456 339.821C502.366 340.156 507.772 338.853 511.65 336.05C515.529 333.247 518.129 328.767 519.471 322.468Z" fill="#C91024" stroke="black" stroke-width="3"/>
<path fill-rule="evenodd" clip-rule="evenodd" d="M517.852 321.858L489.208 302.404C487.63 301.819 486.392 301.856 485.331 302.636C483.781 303.775 484.014 305.099 483.822 306.362C483.694 307.204 486.942 317.777 493.566 338.083L503.657 345.124L508.91 337.276L518.207 336.676L517.852 321.858Z" fill="#EDE1C3" stroke="black" stroke-width="3"/>
<path fill-rule="evenodd" clip-rule="evenodd" d="M491.107 303.913C491.931 309.438 489.506 311.247 483.771 309.258C483.691 309.319 482.174 305.062 484.923 303.012C486.782 301.625 488.75 301.912 491.107 303.913Z" fill="#C91024" stroke="black" stroke-width="2"/>
<path fill-rule="evenodd" clip-rule="evenodd" d="M519.814 326.248L520.236 337.661L570.409 404.967C572.053 404.416 570.991 397.526 570.991 397.526L519.814 326.248Z" fill="#FF8290"/>
<path d="M399.5 643C265.019 643 156 533.981 156 399.5C156 265.019 265.019 156 399.5 156C533.981 156 643 265.019 643 399.5C643 533.981 533.981 643 399.5 643Z" stroke="black" stroke-width="9"/>
<path d="M189.2 342.8C189.2 342.8 230.6 335 269.5 342.6C295.8 347.7 304.7 364 320.6 373.5C328.2 378 338.1 378.1 346.6 373.8C363.3 365.3 392.4 352.1 418.5 348.7C457.8 343.5 511.5 355.6 511.5 355.6C511.5 355.6 512.6 373.6 510.8 377.5C509 381.4 501.1 377.6 497.8 380.3C494.5 383 488.3 394.8 485.4 395.9C482.5 397 481.4 399 481.4 399C481.4 399 477.4 414.9 475.6 420C473.8 425.1 462.3 475.1 421.6 477.8C380.9 480.5 365.7 462.9 365.7 462.9C365.7 462.9 351.9 450.1 352 427.7C352 411.6 349.9 401.3 347.4 398C344.9 394.7 337.9 391.7 332.4 392.3C327 391.3 319.8 393.9 317.1 397C314.4 400.1 311.7 410.2 310.7 426.4C309.4 448.7 300 460.9 300 460.9C300 460.9 291 471.3 271.1 470.3C230.4 468.4 222.2 414.5 220.8 409.2C219.4 403.9 216.3 387.9 216.3 387.9C216.3 387.9 215.4 385.9 212.5 384.6C209.6 383.3 204.2 371.2 201.1 368.3C198 365.4 189.8 368.8 188.3 364.7C187.1 360.7 189.2 342.8 189.2 342.8ZM414.8 468.4C429.9 468.9 442 463.1 451.7 450.7C460.9 439 472.4 404.7 472.9 389.4C473.8 359.3 452.8 362 422.1 361C391.4 360 361.8 385.3 360.9 415.4C359.7 452.9 379.7 467.3 414.8 468.4ZM240.5 441.5C244.1 446.9 248.5 451.8 253.9 456C264.2 463.9 281.8 465.3 291.5 455.5C301.8 445.1 302.8 427.3 303.2 413.7C303.7 398.5 302.4 381 293 368.3C282.2 353.6 261.1 352.4 244.3 352.4C241.6 352.4 238.9 352.5 236.4 353.2C226 356.3 225.7 370.2 225.4 378.9C225 392.5 227.7 406.8 231.1 419.9C233.3 427.7 236.3 435 240.5 441.5Z" fill="black"/>
<path d="M510.9 377.4C510.9 377.4 558.6 375.7 569.5 385.4C580.4 395.1 583.1 402.2 583.1 402.2C583.1 402.2 594 401.6 589.9 389.7C585.8 377.8 578.4 370.5 562.9 368.7C547.5 367 511.5 355.5 511.5 355.5L510.9 377.4Z" fill="black"/>
</svg>
