<svg width="800" height="800" viewBox="0 0 800 800" fill="none" xmlns="http://www.w3.org/2000/svg">
<g clip-path="url(#clip0_3489_2595)">
<path d="M245.1 411.2C235.6 321.7 284.4 254.1 328.6 230.1C372.8 206.1 407.1 206.1 448.3 217.1C510.5 231.3 530.1 281.7 530.1 281.7C530.1 281.7 520.6 301.8 506.2 317.7C498.8 325.9 471.4 324.9 469 334.5C461.9 362.9 518.2 390.1 518.2 390.1C518.2 390.1 458.6 415.3 460.1 451.2L461.4 457.4C461.4 457.4 398.6 504.2 373.9 506.4C298 501 245.1 411.2 245.1 411.2Z" fill="#CA51AF"/>
<path d="M532.1 282.2C532.1 282.2 522.6 302.3 508.2 318.2C500.8 326.4 473.4 325.4 471 335L470.9 335.1C463.8 363.5 520.1 390.7 520.1 390.7L523.3 390.5C559.2 392 566.7 378.5 566.7 378.5L578.7 396.4C589 430.4 608.6 276.8 533.9 282.8L532.1 282.2Z" fill="#FFD651"/>
<path d="M556.1 584.4L527.6 529.4L477.2 545.8L471.7 630.3C471.8 630.4 528.2 612.9 556.1 584.4Z" fill="#FFEDB4" stroke="black" stroke-width="10" stroke-miterlimit="10"/>
<path d="M333.2 631.9C333.2 631.9 257.1 497.2 256.5 497.7C230.2 475.3 225.3 429.9 225.3 429.9C178.3 465.6 193.6 526.2 199.1 535C199.2 534.9 241.8 607.8 333.2 631.9Z" fill="#FFEDB4"/>
<path d="M468.4 338.4C468.4 338.4 439.8 352 407.2 355.8C374.6 359.6 338 353.6 322.1 378.4C290.2 428.1 321.2 488.6 321.2 488.6L366.2 507.3C366.2 507.3 386.7 513.4 461.5 457.6C461.5 457.6 455.9 434.2 467.2 423.6C478.4 413 515.7 389.9 515.7 389.9C515.7 389.9 460.7 372.1 468.4 338.4Z" fill="#E396D1"/>
<path d="M430.2 641.2C430.2 641.2 465.3 540.2 472.7 512.6C480.1 485.1 462 445.1 462 445.1C462 445.1 480.7 441.5 502.7 465C524.6 488.5 539.6 525.6 539.6 525.6L490 543.7L527.1 558.2L491.5 624.1L430.2 641.2Z" fill="#FFEDB4"/>
<path d="M454.5 291.6C454.5 318.3 436.8 339.9 415 339.9C393.2 339.9 375.5 318.3 375.5 291.6C375.5 264.9 393.6 257.5 415.4 257.5C437.2 257.5 454.5 264.9 454.5 291.6Z" fill="white" stroke="#FFD651" stroke-width="7" stroke-miterlimit="10"/>
<path d="M416.2 318.8C428.406 318.8 438.3 309.89 438.3 298.9C438.3 287.91 428.406 279 416.2 279C403.995 279 394.1 287.91 394.1 298.9C394.1 309.89 403.995 318.8 416.2 318.8Z" fill="black"/>
<path d="M542.124 309.804C546.683 304.546 548.078 298.29 545.241 295.83C542.404 293.369 536.408 295.637 531.849 300.894C527.291 306.152 525.895 312.408 528.733 314.868C531.57 317.329 537.566 315.061 542.124 309.804Z" fill="black"/>
<path d="M349 266.7C349 266.7 406.2 243.1 437 251.1C467.8 259.1 479.2 287.4 479.2 287.4C479.2 287.4 496.3 311.3 530 281.7" stroke="black" stroke-width="9" stroke-miterlimit="10" stroke-linecap="round" stroke-linejoin="round"/>
<path d="M400 162C432.1 162 463.3 168.3 492.6 180.7C520.9 192.7 546.4 209.8 568.3 231.7C590.2 253.6 607.3 279 619.3 307.4C631.7 336.7 638 367.9 638 400C638 432.1 631.7 463.3 619.3 492.6C607.3 520.9 590.2 546.4 568.3 568.3C546.4 590.2 521 607.3 492.6 619.3C463.3 631.7 432.1 638 400 638C367.9 638 336.7 631.7 307.4 619.3C279.1 607.3 253.6 590.2 231.7 568.3C209.8 546.4 192.7 521 180.7 492.6C168.3 463.3 162 432.1 162 400C162 367.9 168.3 336.7 180.7 307.4C192.7 279.1 209.8 253.6 231.7 231.7C253.6 209.8 279 192.7 307.4 180.7C336.7 168.3 367.9 162 400 162ZM400 153C263.6 153 153 263.6 153 400C153 536.4 263.6 647 400 647C536.4 647 647 536.4 647 400C647 263.6 536.4 153 400 153Z" fill="black"/>
<path d="M565.1 370.5C550 350.3 531.7 362.1 517.7 362.1C499.7 362.1 482.6 356 483 342.7" stroke="black" stroke-width="9" stroke-miterlimit="10" stroke-linecap="round" stroke-linejoin="round"/>
<path d="M532 282.3C606.7 276.3 587.2 429.9 576.8 395.9C573.3 384.2 569.3 376.1 565.1 370.4" stroke="black" stroke-width="9" stroke-miterlimit="10" stroke-linecap="round" stroke-linejoin="round"/>
<path d="M564.8 378C564.8 378 557.3 391.5 521.4 390" stroke="black" stroke-width="9" stroke-miterlimit="10" stroke-linecap="round" stroke-linejoin="round"/>
<path d="M245.1 411.2C235.6 321.7 284.4 254.1 328.6 230.1C372.8 206.1 407.1 206.1 448.3 217.1C510.5 231.3 530.1 281.7 530.1 281.7C530.1 281.7 520.6 301.8 506.2 317.7C498.8 325.9 471.4 324.9 469 334.5C461.9 362.9 518.2 390.1 518.2 390.1C518.2 390.1 458.6 415.3 460.1 451.2" stroke="black" stroke-width="9" stroke-miterlimit="10" stroke-linecap="round" stroke-linejoin="round"/>
<path d="M241.1 405.2C241.1 405.2 285.7 489.5 366.3 507.3L341.4 568.9C341.4 568.9 219.2 496.1 228.1 426.7L241.1 405.2Z" fill="white" stroke="black" stroke-width="8" stroke-miterlimit="10"/>
<path d="M461.7 455.1C461.7 455.1 398.3 506.1 371.6 508.4L427.3 561.7C427.3 561.7 457.8 538.6 471.2 514.5C484.6 490.5 461.7 455.1 461.7 455.1Z" fill="white" stroke="black" stroke-width="8" stroke-miterlimit="10"/>
<path d="M357.9 525L348.4 552.9L355 577.8L398.2 576.6L403 540.4L369.7 511.2L357.9 525Z" fill="#4E4D47" stroke="black" stroke-width="8" stroke-miterlimit="10"/>
<path d="M398.2 576.6L354.9 577.8L347.4 636.3C347.4 636.3 362.2 643 384.1 643C406 643 423.5 641.8 423.5 641.8L398.2 576.6Z" fill="#4E4D47" stroke="black" stroke-width="8" stroke-miterlimit="10"/>
<path d="M461.4 442.2C461.4 442.2 479.8 441.9 501.7 465.4C523.6 488.9 538.6 526 538.6 526L489 544.1L526.1 558.6L493 622.5" stroke="black" stroke-width="9" stroke-miterlimit="10" stroke-linecap="round" stroke-linejoin="round"/>
<path d="M471.8 513L431.7 637.6" stroke="black" stroke-width="8" stroke-miterlimit="10"/>
<path d="M337.1 634.6L257 497.7" stroke="black" stroke-width="8" stroke-miterlimit="10"/>
<path d="M214.2 554.9L259.6 551.6L253.6 593.7" stroke="black" stroke-width="8" stroke-miterlimit="10"/>
<path d="M199.6 534.9C194.1 526.1 178.8 465.4 225.8 429.8" stroke="black" stroke-width="9" stroke-miterlimit="10" stroke-linecap="round" stroke-linejoin="round"/>
</g>
<defs>
<clipPath id="clip0_3489_2595">
<rect width="494" height="494" fill="white" transform="translate(153 153)"/>
</clipPath>
</defs>
</svg>
