<svg width="800" height="800" viewBox="0 0 800 800" fill="none" xmlns="http://www.w3.org/2000/svg">
<path d="M262.1 569.94L259.52 570.17" stroke="black" stroke-width="7.85" stroke-miterlimit="10"/>
<path d="M400.05 642.32C534.532 642.32 643.55 533.302 643.55 398.82C643.55 264.339 534.532 155.32 400.05 155.32C265.569 155.32 156.55 264.339 156.55 398.82C156.55 533.302 265.569 642.32 400.05 642.32Z" stroke="black" stroke-width="9"/>
<path d="M348.38 350.3C360.07 365.85 376.24 377.71 394.24 383.93C409.56 389.23 425.85 390.47 441.95 391.67C453.09 392.5 464.22 393.33 475.36 394.16C481.12 394.59 486.99 395.01 492.59 393.55C498.57 391.99 503.83 388.38 508.97 384.84C520.35 376.99 532.41 368.27 537.1 354.93C539.6 347.83 539.73 340.1 539.77 332.54C539.86 315.78 539.67 299.01 539.18 282.26C538.98 275.41 538.68 268.32 535.77 262.18C530.13 250.28 516.56 245.24 504.1 242.47C454.86 231.54 403.77 238.71 353.89 245.92C345.77 247.09 337.57 248.29 329.92 251.36C308.57 259.94 294.56 282.27 289.19 305.44C283.82 328.6 285.72 352.84 287.66 376.59C288.65 388.75 289.65 400.92 290.64 413.08C291.74 426.52 292.87 440.15 297.23 452.85C300.8 463.25 306.42 472.72 312 482.11C315.52 488.04 319.09 494.03 323.88 498.9C329.25 504.37 335.93 508.2 342.6 511.8C371.31 527.3 401.57 539.69 432.73 548.72C435.44 549.51 438.29 550.27 441.04 549.63C447.24 548.17 449.95 540.6 455 536.56C458.04 534.13 459.12 533.34 460.23 529.59C462.11 523.2 464.17 519.93 462.14 507.91C458.88 488.55 448.01 471.46 440.87 453.17C433.73 434.88 429.74 414.18 435.65 395.42C435.96 394.44 436.1 393.03 436.78 392.27" fill="#DADAD2"/>
<path d="M348.38 350.3C360.07 365.85 376.24 377.71 394.24 383.93C409.56 389.23 425.85 390.47 441.95 391.67C453.09 392.5 464.22 393.33 475.36 394.16C481.12 394.59 486.99 395.01 492.59 393.55C498.57 391.99 503.83 388.38 508.97 384.84C520.35 376.99 532.41 368.27 537.1 354.93C539.6 347.83 539.73 340.1 539.77 332.54C539.86 315.78 539.67 299.01 539.18 282.26C538.98 275.41 538.68 268.32 535.77 262.18C530.13 250.28 516.56 245.24 504.1 242.47C454.86 231.54 403.77 238.71 353.89 245.92C345.77 247.09 337.57 248.29 329.92 251.36C308.57 259.94 294.56 282.27 289.19 305.44C283.82 328.6 285.72 352.84 287.66 376.59C288.65 388.75 289.65 400.92 290.64 413.08C291.74 426.52 292.87 440.15 297.23 452.85C300.8 463.25 306.42 472.72 312 482.11C315.52 488.04 319.09 494.03 323.88 498.9C329.25 504.37 335.93 508.2 342.6 511.8C371.31 527.3 401.57 539.69 432.73 548.72C435.44 549.51 438.29 550.27 441.04 549.63C447.24 548.17 449.95 540.6 455 536.56C458.04 534.13 459.12 533.34 460.23 529.59C462.11 523.2 464.17 519.93 462.14 507.91C458.88 488.55 448.01 471.46 440.87 453.17C433.73 434.88 429.74 414.18 435.65 395.42C435.96 394.44 436.1 393.03 436.78 392.27" stroke="black" stroke-width="9" stroke-miterlimit="10"/>
<path d="M530.61 204.91C533.15 207.61 536.7 209.1 540.18 210.39C547.41 213.07 554.84 215.21 562.38 216.81C578.58 220.24 595.77 221.3 610.12 229.56C611.45 233.22 606.96 236.15 603.29 237.44C583.54 244.4 564.05 256.85 543.17 255.29C540.7 255.11 538.22 254.92 535.75 254.74C532.74 246.71 524.53 241.84 516.41 239.08C501.84 234.13 486.14 233.92 470.75 234.14C431.86 234.71 393.02 237.77 354.52 243.28C338.48 245.58 321.66 248.67 309.23 259.07C302.44 264.76 297.44 272.25 292.55 279.63C279.98 279.49 267.46 276.64 256.06 271.34C249.72 268.39 243.56 264.54 239.51 258.85C235.46 253.15 233.89 245.3 237.01 239.05C241.07 230.91 251.08 228.06 260 226.3C271.76 223.98 283.65 222.07 295.64 221.78C296.94 214 301.32 206.77 307.63 202.02C327.4 202.21 346.37 195.64 365.88 192.43C371.77 191.46 377.7 190.81 383.64 190.23C413.95 187.26 444.41 185.93 474.86 186.26C479.18 186.31 483.6 186.4 487.67 187.85C492.24 189.48 496.1 192.71 500.64 194.41C506.02 196.43 512.19 196.22 517.17 199.1C520.08 200.78 528.32 202.45 530.62 204.9L530.61 204.91Z" fill="#A5614C" stroke="black" stroke-width="9" stroke-miterlimit="10"/>
<path d="M309.73 159.6C315.35 144.42 324.94 130.16 338.93 122.02C358.56 110.59 383.15 112.85 404.79 105.94C415.79 102.43 427.31 96.4702 438.25 100.16C446.43 102.92 453.14 110.87 461.74 110.14C466.37 109.75 470.81 106.78 475.33 107.82C479.66 108.81 482.33 113.08 484.23 117.09C493.78 137.28 496.25 160.96 509.78 178.72C511.85 181.43 514.26 185 512.49 187.92C511.62 189.36 509.96 190.09 508.39 190.69C497.05 195.05 484.87 197.19 472.73 196.96C461.68 196.75 450.77 194.61 439.77 193.53C411.01 190.7 381.84 195.17 354.29 203.88C342.26 207.68 315.09 219.77 304.3 207.59C295.21 197.33 305.78 170.28 309.74 159.59L309.73 159.6Z" stroke="black" stroke-width="8" stroke-miterlimit="10"/>
<path d="M293.35 276.09C280.1 274.39 257.06 267.08 249.58 260.29C246.15 257.18 245.58 251.84 245.91 246.68C246.18 242.44 248.71 238.65 252.56 236.86C261.25 232.84 272 231.56 281.23 230.68C363.03 222.96 445.44 226.7 527.52 230.44C554.18 231.66 581.01 230.47 607.55 233.26C592.71 245.17 569.96 250.42 549.78 254.53C547.46 255 541.68 255.8 539.35 255.37C533.49 254.29 534.09 247.21 529.1 243.95C518.66 237.14 506.11 234.54 493.53 234.43C455.28 234.08 417.02 235.42 378.89 238.46C372.21 240.19 366.3 240.56 360.18 242.44C352.88 244.69 345.58 246.94 338.28 249.18C330.86 251.46 323.43 253.75 316.28 256.76C308.16 260.18 300.5 270.92 293.36 276.08L293.35 276.09Z" fill="#010B0A"/>
<path d="M287.44 222.14C324.52 215.83 346.59 215.31 384.15 217.23C390.97 217.58 397.78 218.06 404.59 218.55C427.63 220.19 450.72 221.98 473.81 221.26C502.52 220.36 533.72 222.64 561.5 226.12" stroke="#010B0A" stroke-width="6" stroke-miterlimit="10"/>
<path d="M432.79 393.75C431.98 395.84 431.82 398.28 431.18 400.42C428.69 408.68 428.79 417.56 430.25 426.06C431.7 434.57 433.56 443.79 437.01 451.7C438.37 454.81 439.72 457.92 441.08 461.03C441.87 462.83 442.65 464.94 441.74 466.69C440.4 469.25 436.7 468.99 433.88 468.35C429.44 467.35 424.82 466.26 421.28 463.4C418.39 461.07 416.48 457.77 414.78 454.47C410.39 445.93 406.97 436.75 400.93 429.29C391.43 417.55 376.33 411.11 367.79 398.66C364.63 394.06 362.53 388.85 360.24 383.76C355.73 373.74 350.92 363.34 344.91 354.13C365.9 378.18 388.2 392.52 432.81 393.75H432.79Z" fill="#9F9C90"/>
<path d="M533.64 287.39C536.03 291.87 536.6 297.07 536.94 302.14C537.56 311.24 537.58 320.39 537 329.5C536.6 335.88 535.06 343.43 529.14 345.86C527.54 346.51 525.8 346.69 524.07 346.81C519.51 347.12 514.8 347.01 510.57 345.26C496.6 339.49 489.31 316.14 486.12 302.52C482.44 286.83 495.37 274.29 511.1 275C519.9 275.4 529.31 279.29 533.63 287.39H533.64Z" fill="white"/>
<path d="M458.57 286.88C455.44 278.04 446.71 272.57 438.27 268.47C426.85 262.93 413.26 258.62 401.76 263.99C392.08 268.52 386.43 278.92 383.83 289.29C380.44 302.81 381.3 317.72 388.09 329.89C394.88 342.06 408.09 350.93 422.02 350.71C426.57 350.64 431.2 349.6 435.02 347.12C438.13 345.1 440.58 342.23 442.83 339.28C451.52 327.86 463.56 300.97 458.58 286.88H458.57Z" fill="white"/>
<path d="M417.18 274.36C424.95 271.33 433.99 272.66 440.69 279.37C446.11 284.95 449.94 293.94 451.01 301.12C452.5 311.81 452.71 321.46 445.69 330.73C437.92 340.95 422.18 346.05 410.48 338.01C391.01 324.39 393.89 283.43 417.18 274.35V274.36Z" fill="#FFFF00"/>
<path d="M425.09 292.99C429.43 291.33 434.43 292.01 438.1 295.72C441.1 298.74 443.22 303.62 443.77 307.62C444.66 313.47 444.66 318.74 440.77 323.81C436.43 329.37 427.76 332.2 421.19 327.81C410.62 320.4 412.18 297.97 425.08 292.99H425.09Z" fill="black"/>
<path d="M506.19 285.59C512.53 283.12 519.92 284.2 525.39 289.68C529.82 294.24 532.95 301.58 533.82 307.45C535.04 316.18 535.21 324.06 529.48 331.63C523.14 339.97 510.28 344.15 500.72 337.58C484.82 326.45 487.16 293 506.19 285.58V285.59Z" fill="#FFFF00"/>
<path d="M511.42 300.35C514.96 299 519.05 299.55 522.05 302.58C524.5 305.05 526.23 309.03 526.68 312.3C527.41 317.08 527.41 321.38 524.23 325.52C520.69 330.06 513.6 332.37 508.24 328.79C499.61 322.74 500.88 304.41 511.42 300.35Z" fill="black"/>
<path d="M443.12 347.41C442.03 348.89 441.81 349.66 441.55 351.48C440.55 358.52 441.2 365.8 443.46 372.55C445.54 378.77 450.98 383.36 456.21 387.31C462.13 391.78 468.99 394.8 475.78 397.79C488.26 403.28 500.73 408.77 513.21 414.25C517.42 416.1 521.7 417.97 526.26 418.6C530.82 419.23 542.83 415.25 546.37 412.3C541.79 408.55 535.1 407.36 529.68 404.96C524.46 402.64 517.05 398.31 511.78 396.13C500.73 391.55 489.05 385.08 479.24 378.25C472.58 373.61 466.15 368.8 459.63 363.97C453.22 359.22 445.13 358.57 443.09 350.86C442.87 351.79 442.66 352.71 442.44 353.64" fill="#AD3E17"/>
<path d="M443.12 347.41C442.03 348.89 441.81 349.66 441.55 351.48C440.55 358.52 441.2 365.8 443.46 372.55C445.54 378.77 450.98 383.36 456.21 387.31C462.13 391.78 468.99 394.8 475.78 397.79C488.26 403.28 500.73 408.77 513.21 414.25C517.42 416.1 521.7 417.97 526.26 418.6C530.82 419.23 542.83 415.25 546.37 412.3C541.79 408.55 535.1 407.36 529.68 404.96C524.46 402.64 517.05 398.31 511.78 396.13C500.73 391.55 489.05 385.08 479.24 378.25C472.58 373.61 466.15 368.8 459.63 363.97C453.22 359.22 445.13 358.57 443.09 350.86C442.87 351.79 442.66 352.71 442.44 353.64" stroke="black" stroke-width="9" stroke-miterlimit="10"/>
<path d="M449.78 326.75C456.16 313.05 469.75 302.13 484.86 301.89C488.15 301.84 491.52 302.3 494.43 303.83C497.64 305.52 500.07 308.39 501.98 311.47C509.45 323.54 509.67 339 517.02 351.14C526.17 366.25 544.42 373.29 556.05 386.59C560.56 391.75 564.07 399.33 560.63 405.26C552.16 419.82 493.58 386.93 482.34 380.21C471.37 373.65 461.02 367.68 452.18 358.43C442.51 348.32 443.82 339.52 449.77 326.76L449.78 326.75Z" fill="#F2971F" stroke="black" stroke-width="9" stroke-miterlimit="10"/>
<path d="M475.9 329.6C476.1 328.59 476.43 327.6 476.85 326.65C477.1 326.08 477.4 325.49 477.93 325.15C478.42 324.83 479.05 324.78 479.63 324.88C481.03 325.13 482.16 326.22 482.82 327.47C483.48 328.72 483.75 330.14 484.02 331.54C484.28 332.93 484.54 334.31 484.8 335.7C485.3 338.36 485.87 341.41 484.78 344C483.84 346.25 481.56 347.93 479.61 345.89C477.89 344.09 477.43 340.47 476.76 338.17C475.93 335.35 475.33 332.53 475.92 329.6H475.9Z" fill="#010500"/>
<path d="M529.98 598.06L504.07 546.2C503.87 545.8 503.38 545.63 502.97 545.82L475.19 558.97C474.56 559.27 474.56 560.16 475.19 560.47L497.54 571.33C500.35 572.69 501.6 576.01 500.4 578.89L480.24 627.25C479.95 627.95 480.68 628.64 481.37 628.31C499.04 619.84 509.14 625.11 529.88 598.96C530.08 598.71 530.12 598.35 529.98 598.06Z" fill="#4EC291" stroke="black" stroke-width="9.81" stroke-miterlimit="10"/>
<path d="M344.89 633.65C344.89 633.65 291.5 512.31 291.03 512.79C270.54 491.1 266.72 447.13 266.72 447.13C230.1 481.7 242.02 540.39 246.31 548.91C246.39 548.81 273.68 610.31 344.9 633.65H344.89Z" fill="#4EC291"/>
<path d="M425.81 637.9C425.81 637.9 453.36 554.28 459.13 527.55C464.9 500.92 450.79 462.18 450.79 462.18C450.79 462.18 465.36 458.69 482.5 481.45C499.56 504.21 511.25 540.14 511.25 540.14L472.6 557.67L501.51 571.71L480.15 625.51L425.8 637.9H425.81Z" fill="#4EC291"/>
<path d="M285.59 423.19C285.59 423.19 315.23 506.83 378.03 524.07L358.63 583.72C358.63 583.72 263.42 513.22 270.35 446.01L285.59 423.19Z" fill="white" stroke="black" stroke-width="7.85" stroke-miterlimit="10"/>
<path d="M449.6 472.19C449.6 472.19 402.97 522.91 382.16 525.13L425.56 576.75C425.56 576.75 449.32 554.38 459.76 531.04C470.2 507.8 449.59 472.19 449.59 472.19H449.6Z" fill="white" stroke="black" stroke-width="7.85" stroke-miterlimit="10"/>
<path d="M371.48 541.21L364.08 568.23L369.23 592.35L402.88 591.18L406.62 556.13L380.68 527.85L371.48 541.21Z" fill="#68655C" stroke="black" stroke-width="7.85" stroke-miterlimit="10"/>
<path d="M402.88 591.18L369.14 592.34L361.81 639.36C361.81 639.36 375.13 643.19 392.2 643.19C409.27 643.19 417.16 636.94 417.16 636.94L402.88 591.19V591.18Z" fill="#68655C" stroke="black" stroke-width="7.85" stroke-miterlimit="10"/>
<path d="M448.79 460.45C448.79 460.45 466.47 460.74 483.53 483.5C500.59 506.26 512.28 542.19 512.28 542.19L473.63 559.72L502.54 573.76L479.39 629.31" stroke="black" stroke-width="8.83" stroke-linecap="round" stroke-linejoin="round"/>
<path d="M460.23 529.59L422.39 641.32" stroke="black" stroke-width="7.85" stroke-miterlimit="10"/>
<path d="M346.98 634.34L289.3 511.82" stroke="black" stroke-width="7.85" stroke-miterlimit="10"/>
<path d="M290.48 605.4L290.21 607.74" stroke="black" stroke-width="7.85" stroke-miterlimit="10"/>
<path d="M268.56 447.13C231.94 481.61 243.86 540.39 248.15 548.91C248.15 548.91 272.34 609.73 318.15 626.83" stroke="black" stroke-width="8.83" stroke-linecap="round" stroke-linejoin="round"/>
<path d="M321.04 628.98C293.74 621.12 271.07 607.26 253.02 592.34C219.2 564.39 201.59 532.72 200.06 529.91C200 529.8 200.06 529.68 200.18 529.65C229.66 522.83 242.25 497.01 244.7 491.3C244.78 491.11 245.06 491.2 245.04 491.4C241.97 523.07 250.08 549.23 262.1 569.94L294.89 566.97L290.48 605.4C304.4 618.58 319.99 627.86 324.09 630.2C324.28 630.3 321.25 629.04 321.04 628.98Z" fill="#4EC291" stroke="black" stroke-width="9.81" stroke-miterlimit="10"/>
<path d="M363.3 249.66C370.74 248.35 378.83 251.22 385.6 255.46C404.76 267.44 425.28 275.71 446.29 279.89C456.4 281.91 468.92 281.55 474.1 270.05C475.37 267.22 476.03 263.92 475.98 260.64C475.93 257.65 475.79 255.27 475.64 252.28C474.72 257.27 471.6 261.2 468.04 263.39C464.48 265.58 460.5 266.27 456.58 266.73C448.37 267.69 440.32 266.26 432.39 263.31C426 260.93 419.76 258.16 413.69 254.65C399.62 246.53 379.34 241.57 367.91 244.43C366.5 244.78 363.77 247.86 363.33 249.66H363.3Z" fill="#010B0A"/>
<path d="M565.78 258.62C560.48 257.68 554.72 259.73 549.89 262.75C536.24 271.29 521.62 277.18 506.65 280.16C499.45 281.6 490.52 281.34 486.84 273.15C485.93 271.13 485.46 268.78 485.5 266.44C485.54 264.31 485.63 262.62 485.75 260.49C486.4 264.05 488.63 266.84 491.17 268.4C493.71 269.96 496.54 270.45 499.34 270.78C505.19 271.47 510.93 270.44 516.58 268.34C521.13 266.64 525.58 264.67 529.91 262.17C539.93 256.38 554.38 252.85 562.53 254.89C563.53 255.14 565.48 257.33 565.8 258.62H565.78Z" fill="#010B0A"/>
<path d="M312.8 161.32C318.23 146.63 327.49 132.83 340.99 124.95C359.94 113.89 383.69 116.07 404.58 109.39C415.2 105.99 426.32 100.23 436.88 103.8C444.78 106.47 451.25 114.17 459.56 113.46C464.03 113.08 468.32 110.21 472.69 111.21C476.87 112.17 479.45 116.3 481.28 120.18C490.5 139.72 492.89 162.63 505.95 179.83C507.95 182.46 510.28 185.91 508.57 188.73C507.73 190.12 506.13 190.83 504.61 191.42C493.66 195.64 481.9 197.71 470.17 197.49C459.5 197.29 448.96 195.22 438.34 194.17C410.57 191.43 382.41 195.76 355.81 204.19C344.2 207.87 317.96 219.57 307.54 207.78C298.77 197.85 308.97 171.67 312.8 161.32Z" fill="#A5614C"/>
<path d="M293.56 222.2C292.21 216.19 296.4 211.1 301.49 207.55C306.59 204 312.78 202.41 318.7 200.47C326.26 197.99 333.56 194.83 341.07 192.21C358.57 186.09 377.01 182.94 395.46 180.84C433.4 176.53 471.85 176.6 509.78 181.06C512.77 181.41 515.85 181.82 518.4 183.4C520.95 184.98 526.52 188.1 525.7 190.95C526.13 202.85 529.53 200.85 532.2 208.05C525.32 206.78 519.62 208.93 512.74 207.66C506.45 206.5 500.15 205.34 493.78 204.82C488.45 204.39 483.1 204.4 477.76 204.42C467.12 204.45 456.47 204.48 445.84 204.95C416.02 206.27 388.38 208.51 359.69 216.63C351.6 218.92 339.91 217.3 331.51 217.67C319 218.21 306.07 221.67 293.56 222.21V222.2Z" fill="#5E5D56" stroke="#010B0A" stroke-width="9" stroke-miterlimit="10"/>
</svg>
