<svg width="800" height="800" viewBox="0 0 800 800" fill="none" xmlns="http://www.w3.org/2000/svg">
<path d="M459.63 634.971C453.5 634.971 447.27 634.301 441.78 633.701L400.33 629.211C377.44 626.731 346.1 623.341 325.55 603.501C313.42 591.791 294.88 563.761 307.01 507.631C318.42 454.841 343.03 431.281 361.67 420.821C373.58 414.131 386.76 410.601 399.52 407.191C404.76 405.791 410.17 404.341 415.36 402.701C436.5 396.031 450.42 386.111 456.73 373.231C462.51 361.441 461.98 347.051 461.51 334.361C461.13 324.171 460.47 313.651 459.83 303.481C458.52 282.731 457.16 261.271 458.07 240.441C458.69 226.321 466.24 218.541 479.34 218.541C489.34 218.541 501.43 222.981 511.15 226.551L513.16 227.291C556.65 243.181 589.26 275.661 610.09 323.831L610.16 323.991L610.22 324.151C617.99 346.771 620.24 370.311 621.32 388.291C622.66 410.571 622.85 436.621 614.06 460.861C598.12 504.821 556.52 532.611 526.62 549.691C516.04 555.731 504.05 562.581 500.98 573.671C499.56 578.801 500.19 584.471 500.86 590.461C501.64 597.461 502.44 604.711 500.06 611.881C496.63 622.201 486.62 630.461 473.95 633.451C469.61 634.471 464.93 634.971 459.63 634.971Z" fill="#888579"/>
<path d="M479.34 223.04C489.19 223.04 501.62 227.86 511.62 231.51C557.08 248.12 587.2 282.22 605.96 325.61C612.9 345.81 615.54 367.24 616.83 388.55C618.27 412.38 617.97 436.87 609.83 459.31C595.72 498.22 560.33 525.23 524.39 545.76C512.94 552.3 500.16 559.73 496.65 572.44C493.25 584.74 499.82 598.32 495.79 610.43C492.55 620.18 482.91 626.68 472.92 629.04C468.56 630.07 464.11 630.44 459.63 630.44C453.85 630.44 448.02 629.82 442.27 629.2C428.46 627.7 414.64 626.21 400.83 624.71C375.09 621.92 347.32 618.22 328.69 600.24C305.3 577.66 304.56 540.34 311.42 508.56C318.6 475.34 334.24 441.36 363.88 424.72C380.12 415.6 398.95 412.58 416.72 406.97C434.48 401.36 452.58 391.91 460.78 375.19C466.91 362.68 466.53 348.1 466.02 334.17C464.88 303.32 461.23 271.43 462.57 240.61C463.15 227.24 470.12 223.01 479.34 223.01M479.34 214.04C463.69 214.04 454.3 223.59 453.58 240.25C452.66 261.31 454.02 282.89 455.34 303.76C455.98 313.91 456.65 324.4 457.02 334.53C457.47 346.69 457.98 360.48 452.69 371.26C446.94 382.99 433.92 392.13 414 398.42C408.91 400.03 403.54 401.46 398.35 402.85C385.33 406.34 371.86 409.94 359.46 416.9C340.02 427.82 314.37 452.26 302.61 506.68C298.58 525.35 297.6 543.48 299.78 559.11C302.54 578.87 310.16 594.89 322.42 606.73C344.07 627.64 376.3 631.13 399.84 633.68L421.75 636.05L441.29 638.17C446.89 638.78 453.24 639.46 459.62 639.46C465.27 639.46 470.29 638.92 474.97 637.82C489.15 634.48 500.4 625.08 504.32 613.29C507.02 605.18 506.12 597.09 505.32 589.95C504.7 584.4 504.12 579.15 505.31 574.85C507.88 565.56 519.02 559.19 528.84 553.58C559.36 536.15 601.83 507.73 618.28 462.38C627.35 437.38 627.17 410.75 625.8 388.01C624.7 369.75 622.41 345.82 614.46 322.68L614.35 322.35L614.21 322.03C592.87 272.68 559.39 239.38 514.7 223.05L512.69 222.31C502.64 218.62 490.13 214.03 479.33 214.03L479.34 214.04Z" fill="black"/>
<path d="M245.05 571.38L592.76 571.58L607.47 555.4L235.07 556.12L245.05 571.38Z" fill="#A5614C" stroke="black" stroke-width="5" stroke-miterlimit="10"/>
<path d="M418.02 643.5C552.501 643.5 661.52 534.481 661.52 400C661.52 265.519 552.501 156.5 418.02 156.5C283.539 156.5 174.52 265.519 174.52 400C174.52 534.481 283.539 643.5 418.02 643.5Z" stroke="black" stroke-width="9"/>
<path d="M276.43 228.48C276.2 228.48 275.99 228.48 275.76 228.5L276.43 228.48Z" fill="#FFA63B"/>
<path d="M276.43 228.48H275.76V228.5C275.99 228.49 276.2 228.48 276.43 228.48Z" fill="black"/>
<path d="M137 362.49C136.74 326.14 150.64 291.88 176.15 266.02C201.48 240.3 235.31 225.91 271.4 225.5H271.55C271.72 225.48 271.88 225.48 272.05 225.48L459.09 224.13L460.1 364.12L137.03 366.45L137 362.49Z" fill="#FFA63B"/>
<path d="M456.12 227.15L457.09 361.14L140.02 363.43V362.48C139.76 326.93 153.35 293.43 178.3 268.13C203.07 242.98 236.15 228.91 271.44 228.5H271.59L271.74 228.49C271.85 228.49 271.96 228.49 272.07 228.49L456.11 227.16M462.07 221.11L272.03 222.48C271.8 222.48 271.59 222.48 271.36 222.5C233.23 222.94 198.83 238.72 174.01 263.91C149.03 289.25 133.73 324.12 134 362.51L134.05 369.46L463.12 367.08L462.07 221.09V221.11Z" fill="black"/>
<path d="M145.19 363.3L457.08 361.1L456.62 317.61C456.62 317.61 431.71 324.85 422.43 327.77C413.15 330.69 361.22 340 319.33 334.81C319.33 334.81 231.51 325.01 205.23 328.9C205.23 328.9 187.92 328.64 169.11 336.53C169.11 336.53 148.39 345.71 145.19 363.3Z" fill="#AD3E17"/>
<path d="M142.66 367.82C143.47 354.78 153.07 343.51 164.66 337.48C176.25 331.45 189.6 329.85 202.65 329.17C243.07 327.09 282.16 332.85 322.64 335.65C362.63 338.41 403.81 338 441.43 324.16" stroke="black" stroke-width="4" stroke-miterlimit="10"/>
<path d="M149.31 303.52L190.23 328.19L174.94 367.26L139.76 366.86C139.76 366.86 140.93 309.49 149.31 303.52Z" fill="black"/>
<path d="M482.3 261.88C503.48 259.34 526.05 267.6 537.6 286.23" stroke="black" stroke-width="4" stroke-miterlimit="10"/>
<path d="M491.29 562.55C483.86 554.52 472.36 550.64 461.54 551.99C458.53 552.37 456.87 548.65 459.19 546.7C461.32 544.92 463.77 543.49 466.34 542.46C471.81 540.27 477.79 539.69 483.68 539.63C489.96 539.56 496.91 540.36 501.13 545.01C502.54 546.57 503.54 548.46 504.31 550.42C505.74 554.04 506.54 557.9 506.69 561.8C506.83 565.4 506.45 569.19 504.68 572.35C504.02 573.52 503.2 574.56 502.26 575.5C499.84 577.93 495.75 575.9 496.01 572.48C496.01 572.39 496.01 572.32 496.01 572.27C496.01 568.61 493.66 565.14 491.28 562.56L491.29 562.55Z" fill="#F2CD79" stroke="black" stroke-width="9" stroke-miterlimit="10" stroke-linecap="round"/>
<path d="M461.22 562.55C453.79 554.52 442.29 550.64 431.47 551.99C428.46 552.37 426.8 548.65 429.12 546.7C431.25 544.92 433.7 543.49 436.27 542.46C441.74 540.27 447.72 539.69 453.61 539.63C459.89 539.56 466.84 540.36 471.06 545.01C472.47 546.57 473.47 548.46 474.24 550.42C475.67 554.04 476.47 557.9 476.62 561.8C476.76 565.4 476.38 569.19 474.61 572.35C473.95 573.52 473.13 574.56 472.19 575.5C469.77 577.93 465.68 575.9 465.94 572.48C465.94 572.39 465.94 572.32 465.94 572.27C465.94 568.61 463.59 565.14 461.21 562.56L461.22 562.55Z" fill="#F2CD79" stroke="black" stroke-width="9" stroke-miterlimit="10" stroke-linecap="round"/>
<path d="M417.64 563.96C410.21 555.93 398.71 552.05 387.89 553.4C384.88 553.78 383.22 550.06 385.54 548.11C387.67 546.33 390.12 544.9 392.69 543.87C398.16 541.68 404.14 541.1 410.03 541.04C416.31 540.97 423.26 541.77 427.48 546.42C428.89 547.98 429.89 549.87 430.66 551.83C432.09 555.45 432.89 559.31 433.04 563.21C433.18 566.81 432.8 570.6 431.03 573.76C430.37 574.93 429.55 575.97 428.61 576.91C426.19 579.34 422.1 577.31 422.36 573.89C422.36 573.8 422.36 573.73 422.36 573.68C422.36 570.02 420.01 566.55 417.63 563.97L417.64 563.96Z" fill="#F2CD79" stroke="black" stroke-width="9" stroke-miterlimit="10" stroke-linecap="round"/>
<path d="M387.58 563.96C380.15 555.93 368.65 552.05 357.83 553.4C354.82 553.78 353.16 550.06 355.48 548.11C357.61 546.33 360.06 544.9 362.63 543.87C368.1 541.68 374.08 541.1 379.97 541.04C386.25 540.97 393.2 541.77 397.42 546.42C398.83 547.98 399.83 549.87 400.6 551.83C402.03 555.45 402.83 559.31 402.98 563.21C403.12 566.81 402.74 570.6 400.97 573.76C400.31 574.93 399.49 575.97 398.55 576.91C396.13 579.34 392.04 577.31 392.3 573.89C392.3 573.8 392.3 573.73 392.3 573.68C392.3 570.02 389.95 566.55 387.57 563.97L387.58 563.96Z" fill="#F2CD79" stroke="black" stroke-width="9" stroke-miterlimit="10" stroke-linecap="round"/>
<path d="M513.14 247.8C532.64 254.99 548.75 270.85 556.23 290.24C561.1 302.85 562.39 316.5 563.61 329.96C564.47 339.47 565.16 349.67 560.4 357.94C556.1 365.42 548.04 369.95 539.92 372.85C519.69 380.08 496.65 379.12 477.09 370.22C472.77 368.25 468.39 365.69 466.21 361.47C463.97 357.13 465.41 351.95 464.99 347.09C462.62 319.6 462 289.6 461.72 261.2C461.59 248.38 461.3 246.9 474.7 244.52C487.5 242.25 500.93 243.3 513.14 247.8Z" fill="#DBDBDB"/>
<path d="M478.43 275.37C481.38 271.45 484.96 267.7 489.77 265.46C495.58 262.75 502.51 262.52 509.15 262.59C514.21 262.65 519.42 262.88 523.98 264.73C527.35 266.1 530.19 268.3 532.5 270.79C541.59 280.61 542.3 294.07 542.62 306.56C542.78 312.84 542.94 319.11 543.1 325.39C543.2 329.2 543.29 333.07 542.14 336.75C539.27 345.97 529.17 352.36 518.67 355.76C510.76 358.33 501.8 359.6 493.87 357.08C485.75 354.5 479.86 348.25 476.61 341.43C467.35 321.97 464.86 293.4 478.43 275.38V275.37Z" fill="white"/>
<path d="M486.96 281.57C488.89 278.68 491.24 275.92 494.39 274.27C498.2 272.27 502.74 272.1 507.08 272.16C510.39 272.2 513.81 272.37 516.8 273.73C519.01 274.74 520.87 276.36 522.38 278.2C528.33 285.44 528.8 295.35 529.01 304.55C529.12 309.17 529.22 313.79 529.33 318.42C529.39 321.23 529.45 324.07 528.7 326.79C526.82 333.58 520.2 338.29 513.32 340.79C508.14 342.68 502.27 343.62 497.08 341.76C491.76 339.86 487.9 335.25 485.77 330.23C479.7 315.9 478.07 294.86 486.96 281.58V281.57Z" fill="#FFFF00"/>
<path d="M495.89 283.37C498.83 282.43 502.38 282.59 504.59 284.75C505.86 285.99 506.53 287.7 507.11 289.38C508.38 293.07 509.41 296.84 510.17 300.67C510.97 304.65 511.48 308.76 510.81 312.76C510.14 316.76 508.15 320.68 504.78 322.96C499.99 326.19 492.83 325.17 489.13 320.73C486.03 317.01 485.53 311.82 485.35 306.98C485.07 299.46 487.7 286.01 495.89 283.38V283.37Z" fill="black"/>
<path d="M411.47 462C417.43 456.81 421.7 452.85 425.74 446.16C426.78 444.44 428.85 441.98 430.44 440.74C431.67 439.78 433.37 437.44 434.53 436.34C438.82 432.3 440.96 428.15 444.2 424.4C449.38 418.4 457.66 416.09 465.27 418.33C468.69 419.34 472.18 420.69 474.97 423C479.46 426.72 481.66 432.45 483.67 437.92C484.24 439.48 484.83 441.16 484.4 442.77C484.18 443.62 483.69 444.37 483.22 445.11C476.21 456.14 471.05 468.34 468.02 481.06C467.33 483.96 466.31 486.97 464.85 489.67C463.29 492.55 458.97 491.71 458.65 488.45C457.76 479.34 453.37 471.04 445.62 465.56C440.55 461.97 434.59 459.84 428.57 458.33C424.4 457.28 418.29 459.39 414.22 460.8C413.14 461.17 410.16 462.96 411.47 461.99V462Z" fill="#A37062" stroke="#020202" stroke-width="9" stroke-miterlimit="10" stroke-linecap="round"/>
<path d="M426.95 456.2C429.08 456.18 431.12 456.95 433.11 457.71C439.35 460.1 445.78 462.61 450.5 467.33C452.81 469.65 454.63 472.42 456.29 475.24C460.21 481.9 463.4 490.33 459.67 497.1C457.07 501.82 451.66 504.38 446.33 505.13C436.09 506.57 425.4 502.09 418.62 494.28C412.5 487.23 409.52 477.75 409.78 468.48C409.89 464.5 410.1 462.66 413.48 460.81C417.05 458.85 422.88 456.24 426.95 456.2Z" fill="#CCEAFF" stroke="black" stroke-width="9" stroke-miterlimit="10"/>
<path d="M457.71 441.21C464.65 434.96 471.68 428.8 478.79 422.74C480.55 421.24 483.68 420.88 485.67 422.07C487.48 423.16 488.72 424.96 489.74 426.8C490.56 428.28 491.27 429.85 491.55 431.52C491.83 433.19 491.63 434.98 490.74 436.42C490.13 437.4 489.22 438.17 488.29 438.86C482.83 442.95 479.22 449.35 475.14 454.82C473.9 456.48 472.52 458.18 470.57 458.87C470.57 458.87 470.56 458.87 470.55 458.87C469.95 455.81 469.04 452.62 467.54 449.89C466.04 447.16 463.49 444.82 460.4 444.38C459.84 444.3 459.27 444.28 458.71 444.23C457.21 444.09 456.59 442.23 457.71 441.22V441.21Z" fill="#A37062" stroke="#020202" stroke-width="5" stroke-miterlimit="10"/>
<path d="M466.85 457.95C465.8 457.95 464.59 457.6 463.35 456.94C459.9 455.11 457.35 451.57 456.7 447.72C456.54 446.8 456.74 446.02 457.31 445.35C458.25 444.24 460.15 443.49 462.04 443.49C463 443.49 463.9 443.68 464.58 444.04C467.26 445.44 468.45 449.08 469.44 452.68C469.83 454.11 470.14 455.36 469.84 456.23C469.57 457.05 468.56 457.76 467.45 457.91C467.25 457.94 467.04 457.95 466.84 457.95H466.85Z" fill="#F28B02"/>
<path d="M462.05 445.99C462.6 445.99 463.11 446.09 463.42 446.25C465.21 447.19 466.22 450.4 467.03 453.33C467.16 453.79 467.44 454.8 467.46 455.31C467.37 455.36 467.25 455.41 467.11 455.43C467.03 455.44 466.93 455.45 466.84 455.45C466.21 455.45 465.38 455.19 464.51 454.73C461.73 453.25 459.68 450.4 459.16 447.3C459.12 447.07 459.14 447.05 459.22 446.96C459.62 446.48 460.79 445.99 462.05 445.99ZM462.05 440.99C457.92 440.99 453.47 443.6 454.24 448.13C455.02 452.75 458.04 456.94 462.18 459.14C463.62 459.91 465.24 460.45 466.86 460.45C467.18 460.45 467.49 460.43 467.81 460.39C469.75 460.12 471.62 458.87 472.23 457.02C472.77 455.41 472.32 453.65 471.86 452.01C470.78 448.08 469.36 443.72 465.75 441.83C464.67 441.27 463.38 441 462.05 441V440.99Z" fill="black"/>
<path d="M466.36 464.69C472.32 459.5 476.59 455.54 480.63 448.85C481.67 447.13 483.74 444.67 485.33 443.43C486.56 442.47 488.26 440.13 489.42 439.03C494.03 434.69 496.16 430.22 499.83 426.26C504.86 420.83 512.57 418.85 519.69 420.89C523.26 421.92 526.94 423.28 529.85 425.69C534.34 429.41 536.54 435.14 538.55 440.61C539.12 442.17 539.71 443.85 539.28 445.46C539.06 446.31 538.57 447.06 538.1 447.8C531.09 458.83 525.93 471.03 522.9 483.75C522 487.53 520.55 491.48 518.29 494.71C516.91 496.68 513.77 495.77 513.69 493.37C513.35 483.4 508.89 474.17 500.51 468.25C495.44 464.66 489.48 462.53 483.46 461.02C479.29 459.97 473.18 462.08 469.11 463.49C468.03 463.86 465.05 465.65 466.36 464.68V464.69Z" fill="#A37062" stroke="#020202" stroke-width="9" stroke-miterlimit="10" stroke-linecap="round"/>
<path d="M481.84 458.891C483.97 458.871 486.01 459.64 488 460.4C494.24 462.79 500.67 465.3 505.39 470.02C507.7 472.34 509.52 475.11 511.18 477.93C515.1 484.59 518.29 493.021 514.56 499.791C511.96 504.511 506.55 507.071 501.22 507.821C490.98 509.261 480.29 504.781 473.51 496.971C467.39 489.921 464.41 480.441 464.67 471.171C464.78 467.191 464.99 465.351 468.37 463.501C471.94 461.541 477.77 458.931 481.84 458.891Z" fill="#CCEAFF" stroke="black" stroke-width="9" stroke-miterlimit="10"/>
<path d="M433.11 431.46C423.46 425.86 422.39 415.53 427.88 405.81C431.79 398.88 439.47 394.19 441.66 386.54C437.23 386.59 432.96 388.12 428.79 389.63C426.62 390.42 424.42 391.21 422.47 392.45C418.97 394.65 416.43 398.12 414.6 401.83C407.65 415.89 409.63 433.98 422.28 443.25" fill="#141411"/>
<path d="M540.76 450.94C550.17 454.93 555.5 445.54 562.73 438.3C569.14 431.88 574.91 424.85 580.67 417.84C599.82 394.52 620.06 368.04 618.19 337.92C625.71 360.25 623.44 385.35 613.73 406.82C604.03 428.29 587.25 446.19 567.44 458.95C555.74 466.49 544.97 473.87 531.9 469.09" fill="#141411"/>
</svg>
