<svg width="800" height="800" viewBox="0 0 800 800" fill="none" xmlns="http://www.w3.org/2000/svg">
<g clip-path="url(#clip0_3489_3705)">
<mask id="mask0_3489_3705" style="mask-type:alpha" maskUnits="userSpaceOnUse" x="147" y="149" width="500" height="501">
<path d="M572.524 575.252C670.741 477.035 671.796 318.849 574.881 221.934C477.966 125.018 319.78 126.073 221.563 224.29C123.346 322.507 122.291 480.693 219.206 577.608C316.122 674.524 474.308 673.468 572.524 575.252Z" fill="#C4C4C4"/>
</mask>
<g mask="url(#mask0_3489_3705)">
<path d="M351.53 216.878C380.592 219.095 409.544 223.641 437.83 231.291C451.252 234.949 464.563 239.273 477.431 244.373C515.811 259.672 556.077 283.397 566.171 326.413C569.055 338.941 569.499 351.912 568.944 364.662C567.835 389.496 564.618 410.227 554.746 433.177C544.873 455.904 532.339 477.523 519.804 498.809C513.038 510.228 506.049 521.536 498.728 532.734C488.412 548.588 483.975 564.996 482.311 583.732C481.535 593.045 481.424 602.468 480.315 611.781C479.094 622.091 478.984 716.438 469 720.651C457.686 725.418 437.165 727.524 425.517 723.755C408.657 718.323 412.65 610.34 415.756 596.925C426.294 550.251 434.946 479.851 397.12 442.711C380.038 425.97 358.407 415.106 339.439 400.804C317.365 384.174 297.176 364.883 280.094 343.154C262.346 320.426 251.808 293.375 234.725 270.426C227.848 261.224 246.816 256.124 257.465 245.703C272.329 231.069 267.005 222.089 286.084 215.548C288.857 214.661 289.744 215.437 292.739 215.437C312.262 214.883 331.896 215.437 351.53 216.878Z" fill="#015EAC" fill-opacity="0.139013"/>
<path d="M350.753 218.652C386.139 222.311 420.969 227.854 454.802 238.829C481.978 247.588 509.488 259.45 531.562 277.743C541.767 286.169 550.42 296.48 556.631 308.231C564.174 322.533 566.393 338.719 566.615 354.795C566.837 371.314 565.173 388.165 561.623 404.352C557.963 420.981 551.085 436.392 543.542 451.469C535.667 467.323 526.682 482.512 517.586 497.811C509.155 512.002 498.95 525.528 491.407 540.273C479.427 563.665 478.429 590.606 477.32 616.437C476.543 632.513 476.321 648.588 475.434 664.664C474.546 680.961 474.546 698.589 469.888 714.331C469.444 715.773 468.778 717.768 467.891 718.655C467.225 719.32 463.454 720.096 461.901 720.54C458.019 721.649 454.025 722.203 450.032 722.646C443.487 723.422 436.721 723.422 430.176 722.203C427.292 721.649 425.295 721.094 423.743 718.655C420.526 713.445 419.527 706.793 418.529 700.917C417.087 692.158 416.421 683.178 415.978 674.309C414.979 655.462 415.201 636.504 416.089 617.657C416.865 602.468 420.082 588.388 422.633 573.421C430.731 525.638 431.84 468.654 391.907 434.396C380.371 424.418 367.17 416.547 354.525 408.121C340.659 398.919 327.681 388.498 315.368 377.3C303.166 366.214 292.074 354.019 281.869 341.047C271.553 327.854 263.677 312.998 255.468 298.475C251.364 291.158 247.038 283.841 242.379 276.745C240.382 273.752 238.164 270.87 236.167 267.876C234.392 265.215 236.833 263.22 238.719 261.557C243.377 257.566 249.146 254.905 254.026 251.136C259.129 247.144 263.455 242.377 267.005 236.945C269.667 232.843 271.442 228.186 274.658 224.528C279.095 219.428 285.418 217.543 291.852 217.765C311.264 218.43 330.676 217.876 350.088 219.206C352.972 219.428 355.301 214.439 352.085 214.217C334.447 212.887 316.81 212.333 299.062 212.444C292.185 212.444 286.971 211.778 280.648 214.55C276.211 216.546 272.551 219.317 269.556 223.087C266.783 226.523 265.008 230.736 262.678 234.506C258.796 240.714 253.583 245.592 247.593 249.694C241.603 253.796 228.846 259.118 230.288 268.209C230.621 270.204 232.174 271.978 233.283 273.53C235.834 276.967 238.275 280.626 240.493 284.284C245.041 291.38 249.146 298.808 253.25 306.125C261.015 319.983 268.89 333.73 278.652 346.258C298.507 371.535 322.911 393.487 349.533 411.447C373.715 427.744 399.339 442.157 411.652 469.873C422.079 493.598 422.744 520.982 420.637 546.37C419.638 558.787 417.753 571.093 415.423 583.399C414.092 590.162 412.317 596.703 411.652 603.577C409.988 619.652 409.766 635.839 409.877 651.914C409.877 670.096 410.321 688.722 413.759 706.682C414.868 712.225 416.2 717.879 419.416 722.536C423.632 728.633 434.28 727.968 440.714 727.968C446.926 727.968 453.138 727.081 459.239 725.751C462.899 724.975 468.113 724.088 470.886 721.427C474.214 718.212 475.101 712.336 475.878 708.123C479.316 690.606 479.76 672.313 480.536 654.575C481.091 640.495 480.98 626.304 482.2 612.224C483.531 597.147 483.642 581.847 486.637 566.991C489.965 550.361 498.174 537.058 507.048 522.978C525.239 494.264 542.766 464.552 556.41 433.398C568.944 404.684 573.048 371.203 570.386 340.161C568.611 319.207 560.181 300.249 546.204 284.617C533.115 269.983 515.922 259.34 498.506 250.803C453.249 228.63 401.446 217.543 351.308 214.772C349.977 214.993 348.646 218.43 350.753 218.652Z" fill="black" stroke="black" stroke-width="3"/>
</g>
<path d="M426.615 332.495C414.128 344.533 389.706 339.405 372.246 320.902C354.676 302.4 350.587 277.655 363.074 265.505C375.561 253.467 399.983 258.595 417.443 277.098C435.013 295.6 439.102 320.457 426.615 332.495Z" fill="white"/>
<path d="M415.304 324.155C406.456 332.649 391.967 331.767 382.787 322.279C373.718 312.792 373.497 298.34 382.345 289.845C391.193 281.351 405.681 282.233 414.861 291.721C424.041 301.098 424.152 315.66 415.304 324.155Z" fill="#FFFF00"/>
<path d="M412.332 322.716C408.254 326.685 401.092 325.803 396.464 320.953C391.726 316.102 391.285 308.937 395.362 304.968C399.439 301 406.602 301.882 411.23 306.732C415.968 311.583 416.409 318.748 412.332 322.716Z" fill="black"/>
<path d="M411.34 321.724C402.745 329.22 388.42 314.228 396.244 305.961C400.1 301.882 406.712 304.638 410.018 307.835C413.654 311.362 415.086 317.756 411.34 321.724C409.907 323.267 411.781 325.252 413.213 323.708C423.902 312.354 406.271 293.724 394.371 303.976C388.751 308.827 390.955 317.315 395.142 322.055C399.77 327.236 407.814 328.338 413.213 323.708C414.866 322.275 412.993 320.401 411.34 321.724Z" fill="black"/>
<path d="M400.844 246C427.498 251.43 452.708 260.74 475.252 276.366C492.244 288.113 508.125 302.299 520.341 318.923C531.891 334.549 541.887 352.17 547.773 370.789C550.993 381.095 553.214 391.956 554.325 402.706C556.213 421.768 558.323 447.258 555.213 466.098C549.66 499.124 542.997 524.835 531.669 547C582.422 493.582 610.297 374.668 557.212 316.485C534.779 291.881 506.57 276.809 475.919 264.729C463.814 259.964 451.264 255.863 438.604 253.204C433.051 251.985 427.498 251.32 421.945 250.211C414.727 248.881 407.841 247.219 400.844 246Z" fill="black"/>
<path d="M224.806 228.533C320.733 132.606 475.119 131.657 569.638 226.176C664.157 320.695 663.209 475.082 567.282 571.009C471.355 666.937 316.968 667.884 222.449 573.365C127.93 478.846 128.878 324.46 224.806 228.533Z" stroke="black" stroke-width="12"/>
<path d="M10.3969 97.3325C20.2649 106.548 33.6811 113.876 45.2123 121.537C54.6369 127.977 189.131 202.035 202.547 210.473C229.601 227.683 257.542 242.45 282.712 262.547C294.465 272.096 306.439 281.867 318.192 291.859C326.952 299.409 341.033 311.179 347.575 320.283C334.269 306.404 313.425 296.412 294.132 295.634C272.178 294.857 256.655 279.313 238.139 268.321C206.206 249.334 175.937 227.794 144.558 207.142C111.295 185.158 77.2559 160.398 46.0993 135.305C32.3506 124.202 10.3969 97.3325 10.3969 97.3325Z" fill="#FFD200" stroke="black" stroke-width="3"/>
<path d="M9.3989 98.3316C22.2607 110.434 38.1161 119.317 53.0846 128.421C66.0572 136.193 79.3625 143.521 92.5569 150.849C124.268 168.614 156.09 186.157 187.579 204.033C209.865 216.691 231.93 230.237 253.44 244.116C271.845 255.996 288.699 269.875 305.552 283.865C319.523 295.523 335.267 307.182 346.244 321.838C347.131 320.949 348.129 320.061 349.016 319.173C339.148 309.18 327.062 301.963 313.757 297.633C307.548 295.523 301.006 294.524 294.464 294.191C286.149 293.747 278.498 291.193 271.18 287.418C258.208 280.756 246.565 271.318 234.036 263.768C219.068 254.664 204.432 245.004 189.796 235.344C160.636 215.803 131.253 196.594 102.758 176.165C77.4776 158.066 51.1997 139.857 29.9112 116.985C25.6979 112.433 21.5954 107.769 17.6038 103.106C15.608 100.885 12.947 99.3309 11.0621 96.9993C10.5077 96.3331 9.28803 97.4434 9.84241 98.1096C11.1729 99.775 12.1708 101.885 13.3905 103.661C16.0515 107.88 19.8214 111.544 23.1477 115.319C31.4635 124.535 40.1119 133.195 49.7582 140.857C76.8123 162.397 104.753 182.826 133.36 202.146C162.41 221.798 191.459 241.673 221.064 260.326C234.258 268.654 247.231 276.981 260.314 285.419C265.969 289.083 271.845 292.303 278.165 294.524C284.929 296.967 291.693 297.189 298.789 297.966C316.64 299.853 333.937 309.069 346.355 321.838C347.796 323.392 350.347 320.838 349.127 319.173C341.033 308.292 330.056 299.52 319.745 290.749C306.994 279.757 294.021 268.876 280.716 258.55C256.212 239.674 229.047 224.241 202.658 208.253C176.491 192.375 149.326 178.052 122.605 163.174C103.312 152.404 84.1302 141.412 64.7267 130.753C59.2937 127.755 53.8607 124.868 48.5386 121.648C35.8986 113.987 22.5933 106.326 11.6164 96.5551C10.2859 95.4448 8.29013 97.2213 9.3989 98.3316Z" fill="black" stroke="black" stroke-width="3"/>
<path d="M2 91.9971C49.099 102.87 93.4275 122.618 136.98 143.144C186.185 166.221 239.601 185.414 285.37 216.591C310.305 232.678 337.788 244.66 359.288 265.518C342.554 283.159 356.628 317.774 393.421 340.296C358.069 336.746 348.649 319.549 315.402 293.144C290.578 273.839 264.092 254.423 238.382 236.006C189.399 201.502 134.542 174.098 83.1211 143.587C60.6244 129.941 28.3754 112.966 10.7549 97.8773L2 91.9971Z" fill="#FFFF00"/>
<path d="M9.20338 99.4305C75.142 115.518 127.782 141.812 189.509 168.994C219.653 182.308 249.685 196.176 277.502 214.15C304.32 231.346 334.353 244.993 357.625 267.182C357.736 266.184 355.341 269.444 355.562 268.556C346.253 278.874 348.87 288.151 353.636 300.577C360.507 318.551 376.354 332.419 392.312 342.293C392.977 340.962 393.642 339.742 394.307 338.41C381.673 337.079 370.037 333.529 359.398 326.65C348.538 319.66 339.118 310.23 329.366 301.687C303.323 279.054 274.62 259.194 246.804 239.002C192.169 199.394 131.439 168.772 73.258 134.823C58.7405 126.391 44.1121 118.07 30.0378 108.861C23.9426 104.867 18.4015 99.8743 12.3064 95.8802C9.3142 93.8832 5.65711 93.1065 2.66493 91.1095C1.66754 90.4438 6.70186 94.4702 7.81007 95.1358C10.4698 96.911 5.87875 97.5444 8.53846 99.4305C12.9713 102.537 17.0717 106.198 21.6154 109.305C33.8057 117.848 46.7718 125.281 59.627 132.715C87.7756 149.024 115.924 165.333 144.294 181.198C205.468 215.592 264.203 254.202 318.616 298.691C330.363 308.344 341.224 319.106 353.525 328.092C365.161 336.635 378.46 340.962 392.645 342.515C394.529 342.737 396.856 339.964 394.64 338.632C380.011 329.535 366.934 317.441 359.066 301.798C353.636 290.925 351.641 276.724 360.507 267.071C361.172 266.295 361.836 264.963 360.95 264.187C338.232 242.441 309.196 230.015 283.375 212.707C255.891 194.401 225.748 180.422 195.715 166.997C165.24 153.462 134.985 139.482 104.51 125.836C73.4797 112.078 41.7848 99.7633 8.7601 91.8861C6.76532 91.4423 4.77054 90.9985 2.66493 90.5547C0.670151 89.8891 6.98696 98.8758 9.20338 99.4305Z" fill="black" stroke="black" stroke-width="2"/>
<path d="M449.25 601.363C449.25 601.363 513.547 575.873 527.958 575.873C542.369 575.873 549.02 623.527 541.261 641.259C533.501 658.99 515.764 655.666 515.764 655.666L443.707 620.202L356.844 650.143C356.844 650.143 329.526 629.068 340.611 596.93C351.697 564.791 357.24 571.44 371.651 575.873C386.062 580.306 427.079 600.254 449.25 601.363Z" fill="#D81928"/>
<path d="M449.472 602.803C461.888 597.927 474.304 593.273 486.83 588.84C495.92 585.626 505.011 582.634 514.212 579.974C519.865 578.422 527.736 575.098 532.503 579.863C538.933 586.18 540.706 597.706 541.926 606.239C543.367 616.435 543.81 627.517 541.039 637.602C538.157 648.13 529.288 654.668 518.535 654.447C515.985 654.447 513.879 653.006 510.886 651.455C496.142 644.14 481.398 636.937 466.654 629.623C460.557 626.63 454.46 623.638 448.363 620.646C446.479 619.648 444.927 618.54 442.71 618.873C415.328 622.53 424.76 628.352 397.379 632.009C396.27 632.12 358.237 645.269 356.242 644.825C351.253 643.606 341.591 631.455 341.591 623.032C341.591 615.23 339.946 603.357 342.718 595.378C345.045 588.84 348.371 575.984 356.242 573.879C360.787 572.66 366.884 576.206 371.097 577.425C378.967 579.863 386.506 583.299 394.155 586.291C411.559 593.273 430.183 601.695 449.139 602.914C450.913 603.025 451.689 600.033 449.583 599.922C437.499 599.146 425.638 594.824 414.33 590.724C403.245 586.734 392.492 582.079 381.517 577.757C375.087 575.208 368.325 572.549 361.563 570.997C355.799 569.667 351.364 572.438 348.039 577.092C345.045 581.304 343.05 586.402 341.166 591.167C338.838 597.151 336.842 603.247 336.62 609.674C336.399 616.656 339.549 630.881 342.718 637.602C345.886 644.323 350.913 650.717 358.229 649.72C374.193 647.614 396.87 632.171 412.833 630.066C420.372 629.068 427.855 623.86 435.393 622.862C437.499 622.641 439.606 622.308 441.712 622.087C442.266 621.976 442.71 621.976 443.264 621.865C444.04 621.754 442.377 621.422 443.153 621.865C466.876 633.612 490.71 645.249 514.433 656.996C517.648 658.547 522.526 657.55 525.852 656.774C534.942 654.669 541.371 647.022 543.921 638.378C546.582 629.512 546.36 619.759 545.695 610.672C544.919 601.363 543.034 591.499 538.711 583.077C536.05 577.979 532.17 574.211 526.184 574.765C518.868 575.541 511.662 577.979 504.789 580.195C487.717 585.515 470.978 591.832 454.239 598.26C452.576 598.925 450.913 599.59 449.25 600.254C447.366 600.587 447.476 603.579 449.472 602.803Z" fill="black" stroke="black" stroke-width="4"/>
<path d="M443.707 630.066C454.973 630.066 464.105 620.936 464.105 609.674C464.105 598.412 454.973 589.283 443.707 589.283C432.442 589.283 423.31 598.412 423.31 609.674C423.31 620.936 432.442 630.066 443.707 630.066Z" fill="#CF1326"/>
<path d="M462.664 609.785C462.22 620.424 454.571 628.182 443.929 628.625C433.73 628.958 425.97 620.313 424.862 610.783C423.642 599.811 433.065 591.167 443.486 590.834C454.349 590.391 462.22 600.144 462.553 610.228C462.664 612.223 465.657 611.004 465.546 609.231C465.102 597.041 455.791 588.175 443.818 587.731C431.624 587.288 422.09 598.149 421.647 609.785C421.204 622.086 431.735 631.174 443.375 631.617C455.569 632.061 465.102 621.2 465.546 609.563C465.768 607.569 462.664 608.012 462.664 609.785Z" fill="black" stroke="black" stroke-width="4"/>
</g>
<defs>
<clipPath id="clip0_3489_3705">
<rect width="645" height="645" fill="white" transform="translate(2 60)"/>
</clipPath>
</defs>
</svg>
